ComingSoon.ufo
<glyph name="exclam" format="1">
  <advance width="275"/>
  <unicode hex="0021"/>
  <outline>
    <contour>
      <point x="181" y="72"/>
      <point x="204" y="49"/>
      <point x="204" y="32" type="qcurve" smooth="yes"/>
      <point x="204" y="16"/>
      <point x="181" y="-7"/>
      <point x="147" y="-7"/>
      <point x="125" y="16"/>
      <point x="125" y="32" type="qcurve" smooth="yes"/>
      <point x="125" y="49"/>
      <point x="147" y="72"/>
    </contour>
    <contour>
      <point x="150" y="99" type="qcurve"/>
      <point x="139" y="98"/>
      <point x="123" y="113"/>
      <point x="122" y="124" type="qcurve" smooth="yes"/>
      <point x="120" y="139"/>
      <point x="117" y="170"/>
      <point x="115" y="186" type="qcurve" smooth="yes"/>
      <point x="109" y="243"/>
      <point x="100" y="344"/>
      <point x="100" y="374" type="qcurve" smooth="yes"/>
      <point x="100" y="405"/>
      <point x="95" y="499"/>
      <point x="87" y="598"/>
      <point x="77" y="688"/>
      <point x="72" y="715" type="qcurve"/>
      <point x="72" y="725"/>
      <point x="86" y="741"/>
      <point x="100" y="743" type="qcurve"/>
      <point x="122" y="743"/>
      <point x="127" y="720" type="qcurve" smooth="yes"/>
      <point x="133" y="693"/>
      <point x="143" y="599"/>
      <point x="151" y="498"/>
      <point x="156" y="403"/>
      <point x="156" y="374" type="qcurve" smooth="yes"/>
      <point x="156" y="346"/>
      <point x="165" y="246"/>
      <point x="171" y="192" type="qcurve" smooth="yes"/>
      <point x="173" y="176"/>
      <point x="176" y="144"/>
      <point x="178" y="127" type="qcurve"/>
      <point x="178" y="116"/>
      <point x="163" y="99"/>
    </contour>
  </outline>
</glyph>
<glyph name="quotedbl" format="1">
  <advance width="265"/>
  <unicode hex="0022"/>
  <outline>
    <contour>
      <point x="197" y="660" type="qcurve" smooth="yes"/>
      <point x="199" y="644" type="line"/>
      <point x="202" y="628" type="line" smooth="yes"/>
      <point x="204" y="617"/>
      <point x="207" y="592"/>
      <point x="208" y="578" type="qcurve" smooth="yes"/>
      <point x="208" y="567"/>
      <point x="193" y="551"/>
      <point x="180" y="550" type="qcurve" smooth="yes"/>
      <point x="169" y="549"/>
      <point x="153" y="565"/>
      <point x="152" y="576" type="qcurve" smooth="yes"/>
      <point x="150" y="598"/>
      <point x="146" y="619" type="qcurve" smooth="yes"/>
      <point x="144" y="627"/>
      <point x="142" y="645"/>
      <point x="141" y="653" type="qcurve" smooth="yes"/>
      <point x="139" y="676"/>
      <point x="133" y="716"/>
      <point x="130" y="735" type="qcurve"/>
      <point x="130" y="757"/>
      <point x="158" y="763" type="qcurve"/>
      <point x="168" y="763"/>
      <point x="183" y="750"/>
      <point x="185" y="740" type="qcurve" smooth="yes"/>
      <point x="188" y="724"/>
      <point x="194" y="683"/>
    </contour>
    <contour>
      <point x="84" y="660" type="line" smooth="yes"/>
      <point x="86" y="647"/>
      <point x="87" y="621"/>
      <point x="89" y="607" type="qcurve"/>
      <point x="91" y="578" type="line" smooth="yes"/>
      <point x="91" y="567"/>
      <point x="76" y="550"/>
      <point x="63" y="550" type="qcurve"/>
      <point x="52" y="549"/>
      <point x="36" y="564"/>
      <point x="35" y="575" type="qcurve" smooth="yes"/>
      <point x="33" y="603" type="line"/>
      <point x="31" y="616"/>
      <point x="30" y="641"/>
      <point x="28" y="654" type="qcurve" smooth="yes"/>
      <point x="27" y="662"/>
      <point x="27" y="670" type="qcurve" smooth="yes"/>
      <point x="27" y="686" type="line"/>
      <point x="27" y="702" type="line"/>
      <point x="27" y="714" type="line"/>
      <point x="27" y="724" type="line"/>
      <point x="26" y="736" type="line" smooth="yes"/>
      <point x="26" y="746"/>
      <point x="40" y="762"/>
      <point x="54" y="764" type="qcurve"/>
      <point x="76" y="764"/>
      <point x="81" y="742" type="qcurve" smooth="yes"/>
      <point x="83" y="735"/>
      <point x="83" y="728,5" type="qcurve" smooth="yes"/>
      <point x="83" y="714" type="line"/>
      <point x="83" y="701" type="line"/>
      <point x="83" y="686" type="line"/>
      <point x="83" y="673" type="line"/>
    </contour>
  </outline>
</glyph>
<glyph name="numbersign" format="1">
  <advance width="544"/>
  <unicode hex="0023"/>
  <outline>
    <contour>
      <point x="343" y="287" type="qcurve" smooth="yes"/>
      <point x="351" y="310"/>
      <point x="372" y="378"/>
      <point x="383" y="414" type="qcurve"/>
      <point x="372" y="415"/>
      <point x="359" y="415" type="qcurve" smooth="yes"/>
      <point x="332" y="415" type="line" smooth="yes"/>
      <point x="285" y="415"/>
      <point x="239" y="412" type="qcurve"/>
      <point x="227" y="370"/>
      <point x="203" y="292"/>
      <point x="194" y="268" type="qcurve" smooth="yes"/>
      <point x="192" y="261"/>
      <point x="185" y="239"/>
      <point x="180" y="225" type="qcurve"/>
      <point x="200" y="226"/>
      <point x="240" y="227"/>
      <point x="260" y="227" type="qcurve" smooth="yes"/>
      <point x="293,5" y="227" type="line"/>
      <point x="324" y="226" type="line"/>
      <point x="330" y="247"/>
      <point x="339" y="277"/>
    </contour>
    <contour>
      <point x="500" y="460" type="qcurve" smooth="yes"/>
      <point x="511" y="458"/>
      <point x="524" y="441"/>
      <point x="523" y="427" type="qcurve"/>
      <point x="521" y="417"/>
      <point x="505" y="404"/>
      <point x="491" y="405" type="qcurve" smooth="yes"/>
      <point x="490" y="405"/>
      <point x="464" y="408"/>
      <point x="440" y="410" type="qcurve"/>
      <point x="429" y="368"/>
      <point x="404" y="292"/>
      <point x="396" y="268" type="qcurve"/>
      <point x="389" y="252"/>
      <point x="381" y="222" type="qcurve"/>
      <point x="403" y="220"/>
      <point x="426" y="216"/>
      <point x="428" y="216" type="qcurve" smooth="yes"/>
      <point x="438" y="214"/>
      <point x="451" y="198"/>
      <point x="450" y="184" type="qcurve" smooth="yes"/>
      <point x="447" y="161"/>
      <point x="418" y="161" type="qcurve"/>
      <point x="412" y="162"/>
      <point x="404" y="163" type="qcurve" smooth="yes"/>
      <point x="397" y="164"/>
      <point x="378" y="165"/>
      <point x="365" y="167" type="qcurve"/>
      <point x="359" y="144"/>
      <point x="344" y="91"/>
      <point x="336" y="60" type="qcurve"/>
      <point x="329" y="39"/>
      <point x="301" y="40" type="qcurve"/>
      <point x="292" y="42"/>
      <point x="281" y="60"/>
      <point x="282" y="74" type="qcurve"/>
      <point x="289" y="102"/>
      <point x="302" y="150"/>
      <point x="308" y="171" type="qcurve"/>
      <point x="260" y="171" type="line" smooth="yes"/>
      <point x="210" y="171"/>
      <point x="164" y="168" type="qcurve"/>
      <point x="157" y="145"/>
      <point x="142" y="90"/>
      <point x="134" y="58" type="qcurve" smooth="yes"/>
      <point x="131" y="49"/>
      <point x="114" y="37"/>
      <point x="99" y="38" type="qcurve"/>
      <point x="90" y="41"/>
      <point x="78" y="58"/>
      <point x="79" y="73" type="qcurve"/>
      <point x="85" y="94"/>
      <point x="98" y="140"/>
      <point x="104" y="163" type="qcurve"/>
      <point x="77" y="161"/>
      <point x="41" y="157"/>
      <point x="38" y="157" type="qcurve" smooth="yes"/>
      <point x="27" y="157"/>
      <point x="12" y="171"/>
      <point x="10" y="185" type="qcurve"/>
      <point x="10" y="196"/>
      <point x="24" y="211"/>
      <point x="35" y="213" type="qcurve" smooth="yes"/>
      <point x="37" y="213"/>
      <point x="85" y="218"/>
      <point x="121" y="221" type="qcurve"/>
      <point x="127" y="242"/>
      <point x="137" y="276"/>
      <point x="141" y="287" type="qcurve" smooth="yes"/>
      <point x="149" y="309"/>
      <point x="169" y="372"/>
      <point x="180" y="407" type="qcurve"/>
      <point x="151" y="405"/>
      <point x="114" y="401"/>
      <point x="111" y="401" type="qcurve" smooth="yes"/>
      <point x="100" y="401"/>
      <point x="85" y="415"/>
      <point x="83" y="429" type="qcurve"/>
      <point x="83" y="440"/>
      <point x="97" y="455"/>
      <point x="108" y="456" type="qcurve" smooth="yes"/>
      <point x="110" y="457"/>
      <point x="159" y="462"/>
      <point x="196" y="465" type="qcurve"/>
      <point x="204" y="495"/>
      <point x="217" y="545"/>
      <point x="220" y="561" type="qcurve" smooth="yes"/>
      <point x="223" y="584"/>
      <point x="252" y="584" type="qcurve"/>
      <point x="275" y="579"/>
      <point x="275" y="551" type="qcurve"/>
      <point x="272" y="536"/>
      <point x="262" y="494"/>
      <point x="255" y="469" type="qcurve"/>
      <point x="275" y="470"/>
      <point x="313" y="471"/>
      <point x="351" y="471"/>
      <point x="384" y="470"/>
      <point x="399" y="469" type="qcurve"/>
      <point x="407" y="498"/>
      <point x="419" y="546"/>
      <point x="421" y="561" type="qcurve"/>
      <point x="426" y="584"/>
      <point x="454" y="584" type="qcurve"/>
      <point x="464" y="582"/>
      <point x="477" y="565"/>
      <point x="476" y="551" type="qcurve" smooth="yes"/>
      <point x="474" y="536"/>
      <point x="463" y="491"/>
      <point x="456" y="465" type="qcurve"/>
      <point x="476" y="463"/>
      <point x="499" y="460"/>
    </contour>
  </outline>
</glyph>
<glyph name="dollar" format="1">
  <advance width="446"/>
  <unicode hex="0024"/>
  <outline>
    <contour>
      <point x="359" y="285" type="line" smooth="yes"/>
      <point x="359" y="300"/>
      <point x="348" y="342"/>
      <point x="325" y="382"/>
      <point x="290" y="415"/>
      <point x="266" y="422" type="qcurve" smooth="yes"/>
      <point x="255" y="426"/>
      <point x="246" y="422" type="qcurve"/>
      <point x="246" y="398"/>
      <point x="249" y="331"/>
      <point x="253" y="258"/>
      <point x="258" y="181"/>
      <point x="261" y="147" type="qcurve"/>
      <point x="264" y="148"/>
      <point x="272" y="150" type="qcurve" smooth="yes"/>
      <point x="301" y="159"/>
      <point x="334" y="183"/>
      <point x="350" y="213"/>
      <point x="356" y="247"/>
      <point x="358" y="266" type="qcurve" smooth="yes"/>
      <point x="359" y="277" type="line"/>
    </contour>
    <contour>
      <point x="106" y="518" type="qcurve" smooth="yes"/>
      <point x="106" y="505"/>
      <point x="145" y="495"/>
      <point x="189" y="490" type="qcurve"/>
      <point x="187" y="548" type="line"/>
      <point x="184" y="603" type="line"/>
      <point x="152" y="591"/>
      <point x="106" y="553"/>
    </contour>
    <contour>
      <point x="282" y="476" type="qcurve" smooth="yes"/>
      <point x="315" y="467"/>
      <point x="364" y="423"/>
      <point x="398" y="369"/>
      <point x="415" y="310"/>
      <point x="415" y="285" type="qcurve" smooth="yes"/>
      <point x="415" y="271" type="line"/>
      <point x="414" y="260" type="line" smooth="yes"/>
      <point x="412" y="241"/>
      <point x="404" y="195"/>
      <point x="379" y="149"/>
      <point x="330" y="109"/>
      <point x="288" y="96" type="qcurve" smooth="yes"/>
      <point x="282" y="94"/>
      <point x="271" y="92"/>
      <point x="265" y="90" type="qcurve"/>
      <point x="268" y="57"/>
      <point x="272" y="15"/>
      <point x="272" y="13" type="qcurve" smooth="yes"/>
      <point x="272" y="2"/>
      <point x="257" y="-14"/>
      <point x="244" y="-15" type="qcurve" smooth="yes"/>
      <point x="233" y="-16"/>
      <point x="217" y="-1"/>
      <point x="216" y="10" type="qcurve" smooth="yes"/>
      <point x="216" y="13"/>
      <point x="212" y="53"/>
      <point x="210" y="84" type="qcurve"/>
      <point x="189" y="85"/>
      <point x="147" y="96"/>
      <point x="118" y="104" type="qcurve" smooth="yes"/>
      <point x="89" y="113"/>
      <point x="49" y="148"/>
      <point x="23" y="185"/>
      <point x="11" y="216"/>
      <point x="10" y="221" type="qcurve"/>
      <point x="10" y="230"/>
      <point x="23" y="245"/>
      <point x="38" y="249" type="qcurve"/>
      <point x="58" y="249"/>
      <point x="65" y="229" type="qcurve" smooth="yes"/>
      <point x="71" y="213"/>
      <point x="81" y="199" type="qcurve" smooth="yes"/>
      <point x="89" y="187"/>
      <point x="116" y="162"/>
      <point x="136" y="157" type="qcurve"/>
      <point x="159" y="150"/>
      <point x="191" y="142"/>
      <point x="205" y="141" type="qcurve"/>
      <point x="202" y="176"/>
      <point x="197" y="253"/>
      <point x="193" y="328"/>
      <point x="190" y="396"/>
      <point x="190" y="422" type="qcurve"/>
      <point x="187" y="434" type="line"/>
      <point x="164" y="436"/>
      <point x="116" y="443"/>
      <point x="76" y="460"/>
      <point x="50" y="491"/>
      <point x="50" y="518" type="qcurve" smooth="yes"/>
      <point x="50" y="551"/>
      <point x="75" y="597"/>
      <point x="109" y="628"/>
      <point x="147" y="648"/>
      <point x="161" y="654" type="qcurve" smooth="yes"/>
      <point x="166" y="656"/>
      <point x="177" y="660"/>
      <point x="183" y="662" type="qcurve"/>
      <point x="182" y="682"/>
      <point x="181" y="705"/>
      <point x="181" y="707" type="qcurve" smooth="yes"/>
      <point x="181" y="718"/>
      <point x="196" y="734"/>
      <point x="209" y="735" type="qcurve" smooth="yes"/>
      <point x="220" y="735"/>
      <point x="236" y="720"/>
      <point x="237" y="709" type="qcurve" smooth="yes"/>
      <point x="237" y="708"/>
      <point x="238" y="687"/>
      <point x="239" y="669" type="qcurve"/>
      <point x="242" y="670"/>
      <point x="245,5" y="670" type="qcurve" smooth="yes"/>
      <point x="252" y="670" type="line" smooth="yes"/>
      <point x="278" y="670"/>
      <point x="327" y="663"/>
      <point x="348" y="658" type="qcurve"/>
      <point x="369" y="651"/>
      <point x="368" y="624" type="qcurve"/>
      <point x="363" y="602"/>
      <point x="334" y="604" type="qcurve"/>
      <point x="314" y="609"/>
      <point x="272" y="614"/>
      <point x="252" y="614" type="qcurve" smooth="yes"/>
      <point x="241" y="614" type="line"/>
      <point x="243" y="585"/>
      <point x="244" y="517"/>
      <point x="245" y="483" type="qcurve"/>
      <point x="255" y="481"/>
      <point x="273" y="478"/>
    </contour>
  </outline>
</glyph>
<glyph name="ampersand" format="1">
  <advance width="635"/>
  <unicode hex="0026"/>
  <outline>
    <contour>
      <point x="403" y="69" type="qcurve" smooth="yes"/>
      <point x="429" y="85"/>
      <point x="473" y="121"/>
      <point x="491" y="138" type="qcurve"/>
      <point x="474" y="165"/>
      <point x="424" y="242"/>
      <point x="370" y="320"/>
      <point x="319" y="389"/>
      <point x="303" y="407" type="qcurve" smooth="yes"/>
      <point x="281" y="432" type="line" smooth="yes"/>
      <point x="278" y="435"/>
      <point x="273" y="442"/>
      <point x="270" y="445" type="qcurve"/>
      <point x="226" y="404"/>
      <point x="146" y="319"/>
      <point x="125" y="268" type="qcurve" smooth="yes"/>
      <point x="117" y="248"/>
      <point x="107" y="210"/>
      <point x="107" y="184" type="qcurve" smooth="yes"/>
      <point x="107" y="166"/>
      <point x="110" y="144" type="qcurve" smooth="yes"/>
      <point x="119" y="56"/>
      <point x="173" y="29" type="qcurve" smooth="yes"/>
      <point x="186" y="22"/>
      <point x="217" y="17"/>
      <point x="234" y="17" type="qcurve" smooth="yes"/>
      <point x="276" y="17"/>
      <point x="365" y="47"/>
    </contour>
    <contour>
      <point x="207" y="693" type="qcurve" smooth="yes"/>
      <point x="204" y="687"/>
      <point x="204" y="678" type="qcurve" smooth="yes"/>
      <point x="204" y="663"/>
      <point x="217" y="627"/>
      <point x="238" y="587"/>
      <point x="265" y="546"/>
      <point x="278" y="528" type="qcurve"/>
      <point x="317" y="564"/>
      <point x="370" y="633"/>
      <point x="370" y="673" type="qcurve"/>
      <point x="368" y="687"/>
      <point x="348" y="706"/>
      <point x="338" y="711" type="qcurve" smooth="yes"/>
      <point x="312" y="724"/>
      <point x="284" y="724" type="qcurve" smooth="yes"/>
      <point x="273" y="724" type="line"/>
      <point x="254" y="722"/>
      <point x="213" y="708"/>
    </contour>
    <contour>
      <point x="561" y="131" type="qcurve"/>
      <point x="570" y="117"/>
      <point x="594" y="82"/>
      <point x="610" y="59" type="qcurve" smooth="yes"/>
      <point x="615" y="51"/>
      <point x="615" y="43" type="qcurve" smooth="yes"/>
      <point x="615" y="29"/>
      <point x="603" y="20" type="qcurve" smooth="yes"/>
      <point x="595" y="15"/>
      <point x="587" y="15" type="qcurve" smooth="yes"/>
      <point x="571" y="15"/>
      <point x="564" y="27" type="qcurve" smooth="yes"/>
      <point x="551" y="46"/>
      <point x="530" y="76"/>
      <point x="521" y="89" type="qcurve"/>
      <point x="502" y="72"/>
      <point x="458" y="37"/>
      <point x="432" y="21" type="qcurve" smooth="yes"/>
      <point x="391" y="-3"/>
      <point x="286" y="-39"/>
      <point x="233" y="-39" type="qcurve" smooth="yes"/>
      <point x="210" y="-39"/>
      <point x="168" y="-31"/>
      <point x="148" y="-21" type="qcurve" smooth="yes"/>
      <point x="66" y="20"/>
      <point x="54" y="138" type="qcurve" smooth="yes"/>
      <point x="51" y="163"/>
      <point x="51" y="184" type="qcurve" smooth="yes"/>
      <point x="51" y="216"/>
      <point x="62" y="264"/>
      <point x="73" y="290" type="qcurve" smooth="yes"/>
      <point x="98" y="350"/>
      <point x="189" y="447"/>
      <point x="236" y="490" type="qcurve"/>
      <point x="195" y="546"/>
      <point x="148" y="640"/>
      <point x="148" y="678" type="qcurve" smooth="yes"/>
      <point x="148" y="700"/>
      <point x="155" y="715" type="qcurve" smooth="yes"/>
      <point x="178" y="770"/>
      <point x="268" y="779" type="qcurve" smooth="yes"/>
      <point x="273" y="780"/>
      <point x="284" y="780" type="qcurve" smooth="yes"/>
      <point x="326" y="780"/>
      <point x="364" y="761" type="qcurve"/>
      <point x="420" y="731"/>
      <point x="425" y="679" type="qcurve" smooth="yes"/>
      <point x="426" y="675"/>
      <point x="426" y="671,5" type="qcurve" smooth="yes"/>
      <point x="426" y="665" type="line" smooth="yes"/>
      <point x="426" y="639"/>
      <point x="408" y="592"/>
      <point x="377" y="547"/>
      <point x="335" y="504"/>
      <point x="312" y="483" type="qcurve"/>
      <point x="315" y="478"/>
      <point x="321" y="471"/>
      <point x="324" y="467" type="qcurve" smooth="yes"/>
      <point x="345" y="444" type="line" smooth="yes"/>
      <point x="362" y="424"/>
      <point x="411" y="359"/>
      <point x="464" y="284"/>
      <point x="513" y="209"/>
      <point x="530" y="181" type="qcurve"/>
      <point x="544" y="197"/>
      <point x="557" y="217"/>
      <point x="558" y="218" type="qcurve" smooth="yes"/>
      <point x="566" y="231"/>
      <point x="581" y="231" type="qcurve" smooth="yes"/>
      <point x="589" y="231"/>
      <point x="596" y="226" type="qcurve"/>
      <point x="609" y="219"/>
      <point x="609" y="203" type="qcurve" smooth="yes"/>
      <point x="609" y="193"/>
      <point x="605" y="188" type="qcurve" smooth="yes"/>
      <point x="604" y="186"/>
      <point x="581" y="154"/>
    </contour>
  </outline>
</glyph>
<glyph name="quotesingle" format="1">
  <advance width="147"/>
  <unicode hex="0027"/>
  <outline>
    <contour>
      <point x="84" y="660" type="line" smooth="yes"/>
      <point x="86" y="647"/>
      <point x="87" y="621"/>
      <point x="89" y="607" type="qcurve"/>
      <point x="91" y="578" type="line" smooth="yes"/>
      <point x="91" y="567"/>
      <point x="76" y="550"/>
      <point x="63" y="550" type="qcurve"/>
      <point x="52" y="549"/>
      <point x="36" y="564"/>
      <point x="35" y="575" type="qcurve" smooth="yes"/>
      <point x="33" y="603" type="line"/>
      <point x="31" y="616"/>
      <point x="30" y="641"/>
      <point x="28" y="654" type="qcurve" smooth="yes"/>
      <point x="27" y="662"/>
      <point x="27" y="670" type="qcurve" smooth="yes"/>
      <point x="27" y="686" type="line"/>
      <point x="27" y="702" type="line"/>
      <point x="27" y="714" type="line"/>
      <point x="27" y="724" type="line"/>
      <point x="26" y="736" type="line" smooth="yes"/>
      <point x="26" y="746"/>
      <point x="40" y="762"/>
      <point x="54" y="764" type="qcurve"/>
      <point x="76" y="764"/>
      <point x="81" y="742" type="qcurve" smooth="yes"/>
      <point x="83" y="735"/>
      <point x="83" y="728,5" type="qcurve" smooth="yes"/>
      <point x="83" y="714" type="line"/>
      <point x="83" y="701" type="line"/>
      <point x="83" y="686" type="line"/>
      <point x="83" y="673" type="line"/>
    </contour>
  </outline>
</glyph>
<glyph name="parenleft" format="1">
  <advance width="338"/>
  <unicode hex="0028"/>
  <outline>
    <contour>
      <point x="301" y="19" type="qcurve" smooth="yes"/>
      <point x="323" y="14"/>
      <point x="321" y="-15" type="qcurve"/>
      <point x="316" y="-36"/>
      <point x="287" y="-35" type="qcurve"/>
      <point x="246" y="-24"/>
      <point x="157" y="33"/>
      <point x="83" y="127"/>
      <point x="36" y="258"/>
      <point x="36" y="343" type="qcurve" smooth="yes"/>
      <point x="36" y="369"/>
      <point x="41" y="422"/>
      <point x="46" y="451" type="qcurve" smooth="yes"/>
      <point x="52" y="485"/>
      <point x="65" y="536"/>
      <point x="80" y="574"/>
      <point x="97" y="604"/>
      <point x="108" y="618" type="qcurve" smooth="yes"/>
      <point x="109" y="619"/>
      <point x="125" y="640"/>
      <point x="151" y="670"/>
      <point x="184" y="705"/>
      <point x="222" y="737"/>
      <point x="261" y="761"/>
      <point x="280" y="766" type="qcurve"/>
      <point x="289" y="766"/>
      <point x="305" y="753"/>
      <point x="308" y="738" type="qcurve"/>
      <point x="308" y="729"/>
      <point x="297" y="714"/>
      <point x="287" y="711" type="qcurve" smooth="yes"/>
      <point x="274" y="708"/>
      <point x="239" y="680"/>
      <point x="201" y="643"/>
      <point x="166" y="602"/>
      <point x="153" y="585" type="qcurve" smooth="yes"/>
      <point x="144" y="573"/>
      <point x="130" y="549"/>
      <point x="117" y="516"/>
      <point x="106" y="472"/>
      <point x="101" y="441" type="qcurve" smooth="yes"/>
      <point x="92" y="388"/>
      <point x="92" y="343" type="qcurve" smooth="yes"/>
      <point x="92" y="262"/>
      <point x="139" y="145"/>
      <point x="206" y="67"/>
      <point x="277" y="25"/>
    </contour>
  </outline>
</glyph>
<glyph name="parenright" format="1">
  <advance width="341"/>
  <unicode hex="0029"/>
  <outline>
    <contour>
      <point x="178" y="646" type="qcurve" smooth="yes"/>
      <point x="190" y="634"/>
      <point x="212" y="606"/>
      <point x="232" y="570"/>
      <point x="253" y="522"/>
      <point x="264" y="489" type="qcurve" smooth="yes"/>
      <point x="281" y="439"/>
      <point x="295" y="349"/>
      <point x="295" y="307" type="qcurve" smooth="yes"/>
      <point x="295" y="239"/>
      <point x="260" y="126"/>
      <point x="204" y="40"/>
      <point x="135" y="-20"/>
      <point x="101" y="-35" type="qcurve" smooth="yes"/>
      <point x="95" y="-38"/>
      <point x="89" y="-38" type="qcurve" smooth="yes"/>
      <point x="72" y="-38"/>
      <point x="64" y="-22" type="qcurve" smooth="yes"/>
      <point x="61" y="-16"/>
      <point x="61" y="-10" type="qcurve" smooth="yes"/>
      <point x="61" y="9"/>
      <point x="78" y="15" type="qcurve"/>
      <point x="98" y="24"/>
      <point x="153" y="69"/>
      <point x="204" y="141"/>
      <point x="240" y="242"/>
      <point x="240" y="307" type="qcurve" smooth="yes"/>
      <point x="240" y="344"/>
      <point x="226" y="425"/>
      <point x="211" y="472" type="qcurve" smooth="yes"/>
      <point x="201" y="502"/>
      <point x="183" y="543"/>
      <point x="166" y="574"/>
      <point x="148" y="596"/>
      <point x="138" y="606" type="qcurve" smooth="yes"/>
      <point x="123" y="621"/>
      <point x="83" y="656"/>
      <point x="41" y="688"/>
      <point x="2" y="709"/>
      <point x="-11" y="711" type="qcurve" smooth="yes"/>
      <point x="-22" y="712"/>
      <point x="-36" y="728"/>
      <point x="-36" y="741" type="qcurve"/>
      <point x="-33" y="766"/>
      <point x="-5" y="766" type="qcurve"/>
      <point x="21" y="763"/>
      <point x="83" y="727"/>
      <point x="138" y="684"/>
      <point x="176" y="648"/>
    </contour>
  </outline>
</glyph>
<glyph name="asterisk" format="1">
  <advance width="462"/>
  <unicode hex="002A"/>
  <outline>
    <contour>
      <point x="274" y="525" type="qcurve"/>
      <point x="341" y="480"/>
      <point x="411" y="416"/>
      <point x="413" y="414" type="qcurve" smooth="yes"/>
      <point x="421" y="406"/>
      <point x="421" y="394" type="qcurve" smooth="yes"/>
      <point x="421" y="384"/>
      <point x="413" y="374" type="qcurve"/>
      <point x="403" y="366"/>
      <point x="393" y="366" type="qcurve" smooth="yes"/>
      <point x="382" y="366"/>
      <point x="373" y="375" type="qcurve" smooth="yes"/>
      <point x="361" y="387"/>
      <point x="344" y="401" type="qcurve" smooth="yes"/>
      <point x="330" y="413"/>
      <point x="288" y="446"/>
      <point x="262" y="465" type="qcurve"/>
      <point x="261" y="390"/>
      <point x="248" y="303"/>
      <point x="247" y="301" type="qcurve" smooth="yes"/>
      <point x="245" y="291"/>
      <point x="228" y="279"/>
      <point x="214" y="280" type="qcurve"/>
      <point x="204" y="282"/>
      <point x="192" y="299"/>
      <point x="193" y="313" type="qcurve"/>
      <point x="196" y="333"/>
      <point x="199" y="359" type="qcurve" smooth="yes"/>
      <point x="201" y="381"/>
      <point x="204" y="442"/>
      <point x="202" y="480" type="qcurve"/>
      <point x="137" y="438"/>
      <point x="69" y="375"/>
      <point x="68" y="375" type="qcurve" smooth="yes"/>
      <point x="60" y="366"/>
      <point x="48" y="366" type="qcurve" smooth="yes"/>
      <point x="37" y="366"/>
      <point x="29" y="374" type="qcurve" smooth="yes"/>
      <point x="20" y="383"/>
      <point x="20" y="394" type="qcurve" smooth="yes"/>
      <point x="20" y="404"/>
      <point x="28" y="414" type="qcurve" smooth="yes"/>
      <point x="30" y="416"/>
      <point x="101" y="480"/>
      <point x="168" y="525" type="qcurve"/>
      <point x="142" y="540"/>
      <point x="95" y="565"/>
      <point x="59" y="584"/>
      <point x="48" y="590" type="qcurve"/>
      <point x="36" y="595" type="line"/>
      <point x="20" y="603"/>
      <point x="20" y="621" type="qcurve" smooth="yes"/>
      <point x="20" y="627"/>
      <point x="23" y="633" type="qcurve" smooth="yes"/>
      <point x="31" y="649"/>
      <point x="48" y="649" type="qcurve" smooth="yes"/>
      <point x="55" y="649"/>
      <point x="61" y="646" type="qcurve" smooth="yes"/>
      <point x="62" y="645"/>
      <point x="87" y="633"/>
      <point x="126" y="612"/>
      <point x="176" y="585"/>
      <point x="203" y="570" type="qcurve"/>
      <point x="201" y="599"/>
      <point x="195" y="651"/>
      <point x="191" y="692"/>
      <point x="187" y="717"/>
      <point x="187" y="719" type="qcurve" smooth="yes"/>
      <point x="187" y="730"/>
      <point x="201" y="745"/>
      <point x="215" y="747" type="qcurve"/>
      <point x="226" y="747"/>
      <point x="241" y="734"/>
      <point x="243" y="723" type="qcurve" smooth="yes"/>
      <point x="243" y="722"/>
      <point x="247" y="698"/>
      <point x="251" y="660"/>
      <point x="256" y="609"/>
      <point x="258" y="581" type="qcurve"/>
      <point x="282" y="594"/>
      <point x="326" y="618"/>
      <point x="359" y="635"/>
      <point x="380" y="645"/>
      <point x="381" y="646" type="qcurve" smooth="yes"/>
      <point x="387" y="649"/>
      <point x="393" y="649" type="qcurve" smooth="yes"/>
      <point x="412" y="649"/>
      <point x="418" y="633" type="qcurve" smooth="yes"/>
      <point x="421" y="627"/>
      <point x="421" y="621" type="qcurve" smooth="yes"/>
      <point x="421" y="603"/>
      <point x="405" y="595" type="qcurve" smooth="yes"/>
      <point x="394" y="590" type="line" smooth="yes"/>
      <point x="382" y="584"/>
      <point x="346" y="565"/>
      <point x="299" y="540"/>
    </contour>
  </outline>
</glyph>
<glyph name="plus" format="1">
  <advance width="489"/>
  <unicode hex="002B"/>
  <outline>
    <contour>
      <point x="456" y="352" type="qcurve" smooth="yes"/>
      <point x="478" y="347"/>
      <point x="478" y="319" type="qcurve"/>
      <point x="473" y="297"/>
      <point x="445" y="297" type="qcurve" smooth="yes"/>
      <point x="444" y="297"/>
      <point x="353" y="312"/>
      <point x="275" y="311" type="qcurve"/>
      <point x="264" y="310" type="line"/>
      <point x="265" y="276"/>
      <point x="271" y="210"/>
      <point x="277" y="158"/>
      <point x="282" y="125"/>
      <point x="282" y="123" type="qcurve" smooth="yes"/>
      <point x="282" y="112"/>
      <point x="268" y="97"/>
      <point x="254" y="95" type="qcurve"/>
      <point x="243" y="95"/>
      <point x="228" y="108"/>
      <point x="226" y="119" type="qcurve" smooth="yes"/>
      <point x="226" y="121"/>
      <point x="221" y="154"/>
      <point x="215" y="207"/>
      <point x="209" y="273"/>
      <point x="208" y="308" type="qcurve"/>
      <point x="176" y="306"/>
      <point x="116" y="301"/>
      <point x="70" y="296"/>
      <point x="40" y="292"/>
      <point x="38" y="292" type="qcurve" smooth="yes"/>
      <point x="15" y="292"/>
      <point x="10" y="320" type="qcurve"/>
      <point x="10" y="331"/>
      <point x="23" y="346"/>
      <point x="34" y="348" type="qcurve" smooth="yes"/>
      <point x="36" y="348"/>
      <point x="66" y="352"/>
      <point x="114" y="357"/>
      <point x="174" y="363"/>
      <point x="207" y="365" type="qcurve"/>
      <point x="207" y="445"/>
      <point x="221" y="539"/>
      <point x="222" y="541" type="qcurve" smooth="yes"/>
      <point x="225" y="563"/>
      <point x="255" y="563" type="qcurve"/>
      <point x="265" y="561"/>
      <point x="277" y="544"/>
      <point x="276" y="530" type="qcurve" smooth="yes"/>
      <point x="276" y="529"/>
      <point x="264" y="441"/>
      <point x="263" y="366" type="qcurve"/>
      <point x="275" y="367" type="line"/>
      <point x="357" y="368"/>
      <point x="454" y="353"/>
    </contour>
  </outline>
</glyph>
<glyph name="comma" format="1">
  <advance width="126"/>
  <unicode hex="002C"/>
  <outline>
    <contour>
      <point x="93" y="121" type="qcurve"/>
      <point x="115" y="118"/>
      <point x="115" y="88" type="qcurve"/>
      <point x="110" y="66"/>
      <point x="101" y="-14"/>
      <point x="97" y="-66" type="qcurve" smooth="yes"/>
      <point x="96" y="-77"/>
      <point x="79" y="-92"/>
      <point x="67" y="-91" type="qcurve" smooth="yes"/>
      <point x="56" y="-91"/>
      <point x="41" y="-74"/>
      <point x="41" y="-61" type="qcurve" smooth="yes"/>
      <point x="42" y="-46"/>
      <point x="46" y="-4"/>
      <point x="51" y="41"/>
      <point x="57" y="83"/>
      <point x="60" y="99" type="qcurve" smooth="yes"/>
      <point x="65" y="122"/>
    </contour>
  </outline>
</glyph>
<glyph name="period" format="1">
  <advance width="130"/>
  <unicode hex="002E"/>
  <outline>
    <contour>
      <point x="80" y="55" type="qcurve" smooth="yes"/>
      <point x="97" y="55"/>
      <point x="120" y="32"/>
      <point x="120" y="-2"/>
      <point x="97" y="-24"/>
      <point x="80" y="-24" type="qcurve" smooth="yes"/>
      <point x="64" y="-24"/>
      <point x="41" y="-2"/>
      <point x="41" y="32"/>
      <point x="64" y="55"/>
    </contour>
  </outline>
</glyph>
<glyph name="slash" format="1">
  <advance width="309"/>
  <unicode hex="002F"/>
  <outline>
    <contour>
      <point x="186" y="397" type="qcurve" smooth="yes"/>
      <point x="180" y="378"/>
      <point x="160" y="308"/>
      <point x="139" y="225"/>
      <point x="117" y="139"/>
      <point x="100" y="68"/>
      <point x="89" y="23"/>
      <point x="89" y="22" type="qcurve" smooth="yes"/>
      <point x="87" y="11"/>
      <point x="65" y="-7"/>
      <point x="51" y="-9" type="qcurve"/>
      <point x="40" y="-9"/>
      <point x="29" y="5"/>
      <point x="31" y="16" type="qcurve" smooth="yes"/>
      <point x="32" y="19"/>
      <point x="43" y="67"/>
      <point x="61" y="138"/>
      <point x="82" y="224"/>
      <point x="104" y="307"/>
      <point x="123" y="377"/>
      <point x="130" y="397" type="qcurve" smooth="yes"/>
      <point x="141" y="428"/>
      <point x="169" y="522"/>
      <point x="195" y="619"/>
      <point x="215" y="707"/>
      <point x="219" y="732" type="qcurve" smooth="yes"/>
      <point x="221" y="743"/>
      <point x="240" y="763"/>
      <point x="252" y="765" type="qcurve" smooth="yes"/>
      <point x="265" y="767"/>
      <point x="280" y="754"/>
      <point x="278" y="743" type="qcurve" smooth="yes"/>
      <point x="274" y="716"/>
      <point x="252" y="622"/>
      <point x="224" y="521"/>
      <point x="196" y="426"/>
    </contour>
  </outline>
</glyph>
<glyph name="zero" format="1">
  <advance width="584"/>
  <unicode hex="0030"/>
  <outline>
    <contour>
      <point x="420" y="124" type="qcurve" smooth="yes"/>
      <point x="453" y="171"/>
      <point x="487" y="285"/>
      <point x="487" y="346" type="qcurve" smooth="yes"/>
      <point x="487" y="366"/>
      <point x="484" y="404"/>
      <point x="480" y="423" type="qcurve" smooth="yes"/>
      <point x="466" y="493"/>
      <point x="415" y="598"/>
      <point x="359" y="669"/>
      <point x="309" y="706"/>
      <point x="297" y="708" type="qcurve"/>
      <point x="293" y="697"/>
      <point x="284" y="692" type="qcurve" smooth="yes"/>
      <point x="277" y="688"/>
      <point x="270" y="688" type="qcurve" smooth="yes"/>
      <point x="264" y="688"/>
      <point x="252" y="692"/>
      <point x="244" y="695" type="qcurve"/>
      <point x="240" y="693"/>
      <point x="232" y="693" type="qcurve" smooth="yes"/>
      <point x="218" y="693"/>
      <point x="211" y="703" type="qcurve"/>
      <point x="194" y="692"/>
      <point x="179" y="670" type="qcurve" smooth="yes"/>
      <point x="160" y="644"/>
      <point x="130" y="569"/>
      <point x="109" y="482"/>
      <point x="97" y="390"/>
      <point x="97" y="346" type="qcurve" smooth="yes"/>
      <point x="97" y="321"/>
      <point x="100" y="275"/>
      <point x="105" y="254" type="qcurve"/>
      <point x="115" y="198"/>
      <point x="163" y="122"/>
      <point x="222" y="75"/>
      <point x="287" y="55"/>
      <point x="315" y="55" type="qcurve" smooth="yes"/>
      <point x="326,5" y="55" type="line"/>
      <point x="338" y="57" type="line" smooth="yes"/>
      <point x="352" y="59"/>
      <point x="396" y="90"/>
    </contour>
    <contour>
      <point x="292" y="765" type="line"/>
      <point x="317" y="765"/>
      <point x="387" y="721"/>
      <point x="458" y="636"/>
      <point x="520" y="513"/>
      <point x="535" y="434" type="qcurve" smooth="yes"/>
      <point x="543" y="388"/>
      <point x="543" y="346" type="qcurve" smooth="yes"/>
      <point x="543" y="277"/>
      <point x="504" y="146"/>
      <point x="466" y="92" type="qcurve" smooth="yes"/>
      <point x="439" y="54"/>
      <point x="376" y="6"/>
      <point x="346" y="1" type="qcurve" smooth="yes"/>
      <point x="338" y="-1"/>
      <point x="329,5" y="-1" type="qcurve" smooth="yes"/>
      <point x="312" y="-1" type="line" smooth="yes"/>
      <point x="271" y="-1"/>
      <point x="187" y="29"/>
      <point x="115" y="90"/>
      <point x="62" y="181"/>
      <point x="50" y="243" type="qcurve" smooth="yes"/>
      <point x="41" y="289"/>
      <point x="41" y="345" type="qcurve" smooth="yes"/>
      <point x="41" y="393"/>
      <point x="54" y="495"/>
      <point x="78" y="590"/>
      <point x="112" y="672"/>
      <point x="133" y="702" type="qcurve" smooth="yes"/>
      <point x="170" y="756"/>
      <point x="218" y="764" type="qcurve" smooth="yes"/>
      <point x="221" y="765"/>
      <point x="224,5" y="765" type="qcurve" smooth="yes"/>
      <point x="231" y="765" type="line" smooth="yes"/>
      <point x="248" y="765"/>
      <point x="260" y="759" type="qcurve"/>
      <point x="266" y="761"/>
      <point x="278" y="763"/>
      <point x="285" y="764" type="qcurve" smooth="yes"/>
    </contour>
  </outline>
</glyph>
<glyph name="one" format="1">
  <advance width="329"/>
  <unicode hex="0031"/>
  <outline>
    <contour>
      <point x="215" y="389" type="qcurve" smooth="yes"/>
      <point x="215" y="370"/>
      <point x="220" y="300"/>
      <point x="227" y="217"/>
      <point x="235" y="130"/>
      <point x="243" y="59"/>
      <point x="248" y="12"/>
      <point x="248" y="11" type="qcurve" smooth="yes"/>
      <point x="248" y="0"/>
      <point x="233" y="-15"/>
      <point x="220" y="-17" type="qcurve"/>
      <point x="209" y="-17"/>
      <point x="193" y="-3"/>
      <point x="192" y="8" type="qcurve" smooth="yes"/>
      <point x="191" y="11"/>
      <point x="186" y="59"/>
      <point x="179" y="131"/>
      <point x="171" y="217"/>
      <point x="164" y="299"/>
      <point x="159" y="369"/>
      <point x="159" y="389" type="qcurve" smooth="yes"/>
      <point x="159" y="416"/>
      <point x="155" y="496"/>
      <point x="149" y="582"/>
      <point x="140" y="666"/>
      <point x="136" y="696" type="qcurve"/>
      <point x="116" y="682"/>
      <point x="79" y="656"/>
      <point x="52" y="636"/>
      <point x="44" y="630" type="qcurve" smooth="yes"/>
      <point x="35" y="623" type="line"/>
      <point x="28" y="616"/>
      <point x="18" y="616" type="qcurve" smooth="yes"/>
      <point x="5" y="616"/>
      <point x="-3" y="626" type="qcurve"/>
      <point x="-10" y="633"/>
      <point x="-10" y="644" type="qcurve" smooth="yes"/>
      <point x="-10" y="656"/>
      <point x="-2" y="664" type="qcurve" smooth="yes"/>
      <point x="-1" y="665"/>
      <point x="23" y="684"/>
      <point x="60" y="711"/>
      <point x="106" y="744"/>
      <point x="130" y="759" type="qcurve" smooth="yes"/>
      <point x="137" y="763"/>
      <point x="153" y="763"/>
      <point x="161" y="758" type="qcurve"/>
      <point x="170" y="757"/>
      <point x="184" y="745"/>
      <point x="186" y="736" type="qcurve" smooth="yes"/>
      <point x="192" y="708"/>
      <point x="202" y="615"/>
      <point x="210" y="513"/>
      <point x="215" y="418"/>
    </contour>
  </outline>
</glyph>
<glyph name="two" format="1">
  <advance width="571"/>
  <unicode hex="0032"/>
  <outline>
    <contour>
      <point x="528" y="34" type="qcurve" smooth="yes"/>
      <point x="550" y="29"/>
      <point x="550" y="0" type="qcurve"/>
      <point x="548" y="-10"/>
      <point x="530" y="-22"/>
      <point x="516" y="-21" type="qcurve"/>
      <point x="496" y="-18"/>
      <point x="470" y="-14" type="qcurve" smooth="yes"/>
      <point x="448" y="-11"/>
      <point x="385" y="-6"/>
      <point x="347" y="-5" type="qcurve"/>
      <point x="333" y="-5" type="line" smooth="yes"/>
      <point x="295" y="-5"/>
      <point x="217" y="-10"/>
      <point x="154" y="-16"/>
      <point x="112" y="-21"/>
      <point x="110" y="-21" type="qcurve" smooth="yes"/>
      <point x="107" y="-21"/>
      <point x="100" y="-20"/>
      <point x="90" y="-20" type="qcurve" smooth="yes"/>
      <point x="78" y="-20"/>
      <point x="62" y="-3"/>
      <point x="62" y="8" type="qcurve" smooth="yes"/>
      <point x="63" y="92"/>
      <point x="108" y="208"/>
      <point x="156" y="256" type="qcurve" smooth="yes"/>
      <point x="185" y="285"/>
      <point x="255" y="332"/>
      <point x="290" y="355" type="qcurve"/>
      <point x="321" y="374"/>
      <point x="379" y="413"/>
      <point x="423" y="455"/>
      <point x="450" y="502"/>
      <point x="450" y="529" type="qcurve" smooth="yes"/>
      <point x="450" y="559"/>
      <point x="444" y="612"/>
      <point x="422" y="658"/>
      <point x="378" y="694"/>
      <point x="339" y="708" type="qcurve" smooth="yes"/>
      <point x="317" y="716"/>
      <point x="284" y="723"/>
      <point x="269" y="723" type="qcurve" smooth="yes"/>
      <point x="248" y="723"/>
      <point x="202" y="711"/>
      <point x="167" y="700" type="qcurve" smooth="yes"/>
      <point x="142" y="692"/>
      <point x="108" y="659"/>
      <point x="97" y="642" type="qcurve" smooth="yes"/>
      <point x="84" y="622"/>
      <point x="75" y="599" type="qcurve" smooth="yes"/>
      <point x="68" y="579"/>
      <point x="40" y="580" type="qcurve"/>
      <point x="31" y="583"/>
      <point x="20" y="600"/>
      <point x="22" y="615" type="qcurve" smooth="yes"/>
      <point x="22" y="617"/>
      <point x="36" y="653"/>
      <point x="67" y="698"/>
      <point x="117" y="743"/>
      <point x="153" y="754" type="qcurve" smooth="yes"/>
      <point x="188" y="765"/>
      <point x="242" y="778"/>
      <point x="269" y="778" type="qcurve" smooth="yes"/>
      <point x="288" y="778"/>
      <point x="331" y="770"/>
      <point x="358" y="761" type="qcurve" smooth="yes"/>
      <point x="413" y="742"/>
      <point x="474" y="683"/>
      <point x="501" y="619"/>
      <point x="506" y="554"/>
      <point x="506" y="529" type="qcurve" smooth="yes"/>
      <point x="506" y="490"/>
      <point x="474" y="428"/>
      <point x="421" y="375"/>
      <point x="354" y="330"/>
      <point x="320" y="308" type="qcurve" smooth="yes"/>
      <point x="254" y="264" type="line"/>
      <point x="195" y="216" type="line"/>
      <point x="159" y="181"/>
      <point x="123" y="97"/>
      <point x="119" y="37" type="qcurve"/>
      <point x="132" y="38"/>
      <point x="178" y="43"/>
      <point x="236" y="48"/>
      <point x="301" y="51"/>
      <point x="334" y="51" type="qcurve" smooth="yes"/>
      <point x="348" y="51" type="line"/>
      <point x="430" y="49"/>
      <point x="526" y="34"/>
    </contour>
  </outline>
</glyph>
<glyph name="three" format="1">
  <advance width="577"/>
  <unicode hex="0033"/>
  <outline>
    <contour>
      <point x="304" y="495" type="qcurve"/>
      <point x="336" y="490"/>
      <point x="389" y="469"/>
      <point x="433" y="442"/>
      <point x="468" y="412"/>
      <point x="481" y="397" type="qcurve" smooth="yes"/>
      <point x="521" y="353"/>
      <point x="556" y="259"/>
      <point x="556" y="227" type="qcurve" smooth="yes"/>
      <point x="556" y="215" type="line"/>
      <point x="554" y="200" type="line" smooth="yes"/>
      <point x="551" y="174"/>
      <point x="541" y="115"/>
      <point x="507" y="59"/>
      <point x="442" y="10"/>
      <point x="385" y="-6" type="qcurve" smooth="yes"/>
      <point x="356" y="-14"/>
      <point x="309" y="-21"/>
      <point x="289" y="-21" type="qcurve" smooth="yes"/>
      <point x="258" y="-21"/>
      <point x="197" y="-7"/>
      <point x="155" y="4" type="qcurve" smooth="yes"/>
      <point x="116" y="14"/>
      <point x="61" y="58"/>
      <point x="27" y="104"/>
      <point x="11" y="143"/>
      <point x="10" y="148" type="qcurve"/>
      <point x="10" y="157"/>
      <point x="22" y="171"/>
      <point x="38" y="176" type="qcurve"/>
      <point x="47" y="176"/>
      <point x="62" y="166"/>
      <point x="65" y="157" type="qcurve" smooth="yes"/>
      <point x="74" y="134"/>
      <point x="89" y="115" type="qcurve" smooth="yes"/>
      <point x="102" y="98"/>
      <point x="143" y="65"/>
      <point x="172" y="57" type="qcurve" smooth="yes"/>
      <point x="211" y="46"/>
      <point x="263" y="35"/>
      <point x="289" y="35" type="qcurve" smooth="yes"/>
      <point x="322" y="35"/>
      <point x="370" y="48" type="qcurve" smooth="yes"/>
      <point x="413" y="60"/>
      <point x="462" y="94"/>
      <point x="487" y="135"/>
      <point x="495" y="182"/>
      <point x="498" y="206" type="qcurve" smooth="yes"/>
      <point x="500" y="227" type="line"/>
      <point x="500" y="249"/>
      <point x="472" y="323"/>
      <point x="439" y="359" type="qcurve" smooth="yes"/>
      <point x="426" y="374"/>
      <point x="391" y="404"/>
      <point x="344" y="428"/>
      <point x="286" y="443"/>
      <point x="250" y="443" type="qcurve" smooth="yes"/>
      <point x="248" y="443"/>
      <point x="242" y="445"/>
      <point x="234" y="449" type="qcurve"/>
      <point x="226" y="456" type="line" smooth="yes"/>
      <point x="226" y="457"/>
      <point x="225,5" y="458,5" type="qcurve" smooth="yes"/>
      <point x="223" y="466" type="line" smooth="yes"/>
      <point x="222" y="467"/>
      <point x="222" y="470"/>
      <point x="223" y="477" type="qcurve" smooth="yes"/>
      <point x="223" y="478"/>
      <point x="224" y="481"/>
      <point x="228" y="488" type="qcurve" smooth="yes"/>
      <point x="242" y="507"/>
      <point x="279" y="555"/>
      <point x="300" y="581" type="qcurve" smooth="yes"/>
      <point x="324" y="610"/>
      <point x="372" y="671"/>
      <point x="390" y="696" type="qcurve"/>
      <point x="369" y="698"/>
      <point x="314" y="701"/>
      <point x="281" y="701" type="qcurve" smooth="yes"/>
      <point x="242" y="701"/>
      <point x="160" y="695"/>
      <point x="91" y="689"/>
      <point x="46" y="683"/>
      <point x="44" y="683" type="qcurve" smooth="yes"/>
      <point x="33" y="683"/>
      <point x="18" y="697"/>
      <point x="16" y="711" type="qcurve"/>
      <point x="16" y="722"/>
      <point x="29" y="736"/>
      <point x="40" y="738" type="qcurve" smooth="yes"/>
      <point x="42" y="738"/>
      <point x="87" y="744"/>
      <point x="156" y="751"/>
      <point x="240" y="757"/>
      <point x="281" y="757" type="qcurve" smooth="yes"/>
      <point x="330" y="757"/>
      <point x="405" y="751"/>
      <point x="428" y="748" type="qcurve"/>
      <point x="434" y="753"/>
      <point x="444" y="753" type="qcurve" smooth="yes"/>
      <point x="450" y="753"/>
      <point x="458" y="750" type="qcurve"/>
      <point x="460" y="748"/>
      <point x="465" y="744"/>
      <point x="467" y="741" type="qcurve"/>
      <point x="484" y="734"/>
      <point x="484" y="710" type="qcurve"/>
      <point x="479" y="688"/>
      <point x="453" y="688" type="qcurve"/>
      <point x="435" y="661"/>
      <point x="376" y="585"/>
      <point x="344" y="546" type="qcurve" smooth="yes"/>
      <point x="333" y="532"/>
      <point x="313" y="507"/>
    </contour>
  </outline>
</glyph>
<glyph name="four" format="1">
  <advance width="550"/>
  <unicode hex="0034"/>
  <outline>
    <contour>
      <point x="502" y="333" type="qcurve" smooth="yes"/>
      <point x="524" y="328"/>
      <point x="524" y="300" type="qcurve"/>
      <point x="519" y="278"/>
      <point x="491" y="278" type="qcurve" smooth="yes"/>
      <point x="490" y="278"/>
      <point x="472" y="282"/>
      <point x="455" y="284" type="qcurve"/>
      <point x="458" y="241"/>
      <point x="467" y="146"/>
      <point x="475" y="67"/>
      <point x="481" y="13"/>
      <point x="481" y="11" type="qcurve" smooth="yes"/>
      <point x="481" y="0"/>
      <point x="467" y="-15"/>
      <point x="453" y="-17" type="qcurve"/>
      <point x="442" y="-17"/>
      <point x="427" y="-3"/>
      <point x="426" y="8" type="qcurve" smooth="yes"/>
      <point x="426" y="11"/>
      <point x="420" y="68"/>
      <point x="411" y="150"/>
      <point x="402" y="246"/>
      <point x="398" y="289" type="qcurve"/>
      <point x="381" y="290"/>
      <point x="343" y="292"/>
      <point x="321" y="292" type="qcurve" smooth="yes"/>
      <point x="282" y="292"/>
      <point x="200" y="286"/>
      <point x="131" y="279"/>
      <point x="85" y="273"/>
      <point x="82" y="273" type="qcurve" smooth="yes"/>
      <point x="70" y="273"/>
      <point x="54" y="289"/>
      <point x="54" y="301" type="qcurve" smooth="yes"/>
      <point x="54" y="332"/>
      <point x="49" y="426"/>
      <point x="41" y="525"/>
      <point x="31" y="615"/>
      <point x="26" y="642" type="qcurve"/>
      <point x="26" y="664"/>
      <point x="54" y="670" type="qcurve"/>
      <point x="64" y="670"/>
      <point x="79" y="657"/>
      <point x="81" y="647" type="qcurve" smooth="yes"/>
      <point x="86" y="623"/>
      <point x="95" y="543"/>
      <point x="102" y="454"/>
      <point x="108" y="366"/>
      <point x="109" y="332" type="qcurve"/>
      <point x="126" y="334"/>
      <point x="174" y="340"/>
      <point x="231" y="345"/>
      <point x="292" y="348"/>
      <point x="321" y="348" type="qcurve" smooth="yes"/>
      <point x="362" y="348"/>
      <point x="394" y="345" type="qcurve"/>
      <point x="393" y="359"/>
      <point x="393" y="370" type="qcurve" smooth="yes"/>
      <point x="393" y="389" type="line" smooth="yes"/>
      <point x="393" y="420"/>
      <point x="388" y="514"/>
      <point x="380" y="613"/>
      <point x="370" y="703"/>
      <point x="365" y="730" type="qcurve"/>
      <point x="365" y="740"/>
      <point x="379" y="756"/>
      <point x="393" y="758" type="qcurve"/>
      <point x="403" y="758"/>
      <point x="418" y="746"/>
      <point x="420" y="736" type="qcurve" smooth="yes"/>
      <point x="426" y="708"/>
      <point x="436" y="615"/>
      <point x="444" y="513"/>
      <point x="449" y="418"/>
      <point x="449" y="389" type="qcurve" smooth="yes"/>
      <point x="449" y="381"/>
      <point x="450" y="356"/>
      <point x="451" y="341" type="qcurve"/>
      <point x="474" y="338"/>
      <point x="500" y="333"/>
    </contour>
  </outline>
</glyph>
<glyph name="five" format="1">
  <advance width="604"/>
  <unicode hex="0035"/>
  <outline>
    <contour>
      <point x="398" y="482" type="qcurve" smooth="yes"/>
      <point x="441" y="470"/>
      <point x="506" y="417"/>
      <point x="550" y="349"/>
      <point x="573" y="275"/>
      <point x="573" y="243" type="qcurve" smooth="yes"/>
      <point x="573" y="234" type="line"/>
      <point x="572" y="226" type="line"/>
      <point x="571" y="211" type="line"/>
      <point x="568" y="185"/>
      <point x="558" y="126"/>
      <point x="525" y="70"/>
      <point x="461" y="21"/>
      <point x="406" y="5" type="qcurve" smooth="yes"/>
      <point x="378" y="-3"/>
      <point x="333" y="-10"/>
      <point x="313" y="-10" type="qcurve" smooth="yes"/>
      <point x="283" y="-10"/>
      <point x="225" y="4"/>
      <point x="183" y="15" type="qcurve" smooth="yes"/>
      <point x="145" y="25"/>
      <point x="92" y="69"/>
      <point x="59" y="116"/>
      <point x="43" y="154"/>
      <point x="42" y="159" type="qcurve"/>
      <point x="42" y="168"/>
      <point x="55" y="183"/>
      <point x="70" y="187" type="qcurve"/>
      <point x="79" y="187"/>
      <point x="94" y="177"/>
      <point x="97" y="168" type="qcurve"/>
      <point x="103" y="155" type="line" smooth="yes"/>
      <point x="108" y="142"/>
      <point x="133" y="109"/>
      <point x="172" y="76"/>
      <point x="200" y="68" type="qcurve" smooth="yes"/>
      <point x="238" y="57"/>
      <point x="289" y="46"/>
      <point x="313" y="46" type="qcurve" smooth="yes"/>
      <point x="345" y="46"/>
      <point x="391" y="59" type="qcurve" smooth="yes"/>
      <point x="433" y="71"/>
      <point x="480" y="105"/>
      <point x="504" y="146"/>
      <point x="512" y="193"/>
      <point x="515" y="217" type="qcurve" smooth="yes"/>
      <point x="517" y="232" type="line"/>
      <point x="517" y="242" type="line" smooth="yes"/>
      <point x="517" y="263"/>
      <point x="501" y="320"/>
      <point x="468" y="374"/>
      <point x="417" y="419"/>
      <point x="383" y="428" type="qcurve" smooth="yes"/>
      <point x="359" y="435"/>
      <point x="308" y="441"/>
      <point x="282" y="441" type="qcurve" smooth="yes"/>
      <point x="229" y="441"/>
      <point x="136" y="422"/>
      <point x="109" y="411" type="qcurve" smooth="yes"/>
      <point x="106" y="409"/>
      <point x="99" y="409" type="qcurve" smooth="yes"/>
      <point x="94" y="409" type="line"/>
      <point x="83" y="408" type="line" smooth="yes"/>
      <point x="72" y="408"/>
      <point x="56" y="424"/>
      <point x="55" y="435" type="qcurve" smooth="yes"/>
      <point x="53" y="465"/>
      <point x="48" y="533"/>
      <point x="42" y="599"/>
      <point x="35" y="658"/>
      <point x="31" y="679" type="qcurve"/>
      <point x="31" y="686"/>
      <point x="36" y="699"/>
      <point x="41" y="707" type="qcurve"/>
      <point x="41" y="717"/>
      <point x="54" y="732"/>
      <point x="65" y="734" type="qcurve" smooth="yes"/>
      <point x="67" y="734"/>
      <point x="110" y="740"/>
      <point x="176" y="747"/>
      <point x="257" y="753"/>
      <point x="296" y="753" type="qcurve" smooth="yes"/>
      <point x="374" y="753"/>
      <point x="467" y="739"/>
      <point x="469" y="739" type="qcurve" smooth="yes"/>
      <point x="479" y="737"/>
      <point x="491" y="719"/>
      <point x="490" y="705" type="qcurve"/>
      <point x="485" y="683"/>
      <point x="457" y="684" type="qcurve" smooth="yes"/>
      <point x="456" y="684"/>
      <point x="369" y="697"/>
      <point x="296" y="697" type="qcurve" smooth="yes"/>
      <point x="266" y="697"/>
      <point x="203" y="693"/>
      <point x="146" y="688"/>
      <point x="100" y="683"/>
      <point x="87" y="681" type="qcurve"/>
      <point x="90" y="663"/>
      <point x="97" y="615"/>
      <point x="102" y="559"/>
      <point x="107" y="499"/>
      <point x="109" y="470" type="qcurve"/>
      <point x="141" y="481"/>
      <point x="231" y="497"/>
      <point x="282" y="497" type="qcurve" smooth="yes"/>
      <point x="311" y="497"/>
      <point x="369" y="490"/>
    </contour>
  </outline>
</glyph>
<glyph name="six" format="1">
  <advance width="652"/>
  <unicode hex="0036"/>
  <outline>
    <contour>
      <point x="454" y="70" type="qcurve" smooth="yes"/>
      <point x="507" y="98"/>
      <point x="567" y="187"/>
      <point x="567" y="244" type="qcurve" smooth="yes"/>
      <point x="567" y="256"/>
      <point x="564" y="280"/>
      <point x="562" y="292" type="qcurve" smooth="yes"/>
      <point x="549" y="346"/>
      <point x="481" y="424"/>
      <point x="426" y="438" type="qcurve" smooth="yes"/>
      <point x="392" y="446"/>
      <point x="356" y="446" type="qcurve" smooth="yes"/>
      <point x="317" y="446"/>
      <point x="236" y="427"/>
      <point x="170" y="386"/>
      <point x="126" y="325"/>
      <point x="123" y="283" type="qcurve" smooth="yes"/>
      <point x="122" y="272"/>
      <point x="108" y="259"/>
      <point x="100" y="257" type="qcurve"/>
      <point x="109" y="214"/>
      <point x="145" y="138"/>
      <point x="175" y="111" type="qcurve" smooth="yes"/>
      <point x="210" y="79"/>
      <point x="300" y="43"/>
      <point x="348" y="43" type="qcurve" smooth="yes"/>
      <point x="375" y="43"/>
      <point x="428" y="56"/>
    </contour>
    <contour>
      <point x="474" y="480" type="qcurve" smooth="yes"/>
      <point x="511" y="465"/>
      <point x="567" y="417"/>
      <point x="603" y="358"/>
      <point x="621" y="290"/>
      <point x="621" y="256" type="qcurve" smooth="yes"/>
      <point x="621" y="218"/>
      <point x="601" y="145"/>
      <point x="560" y="80"/>
      <point x="501" y="28"/>
      <point x="462" y="12" type="qcurve" smooth="yes"/>
      <point x="433" y="0"/>
      <point x="372" y="-11"/>
      <point x="342" y="-11" type="qcurve" smooth="yes"/>
      <point x="279" y="-11"/>
      <point x="164" y="36"/>
      <point x="122" y="85" type="qcurve" smooth="yes"/>
      <point x="98" y="113"/>
      <point x="63" y="181"/>
      <point x="41" y="256"/>
      <point x="31" y="335"/>
      <point x="31" y="374" type="qcurve" smooth="yes"/>
      <point x="31" y="428"/>
      <point x="40" y="476" type="qcurve" smooth="yes"/>
      <point x="48" y="523"/>
      <point x="80" y="605"/>
      <point x="131" y="670"/>
      <point x="203" y="716"/>
      <point x="251" y="728" type="qcurve" smooth="yes"/>
      <point x="273" y="733"/>
      <point x="317" y="738"/>
      <point x="339" y="738" type="qcurve" smooth="yes"/>
      <point x="399" y="738"/>
      <point x="506" y="691"/>
      <point x="541" y="636" type="qcurve" smooth="yes"/>
      <point x="546" y="630"/>
      <point x="546" y="621" type="qcurve" smooth="yes"/>
      <point x="546" y="610"/>
      <point x="527" y="595"/>
      <point x="516" y="595" type="qcurve" smooth="yes"/>
      <point x="502" y="595"/>
      <point x="493" y="608" type="qcurve" smooth="yes"/>
      <point x="467" y="649"/>
      <point x="384" y="684"/>
      <point x="338" y="684" type="qcurve" smooth="yes"/>
      <point x="285" y="684"/>
      <point x="237" y="664" type="qcurve" smooth="yes"/>
      <point x="199" y="649"/>
      <point x="146" y="602"/>
      <point x="111" y="541"/>
      <point x="93" y="469"/>
      <point x="90" y="430" type="qcurve" smooth="yes"/>
      <point x="89" y="418"/>
      <point x="88" y="392"/>
      <point x="88" y="378" type="qcurve" smooth="yes"/>
      <point x="88" y="362" type="line"/>
      <point x="106" y="396"/>
      <point x="163" y="449"/>
      <point x="234" y="484"/>
      <point x="314" y="502"/>
      <point x="354" y="502" type="qcurve" smooth="yes"/>
      <point x="386" y="502"/>
      <point x="446" y="491"/>
    </contour>
  </outline>
</glyph>
<glyph name="seven" format="1">
  <advance width="499"/>
  <unicode hex="0037"/>
  <outline>
    <contour>
      <point x="420" y="739" type="qcurve" smooth="yes"/>
      <point x="442" y="734"/>
      <point x="442" y="702" type="qcurve"/>
      <point x="437" y="673"/>
      <point x="413" y="582"/>
      <point x="383" y="485"/>
      <point x="353" y="396"/>
      <point x="343" y="369" type="qcurve" smooth="yes"/>
      <point x="336" y="351"/>
      <point x="315" y="284"/>
      <point x="291" y="204"/>
      <point x="268" y="121"/>
      <point x="248" y="53"/>
      <point x="236" y="9"/>
      <point x="236" y="8" type="qcurve" smooth="yes"/>
      <point x="234" y="-1"/>
      <point x="217" y="-13"/>
      <point x="202" y="-12" type="qcurve"/>
      <point x="193" y="-9"/>
      <point x="181" y="8"/>
      <point x="182" y="23" type="qcurve" smooth="yes"/>
      <point x="183" y="26"/>
      <point x="196" y="72"/>
      <point x="215" y="141"/>
      <point x="239" y="224"/>
      <point x="262" y="303"/>
      <point x="283" y="370"/>
      <point x="291" y="389" type="qcurve" smooth="yes"/>
      <point x="301" y="415"/>
      <point x="327" y="493"/>
      <point x="352" y="577"/>
      <point x="375" y="659"/>
      <point x="382" y="688" type="qcurve"/>
      <point x="361" y="691"/>
      <point x="288" y="697"/>
      <point x="240" y="697" type="qcurve" smooth="yes"/>
      <point x="201" y="697"/>
      <point x="119" y="691"/>
      <point x="50" y="685"/>
      <point x="4" y="679"/>
      <point x="2" y="679" type="qcurve" smooth="yes"/>
      <point x="-8" y="679"/>
      <point x="-24" y="693"/>
      <point x="-26" y="707" type="qcurve"/>
      <point x="-26" y="717"/>
      <point x="-13" y="732"/>
      <point x="-2" y="734" type="qcurve" smooth="yes"/>
      <point x="0" y="734"/>
      <point x="46" y="740"/>
      <point x="115" y="747"/>
      <point x="199" y="753"/>
      <point x="240" y="753" type="qcurve" smooth="yes"/>
      <point x="321" y="753"/>
      <point x="418" y="739"/>
    </contour>
  </outline>
</glyph>
<glyph name="eight" format="1">
  <advance width="642"/>
  <unicode hex="0038"/>
  <outline>
    <contour>
      <point x="550" y="220" type="line" smooth="yes"/>
      <point x="550" y="236"/>
      <point x="531" y="284"/>
      <point x="493" y="329"/>
      <point x="437" y="365"/>
      <point x="400" y="371" type="qcurve" smooth="yes"/>
      <point x="385" y="373"/>
      <point x="354" y="375"/>
      <point x="339" y="375" type="qcurve" smooth="yes"/>
      <point x="273" y="375"/>
      <point x="162" y="331"/>
      <point x="130" y="292" type="qcurve" smooth="yes"/>
      <point x="102" y="258"/>
      <point x="102" y="225" type="qcurve" smooth="yes"/>
      <point x="102" y="217"/>
      <point x="103" y="213" type="qcurve" smooth="yes"/>
      <point x="108" y="188"/>
      <point x="129" y="138"/>
      <point x="164" y="95"/>
      <point x="211" y="64"/>
      <point x="243" y="59" type="qcurve" smooth="yes"/>
      <point x="276" y="54"/>
      <point x="322" y="47"/>
      <point x="343" y="47" type="qcurve" smooth="yes"/>
      <point x="365" y="47"/>
      <point x="409" y="56"/>
      <point x="439" y="65" type="qcurve" smooth="yes"/>
      <point x="480" y="78"/>
      <point x="524" y="110"/>
      <point x="545" y="145"/>
      <point x="550" y="184"/>
      <point x="550" y="205" type="qcurve" smooth="yes"/>
    </contour>
    <contour>
      <point x="122" y="566" type="qcurve"/>
      <point x="126" y="546"/>
      <point x="143" y="505"/>
      <point x="170" y="470"/>
      <point x="208" y="445"/>
      <point x="234" y="441" type="qcurve" smooth="yes"/>
      <point x="261" y="436"/>
      <point x="299" y="432"/>
      <point x="316" y="432" type="qcurve" smooth="yes"/>
      <point x="334" y="432"/>
      <point x="370" y="438"/>
      <point x="394" y="446" type="qcurve" smooth="yes"/>
      <point x="427" y="457"/>
      <point x="463" y="482"/>
      <point x="480" y="510"/>
      <point x="483" y="541"/>
      <point x="484" y="558" type="qcurve"/>
      <point x="484" y="570" type="line" smooth="yes"/>
      <point x="484" y="583"/>
      <point x="469" y="621"/>
      <point x="438" y="657"/>
      <point x="393" y="686"/>
      <point x="363" y="691" type="qcurve" smooth="yes"/>
      <point x="350" y="693"/>
      <point x="325" y="695"/>
      <point x="313" y="695" type="qcurve" smooth="yes"/>
      <point x="259" y="695"/>
      <point x="169" y="659"/>
      <point x="143" y="627" type="qcurve"/>
      <point x="121" y="602"/>
    </contour>
    <contour>
      <point x="458" y="413" type="qcurve"/>
      <point x="493" y="399"/>
      <point x="548" y="353"/>
      <point x="586" y="299"/>
      <point x="606" y="241"/>
      <point x="606" y="216" type="qcurve" smooth="yes"/>
      <point x="606" y="204" type="line"/>
      <point x="605" y="181"/>
      <point x="600" y="129"/>
      <point x="571" y="77"/>
      <point x="511" y="30"/>
      <point x="456" y="12" type="qcurve" smooth="yes"/>
      <point x="422" y="1"/>
      <point x="369" y="-9"/>
      <point x="343" y="-9" type="qcurve" smooth="yes"/>
      <point x="319" y="-9"/>
      <point x="267" y="-1"/>
      <point x="232" y="4" type="qcurve" smooth="yes"/>
      <point x="190" y="11"/>
      <point x="127" y="51"/>
      <point x="82" y="106"/>
      <point x="54" y="171"/>
      <point x="48" y="203" type="qcurve" smooth="yes"/>
      <point x="47" y="208"/>
      <point x="46" y="220"/>
      <point x="46" y="226" type="qcurve" smooth="yes"/>
      <point x="46" y="278"/>
      <point x="87" y="327" type="qcurve"/>
      <point x="123" y="372"/>
      <point x="181" y="398" type="qcurve"/>
      <point x="156" y="409"/>
      <point x="117" y="444"/>
      <point x="89" y="486"/>
      <point x="71" y="532"/>
      <point x="67" y="555" type="qcurve"/>
      <point x="65" y="560"/>
      <point x="65" y="565" type="qcurve" smooth="yes"/>
      <point x="65" y="575" type="line" smooth="yes"/>
      <point x="65" y="620"/>
      <point x="99" y="662" type="qcurve" smooth="yes"/>
      <point x="134" y="704"/>
      <point x="248" y="751"/>
      <point x="315" y="751" type="qcurve" smooth="yes"/>
      <point x="329" y="751"/>
      <point x="357" y="748"/>
      <point x="372" y="746" type="qcurve" smooth="yes"/>
      <point x="412" y="740"/>
      <point x="474" y="701"/>
      <point x="517" y="649"/>
      <point x="540" y="592"/>
      <point x="540" y="567" type="qcurve" smooth="yes"/>
      <point x="540" y="557" type="line" smooth="yes"/>
      <point x="540" y="541"/>
      <point x="536" y="504"/>
      <point x="520" y="466"/>
      <point x="488" y="429"/>
    </contour>
  </outline>
</glyph>
<glyph name="nine" format="1">
  <advance width="659"/>
  <unicode hex="0039"/>
  <outline>
    <contour>
      <point x="525" y="442" type="qcurve" smooth="yes"/>
      <point x="526" y="453"/>
      <point x="540" y="466"/>
      <point x="548" y="468" type="qcurve"/>
      <point x="539" y="510"/>
      <point x="503" y="584"/>
      <point x="473" y="611" type="qcurve" smooth="yes"/>
      <point x="436" y="643"/>
      <point x="346" y="679"/>
      <point x="298" y="679" type="qcurve" smooth="yes"/>
      <point x="251" y="679"/>
      <point x="204" y="660" type="qcurve" smooth="yes"/>
      <point x="145" y="635"/>
      <point x="74" y="541"/>
      <point x="74" y="481" type="qcurve" smooth="yes"/>
      <point x="74" y="470"/>
      <point x="77" y="447"/>
      <point x="79" y="435" type="qcurve" smooth="yes"/>
      <point x="92" y="381"/>
      <point x="162" y="305"/>
      <point x="217" y="291" type="qcurve" smooth="yes"/>
      <point x="234" y="286"/>
      <point x="270" y="283"/>
      <point x="290" y="283" type="qcurve" smooth="yes"/>
      <point x="329" y="283"/>
      <point x="410" y="301"/>
      <point x="477" y="340"/>
      <point x="522" y="400"/>
    </contour>
    <contour>
      <point x="189" y="714" type="qcurve" smooth="yes"/>
      <point x="216" y="724"/>
      <point x="273" y="733"/>
      <point x="302" y="733" type="qcurve" smooth="yes"/>
      <point x="365" y="733"/>
      <point x="482" y="686"/>
      <point x="526" y="637" type="qcurve" smooth="yes"/>
      <point x="550" y="610"/>
      <point x="585" y="543"/>
      <point x="608" y="469"/>
      <point x="618" y="391"/>
      <point x="618" y="352" type="qcurve" smooth="yes"/>
      <point x="618" y="320"/>
      <point x="612" y="260"/>
      <point x="605" y="232" type="qcurve" smooth="yes"/>
      <point x="585" y="141"/>
      <point x="479" y="21"/>
      <point x="385" y="2" type="qcurve" smooth="yes"/>
      <point x="365" y="-2"/>
      <point x="327" y="-6"/>
      <point x="307" y="-6" type="qcurve" smooth="yes"/>
      <point x="245" y="-6"/>
      <point x="137" y="40"/>
      <point x="100" y="95" type="qcurve" smooth="yes"/>
      <point x="95" y="103"/>
      <point x="95" y="110" type="qcurve" smooth="yes"/>
      <point x="95" y="121"/>
      <point x="114" y="136"/>
      <point x="125" y="136" type="qcurve" smooth="yes"/>
      <point x="140" y="136"/>
      <point x="148" y="124" type="qcurve" smooth="yes"/>
      <point x="175" y="83"/>
      <point x="260" y="48"/>
      <point x="307" y="48" type="qcurve" smooth="yes"/>
      <point x="334" y="48"/>
      <point x="389" y="59"/>
      <point x="414" y="69" type="qcurve" smooth="yes"/>
      <point x="451" y="83"/>
      <point x="503" y="129"/>
      <point x="538" y="189"/>
      <point x="556" y="259"/>
      <point x="559" y="297" type="qcurve" smooth="yes"/>
      <point x="560" y="309"/>
      <point x="560" y="321,5" type="qcurve" smooth="yes"/>
      <point x="560" y="348" type="line"/>
      <point x="560" y="365" type="line"/>
      <point x="543" y="330"/>
      <point x="485" y="278"/>
      <point x="413" y="243"/>
      <point x="332" y="225"/>
      <point x="291" y="225" type="qcurve" smooth="yes"/>
      <point x="222" y="225"/>
      <point x="162" y="251" type="qcurve"/>
      <point x="90" y="284"/>
      <point x="20" y="405"/>
      <point x="20" y="472" type="qcurve" smooth="yes"/>
      <point x="20" y="510"/>
      <point x="42" y="584"/>
      <point x="85" y="648"/>
      <point x="148" y="699"/>
    </contour>
  </outline>
</glyph>
<glyph name="colon" format="1">
  <advance width="166"/>
  <unicode hex="003A"/>
  <outline>
    <contour>
      <point x="91" y="367" type="qcurve" smooth="yes"/>
      <point x="107" y="367"/>
      <point x="130" y="344"/>
      <point x="130" y="328" type="qcurve" smooth="yes"/>
      <point x="130" y="311"/>
      <point x="107" y="288"/>
      <point x="91" y="288" type="qcurve" smooth="yes"/>
      <point x="74" y="288"/>
      <point x="51" y="311"/>
      <point x="51" y="328" type="qcurve" smooth="yes"/>
      <point x="51" y="344"/>
      <point x="74" y="367"/>
    </contour>
    <contour>
      <point x="91" y="55" type="qcurve" smooth="yes"/>
      <point x="107" y="55"/>
      <point x="130" y="32"/>
      <point x="130" y="-2"/>
      <point x="107" y="-24"/>
      <point x="91" y="-24" type="qcurve" smooth="yes"/>
      <point x="74" y="-24"/>
      <point x="51" y="-2"/>
      <point x="51" y="32"/>
      <point x="74" y="55"/>
    </contour>
  </outline>
</glyph>
<glyph name="semicolon" format="1">
  <advance width="173"/>
  <unicode hex="003B"/>
  <outline>
    <contour>
      <point x="103" y="121" type="qcurve"/>
      <point x="114" y="119"/>
      <point x="126" y="102"/>
      <point x="125" y="88" type="qcurve"/>
      <point x="120" y="66"/>
      <point x="112" y="-14"/>
      <point x="107" y="-66" type="qcurve" smooth="yes"/>
      <point x="106" y="-77"/>
      <point x="90" y="-92"/>
      <point x="77" y="-91" type="qcurve" smooth="yes"/>
      <point x="66" y="-91"/>
      <point x="51" y="-74"/>
      <point x="51" y="-61" type="qcurve" smooth="yes"/>
      <point x="52" y="-46"/>
      <point x="57" y="-4"/>
      <point x="61" y="41"/>
      <point x="67" y="83"/>
      <point x="70" y="99" type="qcurve" smooth="yes"/>
      <point x="72" y="110"/>
      <point x="89" y="122"/>
    </contour>
    <contour>
      <point x="115" y="367"/>
      <point x="137" y="344"/>
      <point x="137" y="328" type="qcurve" smooth="yes"/>
      <point x="137" y="311"/>
      <point x="115" y="288"/>
      <point x="81" y="288"/>
      <point x="58" y="311"/>
      <point x="58" y="328" type="qcurve" smooth="yes"/>
      <point x="58" y="344"/>
      <point x="81" y="367"/>
    </contour>
  </outline>
</glyph>
<glyph name="less" format="1">
  <advance width="469"/>
  <unicode hex="003C"/>
  <outline>
    <contour>
      <point x="421" y="536" type="line" smooth="yes"/>
      <point x="431" y="536"/>
      <point x="446" y="522"/>
      <point x="448" y="508" type="qcurve"/>
      <point x="448" y="498"/>
      <point x="436" y="483"/>
      <point x="425" y="481" type="qcurve" smooth="yes"/>
      <point x="413" y="479" type="line" smooth="yes"/>
      <point x="401" y="476"/>
      <point x="358" y="464"/>
      <point x="298" y="445"/>
      <point x="262" y="431" type="qcurve" smooth="yes"/>
      <point x="220" y="415"/>
      <point x="136" y="375"/>
      <point x="104" y="358" type="qcurve"/>
      <point x="138" y="344"/>
      <point x="226" y="303"/>
      <point x="268" y="280" type="qcurve" smooth="yes"/>
      <point x="340" y="241"/>
      <point x="418" y="182"/>
      <point x="420" y="180" type="qcurve" smooth="yes"/>
      <point x="429" y="172"/>
      <point x="429" y="159" type="qcurve" smooth="yes"/>
      <point x="429" y="148"/>
      <point x="423" y="141" type="qcurve" smooth="yes"/>
      <point x="413" y="131"/>
      <point x="401" y="131" type="qcurve" smooth="yes"/>
      <point x="391" y="131"/>
      <point x="383" y="138" type="qcurve" smooth="yes"/>
      <point x="367" y="151"/>
      <point x="346" y="166" type="qcurve" smooth="yes"/>
      <point x="328" y="179"/>
      <point x="275" y="212"/>
      <point x="207" y="250"/>
      <point x="132" y="285"/>
      <point x="69" y="312"/>
      <point x="26" y="329"/>
      <point x="22" y="331"/>
      <point x="20,5" y="332,5" type="qcurve" smooth="yes"/>
      <point x="14" y="339" type="line"/>
      <point x="11" y="349" type="line" smooth="yes"/>
      <point x="10" y="350"/>
      <point x="10" y="353"/>
      <point x="11" y="360" type="qcurve"/>
      <point x="15" y="370" type="line"/>
      <point x="17" y="372" type="line"/>
      <point x="24" y="378" type="line" smooth="yes"/>
      <point x="26" y="379"/>
      <point x="66" y="401"/>
      <point x="128" y="433"/>
      <point x="204" y="469"/>
      <point x="242" y="484" type="qcurve" smooth="yes"/>
      <point x="318" y="513"/>
      <point x="414" y="535"/>
      <point x="416" y="536" type="qcurve"/>
    </contour>
  </outline>
</glyph>
<glyph name="equal" format="1">
  <advance width="540"/>
  <unicode hex="003D"/>
  <outline>
    <contour>
      <point x="482" y="254" type="qcurve" smooth="yes"/>
      <point x="504" y="249"/>
      <point x="503" y="221" type="qcurve"/>
      <point x="500" y="199"/>
      <point x="470" y="199" type="qcurve"/>
      <point x="450" y="202"/>
      <point x="424" y="206" type="qcurve"/>
      <point x="402" y="208"/>
      <point x="339" y="213"/>
      <point x="301" y="213" type="qcurve" smooth="yes"/>
      <point x="262" y="213"/>
      <point x="180" y="207"/>
      <point x="111" y="200"/>
      <point x="66" y="194"/>
      <point x="64" y="194" type="qcurve" smooth="yes"/>
      <point x="53" y="194"/>
      <point x="38" y="208"/>
      <point x="36" y="222" type="qcurve"/>
      <point x="36" y="233"/>
      <point x="49" y="248"/>
      <point x="60" y="250" type="qcurve" smooth="yes"/>
      <point x="62" y="250"/>
      <point x="107" y="256"/>
      <point x="176" y="263"/>
      <point x="260" y="269"/>
      <point x="301" y="269" type="qcurve" smooth="yes"/>
      <point x="383" y="269"/>
      <point x="480" y="255"/>
    </contour>
    <contour>
      <point x="482" y="442" type="qcurve" smooth="yes"/>
      <point x="504" y="437"/>
      <point x="503" y="409" type="qcurve"/>
      <point x="500" y="387"/>
      <point x="470" y="387" type="qcurve"/>
      <point x="450" y="390"/>
      <point x="424" y="394" type="qcurve"/>
      <point x="402" y="396"/>
      <point x="339" y="401"/>
      <point x="301" y="401" type="qcurve" smooth="yes"/>
      <point x="262" y="401"/>
      <point x="180" y="395"/>
      <point x="111" y="388"/>
      <point x="66" y="382"/>
      <point x="64" y="382" type="qcurve" smooth="yes"/>
      <point x="53" y="382"/>
      <point x="38" y="396"/>
      <point x="36" y="410" type="qcurve"/>
      <point x="36" y="421"/>
      <point x="49" y="436"/>
      <point x="60" y="438" type="qcurve" smooth="yes"/>
      <point x="62" y="438"/>
      <point x="107" y="444"/>
      <point x="176" y="451"/>
      <point x="260" y="457"/>
      <point x="301" y="457" type="qcurve" smooth="yes"/>
      <point x="383" y="457"/>
      <point x="480" y="443"/>
    </contour>
  </outline>
</glyph>
<glyph name="greater" format="1">
  <advance width="469"/>
  <unicode hex="003E"/>
  <outline>
    <contour>
      <point x="43" y="536" type="line" smooth="yes"/>
      <point x="44" y="536"/>
      <point x="70" y="530"/>
      <point x="116" y="518"/>
      <point x="179" y="499"/>
      <point x="217" y="484" type="qcurve" smooth="yes"/>
      <point x="254" y="469"/>
      <point x="331" y="433"/>
      <point x="392" y="401"/>
      <point x="432" y="379"/>
      <point x="434" y="378" type="qcurve" smooth="yes"/>
      <point x="442" y="372" type="line"/>
      <point x="447" y="363" type="line"/>
      <point x="448" y="352" type="line"/>
      <point x="445" y="341" type="line"/>
      <point x="440" y="334"/>
      <point x="437" y="331"/>
      <point x="433" y="329"/>
      <point x="390" y="312"/>
      <point x="326" y="285"/>
      <point x="251" y="250"/>
      <point x="217" y="231" type="qcurve" smooth="yes"/>
      <point x="149" y="194"/>
      <point x="76" y="138"/>
      <point x="75" y="138" type="qcurve" smooth="yes"/>
      <point x="68" y="131"/>
      <point x="46" y="131"/>
      <point x="36" y="141" type="qcurve" smooth="yes"/>
      <point x="29" y="148"/>
      <point x="29" y="159" type="qcurve" smooth="yes"/>
      <point x="29" y="172"/>
      <point x="39" y="180" type="qcurve" smooth="yes"/>
      <point x="41" y="182"/>
      <point x="118" y="241"/>
      <point x="190" y="280" type="qcurve" smooth="yes"/>
      <point x="232" y="303"/>
      <point x="321" y="344"/>
      <point x="355" y="358" type="qcurve"/>
      <point x="323" y="375"/>
      <point x="238" y="415"/>
      <point x="196" y="431" type="qcurve" smooth="yes"/>
      <point x="160" y="445"/>
      <point x="101" y="464"/>
      <point x="58" y="476"/>
      <point x="46" y="479" type="qcurve" smooth="yes"/>
      <point x="34" y="481" type="line" smooth="yes"/>
      <point x="23" y="483"/>
      <point x="10" y="498"/>
      <point x="10" y="508" type="qcurve"/>
      <point x="12" y="522"/>
      <point x="28" y="536"/>
      <point x="38" y="536" type="qcurve" smooth="yes"/>
    </contour>
  </outline>
</glyph>
<glyph name="question" format="1">
  <advance width="506"/>
  <unicode hex="003F"/>
  <outline>
    <contour>
      <point x="263" y="73" type="line" smooth="yes"/>
      <point x="279" y="73"/>
      <point x="301" y="51"/>
      <point x="303" y="33" type="qcurve"/>
      <point x="303" y="18"/>
      <point x="281" y="-5"/>
      <point x="263" y="-6" type="qcurve" smooth="yes"/>
      <point x="248" y="-6"/>
      <point x="225" y="16"/>
      <point x="224" y="33" type="qcurve" smooth="yes"/>
      <point x="224" y="49"/>
      <point x="245" y="71"/>
      <point x="260" y="73" type="qcurve"/>
    </contour>
    <contour>
      <point x="302" y="743" type="qcurve" smooth="yes"/>
      <point x="358" y="728"/>
      <point x="422" y="674"/>
      <point x="454" y="611"/>
      <point x="463" y="548"/>
      <point x="465" y="524" type="qcurve"/>
      <point x="465" y="512" type="line" smooth="yes"/>
      <point x="465" y="486"/>
      <point x="450" y="443"/>
      <point x="426" y="406"/>
      <point x="411" y="390" type="qcurve" smooth="yes"/>
      <point x="381" y="358" type="line" smooth="yes"/>
      <point x="363" y="340"/>
      <point x="328" y="301"/>
      <point x="300" y="255"/>
      <point x="283" y="198"/>
      <point x="283" y="161" type="qcurve" smooth="yes"/>
      <point x="283" y="156"/>
      <point x="284" y="144"/>
      <point x="284" y="136" type="qcurve" smooth="yes"/>
      <point x="284" y="125"/>
      <point x="269" y="109"/>
      <point x="256" y="108" type="qcurve" smooth="yes"/>
      <point x="245" y="108"/>
      <point x="229" y="123"/>
      <point x="228" y="134" type="qcurve" smooth="yes"/>
      <point x="228" y="141"/>
      <point x="227" y="154"/>
      <point x="227" y="161" type="qcurve" smooth="yes"/>
      <point x="227" y="207"/>
      <point x="248" y="278"/>
      <point x="281" y="334"/>
      <point x="322" y="378"/>
      <point x="341" y="397" type="qcurve" smooth="yes"/>
      <point x="355" y="411"/>
      <point x="380" y="438"/>
      <point x="398" y="467"/>
      <point x="409" y="500"/>
      <point x="409" y="520" type="qcurve"/>
      <point x="407" y="548"/>
      <point x="397" y="601"/>
      <point x="372" y="645"/>
      <point x="327" y="679"/>
      <point x="288" y="689" type="qcurve" smooth="yes"/>
      <point x="253" y="698"/>
      <point x="231" y="698" type="qcurve" smooth="yes"/>
      <point x="208" y="698"/>
      <point x="162" y="683"/>
      <point x="125" y="667" type="qcurve" smooth="yes"/>
      <point x="102" y="658"/>
      <point x="71" y="622"/>
      <point x="53" y="586"/>
      <point x="49" y="573" type="qcurve" smooth="yes"/>
      <point x="45" y="559" type="line"/>
      <point x="40" y="537"/>
      <point x="12" y="537" type="qcurve"/>
      <point x="-10" y="542"/>
      <point x="-10" y="571" type="qcurve" smooth="yes"/>
      <point x="-10" y="572"/>
      <point x="1" y="609"/>
      <point x="27" y="657"/>
      <point x="71" y="706"/>
      <point x="105" y="720" type="qcurve" smooth="yes"/>
      <point x="143" y="736"/>
      <point x="199" y="754"/>
      <point x="230" y="754" type="qcurve" smooth="yes"/>
      <point x="246" y="754"/>
      <point x="281" y="749"/>
    </contour>
  </outline>
</glyph>
<glyph name="at" format="1">
  <advance width="661"/>
  <unicode hex="0040"/>
  <outline>
    <contour>
      <point x="419" y="377" type="qcurve"/>
      <point x="421" y="394"/>
      <point x="422" y="440"/>
      <point x="422" y="462" type="qcurve" smooth="yes"/>
      <point x="422" y="482,5" type="line"/>
      <point x="420" y="500" type="line"/>
      <point x="409" y="500"/>
      <point x="358" y="484"/>
      <point x="303" y="448"/>
      <point x="256" y="388"/>
      <point x="249" y="345" type="qcurve" smooth="yes"/>
      <point x="243" y="309"/>
      <point x="243" y="263"/>
      <point x="251" y="237"/>
      <point x="256" y="231" type="qcurve" smooth="yes"/>
      <point x="260" y="226"/>
      <point x="277" y="218"/>
      <point x="297" y="218" type="qcurve" smooth="yes"/>
      <point x="308" y="218"/>
      <point x="342" y="243"/>
      <point x="377" y="286"/>
      <point x="410" y="344"/>
    </contour>
    <contour>
      <point x="399" y="706" type="line" smooth="yes"/>
      <point x="506" y="706"/>
      <point x="572" y="642" type="qcurve"/>
      <point x="606" y="607"/>
      <point x="641" y="510"/>
      <point x="641" y="445" type="qcurve" smooth="yes"/>
      <point x="640" y="379"/>
      <point x="617" y="279"/>
      <point x="580" y="211"/>
      <point x="532" y="176"/>
      <point x="507" y="173" type="qcurve"/>
      <point x="484" y="173"/>
      <point x="437" y="211"/>
      <point x="426" y="261" type="qcurve"/>
      <point x="398" y="217"/>
      <point x="329" y="162"/>
      <point x="297" y="162" type="qcurve" smooth="yes"/>
      <point x="241" y="162"/>
      <point x="214" y="195" type="qcurve"/>
      <point x="187" y="226"/>
      <point x="187" y="287" type="qcurve" smooth="yes"/>
      <point x="187" y="319"/>
      <point x="194" y="354" type="qcurve"/>
      <point x="203" y="408"/>
      <point x="261" y="485"/>
      <point x="330" y="533"/>
      <point x="399" y="556"/>
      <point x="420" y="556" type="qcurve" smooth="yes"/>
      <point x="425" y="556"/>
      <point x="434" y="555"/>
      <point x="439" y="554" type="qcurve"/>
      <point x="441" y="555"/>
      <point x="446" y="555"/>
      <point x="450" y="556" type="qcurve"/>
      <point x="461" y="556"/>
      <point x="475" y="542"/>
      <point x="477" y="531" type="qcurve"/>
      <point x="491" y="514"/>
      <point x="497" y="490" type="qcurve"/>
      <point x="497" y="478"/>
      <point x="489" y="470" type="qcurve"/>
      <point x="489" y="456"/>
      <point x="486" y="420"/>
      <point x="481" y="395" type="qcurve" smooth="yes"/>
      <point x="479" y="387"/>
      <point x="476" y="372"/>
      <point x="473" y="360" type="qcurve" smooth="yes"/>
      <point x="473" y="356"/>
      <point x="472" y="347"/>
      <point x="472" y="342" type="qcurve" smooth="yes"/>
      <point x="472" y="327"/>
      <point x="478" y="289"/>
      <point x="483" y="265" type="qcurve" smooth="yes"/>
      <point x="486" y="252"/>
      <point x="498" y="229"/>
      <point x="508" y="229" type="qcurve" smooth="yes"/>
      <point x="518" y="230"/>
      <point x="544" y="257"/>
      <point x="568" y="310"/>
      <point x="585" y="392"/>
      <point x="585" y="448" type="qcurve" smooth="yes"/>
      <point x="585" y="551"/>
      <point x="532" y="602" type="qcurve" smooth="yes"/>
      <point x="503" y="631"/>
      <point x="428" y="650"/>
      <point x="395" y="650" type="qcurve" smooth="yes"/>
      <point x="353" y="649"/>
      <point x="250" y="595"/>
      <point x="157" y="497"/>
      <point x="87" y="361"/>
      <point x="78" y="278" type="qcurve" smooth="yes"/>
      <point x="77" y="268"/>
      <point x="76" y="250"/>
      <point x="76" y="241" type="qcurve" smooth="yes"/>
      <point x="76" y="159"/>
      <point x="118" y="116" type="qcurve" smooth="yes"/>
      <point x="147" y="86"/>
      <point x="232" y="65"/>
      <point x="272" y="65" type="qcurve" smooth="yes"/>
      <point x="280" y="65"/>
      <point x="293" y="66"/>
      <point x="300" y="66" type="qcurve" smooth="yes"/>
      <point x="322" y="67"/>
      <point x="372" y="89"/>
      <point x="419" y="116"/>
      <point x="456" y="144"/>
      <point x="466" y="153" type="qcurve" smooth="yes"/>
      <point x="473" y="159"/>
      <point x="484" y="159" type="qcurve" smooth="yes"/>
      <point x="497" y="159"/>
      <point x="505" y="150" type="qcurve" smooth="yes"/>
      <point x="512" y="142"/>
      <point x="512" y="131" type="qcurve" smooth="yes"/>
      <point x="512" y="119"/>
      <point x="502" y="110" type="qcurve" smooth="yes"/>
      <point x="500" y="108"/>
      <point x="463" y="79"/>
      <point x="406" y="43"/>
      <point x="337" y="12"/>
      <point x="303" y="10" type="qcurve" smooth="yes"/>
      <point x="295" y="10"/>
      <point x="280" y="9"/>
      <point x="272" y="9" type="qcurve" smooth="yes"/>
      <point x="144" y="9"/>
      <point x="78" y="78" type="qcurve" smooth="yes"/>
      <point x="20" y="138"/>
      <point x="20" y="241" type="qcurve" smooth="yes"/>
      <point x="20" y="261"/>
      <point x="23" y="284" type="qcurve" smooth="yes"/>
      <point x="33" y="379"/>
      <point x="113" y="534"/>
      <point x="223" y="645"/>
      <point x="344" y="705"/>
      <point x="394" y="706" type="qcurve"/>
    </contour>
  </outline>
</glyph>
<glyph name="B" format="1">
  <advance width="616"/>
  <unicode hex="0042"/>
  <outline>
    <contour>
      <point x="519" y="208" type="line" smooth="yes"/>
      <point x="519" y="225"/>
      <point x="502" y="270"/>
      <point x="482" y="292" type="qcurve" smooth="yes"/>
      <point x="471" y="303"/>
      <point x="441" y="325"/>
      <point x="400" y="344"/>
      <point x="346" y="357"/>
      <point x="312" y="358" type="qcurve"/>
      <point x="296" y="357"/>
      <point x="263" y="356"/>
      <point x="246" y="356" type="qcurve" smooth="yes"/>
      <point x="226" y="356"/>
      <point x="186" y="357"/>
      <point x="166" y="358" type="qcurve"/>
      <point x="128" y="358" type="line"/>
      <point x="130" y="324"/>
      <point x="138" y="232"/>
      <point x="147" y="139"/>
      <point x="155" y="60"/>
      <point x="157" y="39" type="qcurve"/>
      <point x="190" y="40"/>
      <point x="265" y="43"/>
      <point x="333" y="47"/>
      <point x="387" y="53"/>
      <point x="399" y="56" type="qcurve" smooth="yes"/>
      <point x="439" y="68"/>
      <point x="485" y="96"/>
      <point x="508" y="129"/>
      <point x="515" y="167"/>
      <point x="518" y="190" type="qcurve" smooth="yes"/>
      <point x="519" y="201" type="line"/>
    </contour>
    <contour>
      <point x="361" y="682" type="qcurve" smooth="yes"/>
      <point x="313" y="695"/>
      <point x="244" y="705"/>
      <point x="216" y="705" type="qcurve" smooth="yes"/>
      <point x="187" y="705"/>
      <point x="135" y="696"/>
      <point x="106" y="689" type="qcurve"/>
      <point x="110" y="658"/>
      <point x="117" y="583"/>
      <point x="122" y="508"/>
      <point x="126" y="439"/>
      <point x="126" y="414" type="qcurve"/>
      <point x="168" y="414" type="line"/>
      <point x="187" y="413"/>
      <point x="225" y="412"/>
      <point x="245" y="412" type="qcurve" smooth="yes"/>
      <point x="258" y="412" type="line"/>
      <point x="276" y="414" type="line" smooth="yes"/>
      <point x="281" y="414"/>
      <point x="290" y="415"/>
      <point x="295" y="415" type="qcurve" smooth="yes"/>
      <point x="299" y="415"/>
      <point x="306" y="414"/>
      <point x="311" y="414" type="qcurve" smooth="yes"/>
      <point x="327" y="416"/>
      <point x="356" y="419"/>
      <point x="367" y="423" type="qcurve"/>
      <point x="397" y="431"/>
      <point x="431" y="454"/>
      <point x="449" y="483"/>
      <point x="455" y="515"/>
      <point x="457" y="533" type="qcurve" smooth="yes"/>
      <point x="458" y="551" type="line" smooth="yes"/>
      <point x="458" y="566"/>
      <point x="447" y="606"/>
      <point x="423" y="644"/>
      <point x="386" y="675"/>
    </contour>
    <contour>
      <point x="434" y="390" type="qcurve"/>
      <point x="465" y="377"/>
      <point x="508" y="346"/>
      <point x="523" y="330" type="qcurve" smooth="yes"/>
      <point x="552" y="298"/>
      <point x="575" y="233"/>
      <point x="575" y="207" type="qcurve" smooth="yes"/>
      <point x="575" y="195" type="line"/>
      <point x="573" y="184" type="line"/>
      <point x="571" y="160"/>
      <point x="561" y="109"/>
      <point x="529" y="60"/>
      <point x="468" y="17"/>
      <point x="414" y="2" type="qcurve" smooth="yes"/>
      <point x="401" y="-2"/>
      <point x="352" y="-7"/>
      <point x="293" y="-12"/>
      <point x="230" y="-15"/>
      <point x="176" y="-16"/>
      <point x="137" y="-17"/>
      <point x="131" y="-17" type="qcurve" smooth="yes"/>
      <point x="120" y="-17"/>
      <point x="103" y="0"/>
      <point x="103" y="16" type="qcurve" smooth="yes"/>
      <point x="103" y="19"/>
      <point x="98" y="62"/>
      <point x="92" y="127"/>
      <point x="84" y="207"/>
      <point x="77" y="288"/>
      <point x="71" y="361"/>
      <point x="70" y="387" type="qcurve"/>
      <point x="70" y="397" type="line" smooth="yes"/>
      <point x="70" y="422"/>
      <point x="66" y="496"/>
      <point x="61" y="577"/>
      <point x="54" y="656"/>
      <point x="50" y="688" type="qcurve"/>
      <point x="47" y="690"/>
      <point x="43" y="699"/>
      <point x="41" y="708" type="qcurve"/>
      <point x="41" y="717"/>
      <point x="45" y="722" type="qcurve"/>
      <point x="43" y="727"/>
      <point x="42" y="737" type="qcurve" smooth="yes"/>
      <point x="42" y="747"/>
      <point x="56" y="763"/>
      <point x="70" y="765" type="qcurve"/>
      <point x="92" y="765"/>
      <point x="97" y="744" type="qcurve"/>
      <point x="127" y="752"/>
      <point x="183" y="761"/>
      <point x="215" y="761" type="qcurve" smooth="yes"/>
      <point x="246" y="761"/>
      <point x="323" y="750"/>
      <point x="375" y="736" type="qcurve" smooth="yes"/>
      <point x="409" y="727"/>
      <point x="461" y="685"/>
      <point x="496" y="633"/>
      <point x="514" y="576"/>
      <point x="514" y="551" type="qcurve" smooth="yes"/>
      <point x="514" y="544,5" type="line"/>
      <point x="513" y="538" type="line"/>
      <point x="512" y="528" type="line" smooth="yes"/>
      <point x="510" y="512"/>
      <point x="505" y="476"/>
      <point x="489" y="439"/>
      <point x="459" y="404"/>
    </contour>
  </outline>
</glyph>
<glyph name="C" format="1">
  <advance width="590"/>
  <unicode hex="0043"/>
  <outline>
    <contour>
      <point x="537" y="118" type="line" smooth="yes"/>
      <point x="545" y="126"/>
      <point x="569" y="126"/>
      <point x="576" y="119" type="qcurve" smooth="yes"/>
      <point x="585" y="110"/>
      <point x="585" y="98" type="qcurve" smooth="yes"/>
      <point x="585" y="87"/>
      <point x="577" y="79" type="qcurve" smooth="yes"/>
      <point x="576" y="78"/>
      <point x="547" y="52"/>
      <point x="496" y="22"/>
      <point x="424" y="-3"/>
      <point x="379" y="-3" type="qcurve" smooth="yes"/>
      <point x="326" y="-3"/>
      <point x="205" y="38"/>
      <point x="100" y="130"/>
      <point x="31" y="277"/>
      <point x="31" y="384" type="qcurve" smooth="yes"/>
      <point x="31" y="417"/>
      <point x="35" y="466"/>
      <point x="44" y="505"/>
      <point x="57" y="537"/>
      <point x="66" y="552" type="qcurve" smooth="yes"/>
      <point x="67" y="554"/>
      <point x="94" y="599"/>
      <point x="134" y="657"/>
      <point x="185" y="712"/>
      <point x="210" y="724" type="qcurve" smooth="yes"/>
      <point x="239" y="737"/>
      <point x="297" y="749"/>
      <point x="323" y="749" type="qcurve" smooth="yes"/>
      <point x="351" y="749"/>
      <point x="372" y="743" type="qcurve" smooth="yes"/>
      <point x="382" y="741"/>
      <point x="414" y="730"/>
      <point x="447" y="716"/>
      <point x="475" y="700"/>
      <point x="481" y="693" type="qcurve" smooth="yes"/>
      <point x="489" y="682"/>
      <point x="494" y="651"/>
      <point x="494" y="637" type="qcurve" smooth="yes"/>
      <point x="494" y="626"/>
      <point x="478" y="609"/>
      <point x="466" y="609" type="qcurve" smooth="yes"/>
      <point x="455" y="609"/>
      <point x="438" y="626"/>
      <point x="438" y="637" type="qcurve" smooth="yes"/>
      <point x="438" y="648" type="line"/>
      <point x="437" y="658" type="line"/>
      <point x="427" y="663"/>
      <point x="380" y="684"/>
      <point x="359" y="689" type="qcurve" smooth="yes"/>
      <point x="351" y="691"/>
      <point x="334" y="693"/>
      <point x="324" y="693" type="qcurve" smooth="yes"/>
      <point x="303" y="693"/>
      <point x="256" y="684"/>
      <point x="235" y="673" type="qcurve"/>
      <point x="221" y="667"/>
      <point x="188" y="633"/>
      <point x="155" y="590"/>
      <point x="125" y="544"/>
      <point x="115" y="525" type="qcurve" smooth="yes"/>
      <point x="108" y="512"/>
      <point x="97" y="486"/>
      <point x="90" y="454"/>
      <point x="87" y="412"/>
      <point x="87" y="384" type="qcurve" smooth="yes"/>
      <point x="87" y="316"/>
      <point x="119" y="215"/>
      <point x="170" y="141"/>
      <point x="235" y="93"/>
      <point x="300" y="64"/>
      <point x="359" y="53"/>
      <point x="379" y="53" type="qcurve" smooth="yes"/>
      <point x="415" y="53"/>
      <point x="473" y="73"/>
      <point x="514" y="97"/>
      <point x="526" y="108" type="qcurve" smooth="yes"/>
    </contour>
  </outline>
</glyph>
<glyph name="D" format="1">
  <advance width="676"/>
  <unicode hex="0044"/>
  <outline>
    <contour>
      <point x="389" y="42" type="qcurve" smooth="yes"/>
      <point x="445" y="58"/>
      <point x="515" y="131"/>
      <point x="555" y="227"/>
      <point x="569" y="334"/>
      <point x="569" y="384" type="qcurve" smooth="yes"/>
      <point x="569" y="450"/>
      <point x="524" y="553"/>
      <point x="458" y="628"/>
      <point x="382" y="674"/>
      <point x="351" y="682" type="qcurve" smooth="yes"/>
      <point x="303" y="695"/>
      <point x="234" y="705"/>
      <point x="176" y="705"/>
      <point x="125" y="696"/>
      <point x="96" y="689" type="qcurve"/>
      <point x="100" y="655"/>
      <point x="107" y="572"/>
      <point x="113" y="491"/>
      <point x="116" y="420"/>
      <point x="116" y="397" type="qcurve" smooth="yes"/>
      <point x="116" y="380"/>
      <point x="120" y="323"/>
      <point x="125" y="253"/>
      <point x="132" y="178"/>
      <point x="139" y="109"/>
      <point x="145" y="53"/>
      <point x="147" y="38" type="qcurve"/>
      <point x="176" y="36"/>
      <point x="241" y="35"/>
      <point x="273" y="35" type="qcurve" smooth="yes"/>
      <point x="313" y="35"/>
      <point x="375" y="38"/>
    </contour>
    <contour>
      <point x="365" y="736" type="qcurve" smooth="yes"/>
      <point x="404" y="725"/>
      <point x="495" y="671"/>
      <point x="573" y="584"/>
      <point x="625" y="462"/>
      <point x="625" y="384" type="qcurve" smooth="yes"/>
      <point x="625" y="281"/>
      <point x="584" y="139"/>
      <point x="520" y="48"/>
      <point x="442" y="-1"/>
      <point x="404" y="-12" type="qcurve" smooth="yes"/>
      <point x="386" y="-17"/>
      <point x="313" y="-21"/>
      <point x="272" y="-21" type="qcurve" smooth="yes"/>
      <point x="246" y="-21"/>
      <point x="195" y="-20"/>
      <point x="153" y="-19"/>
      <point x="124" y="-17"/>
      <point x="119" y="-17" type="qcurve" smooth="yes"/>
      <point x="108" y="-17"/>
      <point x="93" y="1"/>
      <point x="93" y="16" type="qcurve"/>
      <point x="92" y="19"/>
      <point x="87" y="67"/>
      <point x="80" y="138"/>
      <point x="72" y="224"/>
      <point x="65" y="307"/>
      <point x="60" y="377"/>
      <point x="60" y="397" type="qcurve" smooth="yes"/>
      <point x="60" y="422"/>
      <point x="57" y="496"/>
      <point x="51" y="577"/>
      <point x="43" y="656"/>
      <point x="39" y="688" type="qcurve"/>
      <point x="37" y="690"/>
      <point x="33" y="699"/>
      <point x="31" y="708" type="qcurve"/>
      <point x="31" y="716"/>
      <point x="34" y="722" type="qcurve" smooth="yes"/>
      <point x="34" y="724"/>
      <point x="33" y="731"/>
      <point x="32" y="737" type="qcurve"/>
      <point x="32" y="747"/>
      <point x="46" y="763"/>
      <point x="60" y="765" type="qcurve"/>
      <point x="82" y="765"/>
      <point x="87" y="744" type="qcurve"/>
      <point x="117" y="752"/>
      <point x="172" y="761"/>
      <point x="205" y="761" type="qcurve" smooth="yes"/>
      <point x="236" y="761"/>
      <point x="313" y="750"/>
    </contour>
  </outline>
</glyph>
<glyph name="E" format="1">
  <advance width="589"/>
  <unicode hex="0045"/>
  <outline>
    <contour>
      <point x="567" y="51" type="qcurve" smooth="yes"/>
      <point x="589" y="46"/>
      <point x="589" y="18" type="qcurve"/>
      <point x="587" y="7"/>
      <point x="570" y="-5"/>
      <point x="556" y="-4" type="qcurve" smooth="yes"/>
      <point x="555" y="-4"/>
      <point x="464" y="9"/>
      <point x="386" y="9" type="qcurve" smooth="yes"/>
      <point x="347" y="9"/>
      <point x="265" y="3"/>
      <point x="196" y="-3"/>
      <point x="151" y="-9"/>
      <point x="149" y="-9" type="qcurve" smooth="yes"/>
      <point x="130" y="-9" type="line" smooth="yes"/>
      <point x="119" y="-9"/>
      <point x="103" y="5"/>
      <point x="102" y="16" type="qcurve" smooth="yes"/>
      <point x="101" y="19"/>
      <point x="96" y="67"/>
      <point x="89" y="138"/>
      <point x="81" y="224"/>
      <point x="74" y="307"/>
      <point x="69" y="377"/>
      <point x="69" y="397" type="qcurve" smooth="yes"/>
      <point x="69" y="427"/>
      <point x="64" y="521"/>
      <point x="56" y="620"/>
      <point x="46" y="710"/>
      <point x="41" y="737" type="qcurve"/>
      <point x="41" y="747"/>
      <point x="55" y="763"/>
      <point x="69" y="765" type="qcurve"/>
      <point x="91" y="765"/>
      <point x="96" y="744" type="qcurve"/>
      <point x="103" y="754"/>
      <point x="115" y="756" type="qcurve" smooth="yes"/>
      <point x="117" y="756"/>
      <point x="162" y="762"/>
      <point x="231" y="769"/>
      <point x="315" y="775"/>
      <point x="356" y="775" type="qcurve" smooth="yes"/>
      <point x="438" y="775"/>
      <point x="535" y="761"/>
      <point x="537" y="760" type="qcurve" smooth="yes"/>
      <point x="559" y="755"/>
      <point x="559" y="727" type="qcurve"/>
      <point x="554" y="705"/>
      <point x="525" y="705" type="qcurve"/>
      <point x="505" y="708"/>
      <point x="479" y="712" type="qcurve"/>
      <point x="457" y="714"/>
      <point x="394" y="719"/>
      <point x="356" y="719" type="qcurve" smooth="yes"/>
      <point x="317" y="719"/>
      <point x="235" y="713"/>
      <point x="166" y="706"/>
      <point x="121" y="700"/>
      <point x="119" y="700" type="qcurve" smooth="yes"/>
      <point x="110" y="700"/>
      <point x="102" y="705" type="qcurve"/>
      <point x="107" y="672"/>
      <point x="115" y="586"/>
      <point x="121" y="500"/>
      <point x="125" y="423"/>
      <point x="125" y="398" type="qcurve"/>
      <point x="134" y="399"/>
      <point x="174" y="404"/>
      <point x="229" y="409"/>
      <point x="295" y="413"/>
      <point x="330" y="415" type="qcurve" smooth="yes"/>
      <point x="341" y="415"/>
      <point x="358" y="399"/>
      <point x="358" y="387" type="qcurve" smooth="yes"/>
      <point x="358" y="376"/>
      <point x="342" y="359"/>
      <point x="331" y="359" type="qcurve" smooth="yes"/>
      <point x="295" y="357"/>
      <point x="224" y="352"/>
      <point x="168" y="347"/>
      <point x="130" y="342"/>
      <point x="127" y="342" type="qcurve"/>
      <point x="129" y="308"/>
      <point x="133" y="266,5" type="qcurve" smooth="yes"/>
      <point x="141" y="183,5" type="line"/>
      <point x="148,5" y="106" type="line"/>
      <point x="155" y="48" type="line"/>
      <point x="167" y="49"/>
      <point x="216" y="55"/>
      <point x="280" y="61"/>
      <point x="351" y="65"/>
      <point x="386" y="65" type="qcurve" smooth="yes"/>
      <point x="468" y="65"/>
      <point x="565" y="51"/>
    </contour>
  </outline>
</glyph>
<glyph name="F" format="1">
  <advance width="482"/>
  <unicode hex="0046"/>
  <outline>
    <contour>
      <point x="325" y="415" type="line" smooth="yes"/>
      <point x="336" y="415"/>
      <point x="352" y="399"/>
      <point x="353" y="387" type="qcurve" smooth="yes"/>
      <point x="353" y="376"/>
      <point x="337" y="359"/>
      <point x="326" y="359" type="qcurve" smooth="yes"/>
      <point x="290" y="357"/>
      <point x="219" y="352"/>
      <point x="163" y="347"/>
      <point x="125" y="342"/>
      <point x="122" y="342" type="qcurve"/>
      <point x="124" y="314"/>
      <point x="130" y="245"/>
      <point x="137" y="174"/>
      <point x="144" y="106"/>
      <point x="149" y="53"/>
      <point x="153" y="20"/>
      <point x="153" y="19" type="qcurve" smooth="yes"/>
      <point x="153" y="8"/>
      <point x="138" y="-8"/>
      <point x="124" y="-9" type="qcurve" smooth="yes"/>
      <point x="113" y="-9"/>
      <point x="98" y="5"/>
      <point x="97" y="16" type="qcurve" smooth="yes"/>
      <point x="96" y="19"/>
      <point x="91" y="67"/>
      <point x="84" y="138"/>
      <point x="76" y="224"/>
      <point x="69" y="307"/>
      <point x="64" y="377"/>
      <point x="64" y="397" type="qcurve" smooth="yes"/>
      <point x="64" y="427"/>
      <point x="59" y="521"/>
      <point x="51" y="620"/>
      <point x="41" y="710"/>
      <point x="36" y="737" type="qcurve"/>
      <point x="36" y="747"/>
      <point x="50" y="763"/>
      <point x="64" y="765" type="qcurve"/>
      <point x="86" y="765"/>
      <point x="91" y="744" type="qcurve"/>
      <point x="98" y="754"/>
      <point x="110" y="756" type="qcurve" smooth="yes"/>
      <point x="112" y="756"/>
      <point x="157" y="762"/>
      <point x="226" y="769"/>
      <point x="310" y="775"/>
      <point x="351" y="775" type="qcurve" smooth="yes"/>
      <point x="433" y="775"/>
      <point x="530" y="761"/>
      <point x="532" y="760" type="qcurve" smooth="yes"/>
      <point x="554" y="755"/>
      <point x="553" y="727" type="qcurve"/>
      <point x="550" y="705"/>
      <point x="520" y="705" type="qcurve"/>
      <point x="500" y="708"/>
      <point x="474" y="712" type="qcurve"/>
      <point x="452" y="714"/>
      <point x="389" y="719"/>
      <point x="351" y="719" type="qcurve" smooth="yes"/>
      <point x="312" y="719"/>
      <point x="230" y="713"/>
      <point x="161" y="706"/>
      <point x="116" y="700"/>
      <point x="114" y="700" type="qcurve" smooth="yes"/>
      <point x="105" y="700"/>
      <point x="97" y="705" type="qcurve"/>
      <point x="102" y="672"/>
      <point x="110" y="586"/>
      <point x="116" y="500"/>
      <point x="120" y="423"/>
      <point x="120" y="398" type="qcurve"/>
      <point x="129" y="399"/>
      <point x="169" y="404"/>
      <point x="224" y="409"/>
      <point x="290" y="413"/>
      <point x="324" y="415" type="qcurve"/>
    </contour>
  </outline>
</glyph>
<glyph name="G" format="1">
  <advance width="665"/>
  <unicode hex="0047"/>
  <outline>
    <contour>
      <point x="579" y="380" type="line"/>
      <point x="601" y="380"/>
      <point x="606" y="357" type="qcurve" smooth="yes"/>
      <point x="612" y="330"/>
      <point x="622" y="236"/>
      <point x="630" y="135"/>
      <point x="635" y="40"/>
      <point x="635" y="11" type="qcurve" smooth="yes"/>
      <point x="635" y="0"/>
      <point x="618" y="-17"/>
      <point x="607" y="-17" type="qcurve" smooth="yes"/>
      <point x="595" y="-17"/>
      <point x="579" y="0"/>
      <point x="579" y="22"/>
      <point x="578" y="49"/>
      <point x="577" y="64" type="qcurve"/>
      <point x="566" y="55"/>
      <point x="530" y="32"/>
      <point x="482" y="11"/>
      <point x="422" y="-3"/>
      <point x="388" y="-3" type="qcurve" smooth="yes"/>
      <point x="352" y="-3"/>
      <point x="270" y="15"/>
      <point x="189" y="54"/>
      <point x="116" y="114"/>
      <point x="59" y="200"/>
      <point x="26" y="313"/>
      <point x="26" y="384" type="qcurve" smooth="yes"/>
      <point x="26" y="417"/>
      <point x="30" y="466"/>
      <point x="39" y="505"/>
      <point x="53" y="537"/>
      <point x="62" y="552" type="qcurve" smooth="yes"/>
      <point x="63" y="554"/>
      <point x="91" y="600"/>
      <point x="134" y="657"/>
      <point x="187" y="712"/>
      <point x="213" y="724" type="qcurve" smooth="yes"/>
      <point x="242" y="737"/>
      <point x="303" y="748"/>
      <point x="330" y="748" type="qcurve" smooth="yes"/>
      <point x="358" y="748"/>
      <point x="380" y="743" type="qcurve" smooth="yes"/>
      <point x="390" y="741"/>
      <point x="424" y="730"/>
      <point x="458" y="716"/>
      <point x="488" y="700"/>
      <point x="494" y="693" type="qcurve" smooth="yes"/>
      <point x="500" y="685"/>
      <point x="500" y="675" type="qcurve" smooth="yes"/>
      <point x="500" y="661"/>
      <point x="490" y="654" type="qcurve"/>
      <point x="483" y="647"/>
      <point x="461" y="647"/>
      <point x="452" y="656" type="qcurve" smooth="yes"/>
      <point x="449" y="658"/>
      <point x="430" y="667"/>
      <point x="406" y="677"/>
      <point x="379" y="686"/>
      <point x="367" y="689" type="qcurve" smooth="yes"/>
      <point x="359" y="691"/>
      <point x="341" y="693"/>
      <point x="330" y="693" type="qcurve" smooth="yes"/>
      <point x="308" y="693"/>
      <point x="259" y="684"/>
      <point x="236" y="673" type="qcurve" smooth="yes"/>
      <point x="222" y="667"/>
      <point x="188" y="633"/>
      <point x="153" y="590"/>
      <point x="122" y="543"/>
      <point x="111" y="524" type="qcurve" smooth="yes"/>
      <point x="103" y="512"/>
      <point x="93" y="486"/>
      <point x="85" y="454"/>
      <point x="82" y="412"/>
      <point x="82" y="384" type="qcurve" smooth="yes"/>
      <point x="82" y="316"/>
      <point x="116" y="215"/>
      <point x="169" y="141"/>
      <point x="237" y="93"/>
      <point x="305" y="64"/>
      <point x="367" y="53"/>
      <point x="388" y="53" type="qcurve" smooth="yes"/>
      <point x="426" y="53"/>
      <point x="487" y="73"/>
      <point x="531" y="97"/>
      <point x="543" y="108" type="qcurve" smooth="yes"/>
      <point x="554" y="118" type="line" smooth="yes"/>
      <point x="562" y="126"/>
      <point x="574" y="126" type="qcurve"/>
      <point x="571" y="177"/>
      <point x="561" y="282"/>
      <point x="556" y="318" type="qcurve"/>
      <point x="518" y="316"/>
      <point x="446" y="311"/>
      <point x="389" y="305"/>
      <point x="352" y="301"/>
      <point x="351" y="301" type="qcurve" smooth="yes"/>
      <point x="340" y="301"/>
      <point x="325" y="315"/>
      <point x="323" y="329" type="qcurve"/>
      <point x="323" y="340"/>
      <point x="336" y="355"/>
      <point x="347" y="357" type="qcurve" smooth="yes"/>
      <point x="348" y="357"/>
      <point x="385" y="361"/>
      <point x="445" y="367"/>
      <point x="521" y="372"/>
      <point x="562" y="374" type="qcurve"/>
      <point x="565" y="377"/>
      <point x="573" y="379" type="qcurve" smooth="yes"/>
    </contour>
  </outline>
</glyph>
<glyph name="H" format="1">
  <advance width="636"/>
  <unicode hex="0048"/>
  <outline>
    <contour>
      <point x="552" y="397" type="qcurve" smooth="yes"/>
      <point x="552" y="378"/>
      <point x="557" y="308"/>
      <point x="564" y="225"/>
      <point x="572" y="138"/>
      <point x="579" y="67"/>
      <point x="584" y="20"/>
      <point x="584" y="19" type="qcurve" smooth="yes"/>
      <point x="584" y="8"/>
      <point x="570" y="-8"/>
      <point x="556" y="-9" type="qcurve" smooth="yes"/>
      <point x="545" y="-9"/>
      <point x="530" y="5"/>
      <point x="529" y="16" type="qcurve" smooth="yes"/>
      <point x="529" y="19"/>
      <point x="524" y="58"/>
      <point x="518" y="117"/>
      <point x="510" y="191"/>
      <point x="503" y="267"/>
      <point x="497" y="337"/>
      <point x="496" y="364" type="qcurve" smooth="yes"/>
      <point x="495" y="364"/>
      <point x="404" y="378"/>
      <point x="326" y="378" type="qcurve" smooth="yes"/>
      <point x="297" y="378"/>
      <point x="236" y="374"/>
      <point x="180" y="369"/>
      <point x="132" y="364"/>
      <point x="116" y="362" type="qcurve"/>
      <point x="117" y="336"/>
      <point x="123" y="265"/>
      <point x="130" y="189"/>
      <point x="137" y="116"/>
      <point x="143" y="57"/>
      <point x="147" y="20"/>
      <point x="147" y="19" type="qcurve" smooth="yes"/>
      <point x="147" y="8"/>
      <point x="133" y="-8"/>
      <point x="119" y="-9" type="qcurve" smooth="yes"/>
      <point x="108" y="-9"/>
      <point x="93" y="5"/>
      <point x="92" y="16" type="qcurve" smooth="yes"/>
      <point x="91" y="19"/>
      <point x="86" y="67"/>
      <point x="79" y="138"/>
      <point x="71" y="224"/>
      <point x="64" y="307"/>
      <point x="59" y="377"/>
      <point x="59" y="397" type="qcurve" smooth="yes"/>
      <point x="59" y="427"/>
      <point x="54" y="521"/>
      <point x="46" y="620"/>
      <point x="36" y="710"/>
      <point x="31" y="737" type="qcurve"/>
      <point x="31" y="747"/>
      <point x="45" y="763"/>
      <point x="59" y="765" type="qcurve"/>
      <point x="69" y="765"/>
      <point x="84" y="753"/>
      <point x="86" y="743" type="qcurve" smooth="yes"/>
      <point x="91" y="717"/>
      <point x="101" y="634"/>
      <point x="108" y="541"/>
      <point x="113" y="451"/>
      <point x="114" y="419" type="qcurve"/>
      <point x="131" y="421"/>
      <point x="179" y="426"/>
      <point x="236" y="431"/>
      <point x="297" y="434"/>
      <point x="326" y="434" type="qcurve" smooth="yes"/>
      <point x="390" y="434"/>
      <point x="477" y="424"/>
      <point x="495" y="421" type="qcurve"/>
      <point x="494" y="455"/>
      <point x="489" y="544"/>
      <point x="481" y="633"/>
      <point x="472" y="713"/>
      <point x="468" y="737" type="qcurve"/>
      <point x="468" y="747"/>
      <point x="482" y="763"/>
      <point x="496" y="765" type="qcurve"/>
      <point x="506" y="765"/>
      <point x="521" y="753"/>
      <point x="523" y="743" type="qcurve" smooth="yes"/>
      <point x="529" y="715"/>
      <point x="539" y="622"/>
      <point x="547" y="520"/>
      <point x="552" y="425"/>
    </contour>
  </outline>
</glyph>
<glyph name="I" format="1">
  <advance width="240"/>
  <unicode hex="0049"/>
  <outline>
    <contour>
      <point x="135" y="397" type="qcurve" smooth="yes"/>
      <point x="135" y="378"/>
      <point x="140" y="308"/>
      <point x="147" y="225"/>
      <point x="155" y="138"/>
      <point x="163" y="67"/>
      <point x="168" y="20"/>
      <point x="168" y="19" type="qcurve" smooth="yes"/>
      <point x="168" y="8"/>
      <point x="153" y="-8"/>
      <point x="140" y="-9" type="qcurve" smooth="yes"/>
      <point x="129" y="-9"/>
      <point x="114" y="5"/>
      <point x="112" y="16" type="qcurve" smooth="yes"/>
      <point x="112" y="19"/>
      <point x="107" y="67"/>
      <point x="99" y="138"/>
      <point x="91" y="224"/>
      <point x="84" y="307"/>
      <point x="79" y="377"/>
      <point x="79" y="397" type="qcurve" smooth="yes"/>
      <point x="79" y="427"/>
      <point x="74" y="521"/>
      <point x="66" y="620"/>
      <point x="56" y="710"/>
      <point x="51" y="737" type="qcurve"/>
      <point x="51" y="747"/>
      <point x="65" y="763"/>
      <point x="79" y="765" type="qcurve"/>
      <point x="89" y="765"/>
      <point x="105" y="753"/>
      <point x="107" y="743" type="qcurve" smooth="yes"/>
      <point x="112" y="715"/>
      <point x="122" y="622"/>
      <point x="130" y="520"/>
      <point x="135" y="425"/>
    </contour>
  </outline>
</glyph>
<glyph name="J" format="1">
  <advance width="564"/>
  <unicode hex="004A"/>
  <outline>
    <contour>
      <point x="469" y="753" type="qcurve" smooth="yes"/>
      <point x="474" y="725"/>
      <point x="483" y="629"/>
      <point x="490" y="525"/>
      <point x="495" y="428"/>
      <point x="495" y="398" type="qcurve" smooth="yes"/>
      <point x="495" y="392"/>
      <point x="497" y="332"/>
      <point x="497" y="292" type="qcurve" smooth="yes"/>
      <point x="497" y="254"/>
      <point x="493" y="175"/>
      <point x="485" y="146" type="qcurve"/>
      <point x="472" y="91"/>
      <point x="420" y="27"/>
      <point x="358" y="-6"/>
      <point x="292" y="-17"/>
      <point x="265" y="-20" type="qcurve" smooth="yes"/>
      <point x="261" y="-20"/>
      <point x="255" y="-21"/>
      <point x="251" y="-21" type="qcurve" smooth="yes"/>
      <point x="220" y="-21"/>
      <point x="139" y="8"/>
      <point x="101" y="44" type="qcurve" smooth="yes"/>
      <point x="86" y="58"/>
      <point x="55" y="98"/>
      <point x="31" y="153"/>
      <point x="15" y="222"/>
      <point x="15" y="266" type="qcurve" smooth="yes"/>
      <point x="15" y="271"/>
      <point x="16" y="282"/>
      <point x="16" y="287" type="qcurve" smooth="yes"/>
      <point x="17" y="298"/>
      <point x="33" y="314"/>
      <point x="45" y="314" type="qcurve"/>
      <point x="56" y="313"/>
      <point x="72" y="297"/>
      <point x="72" y="284" type="qcurve" smooth="yes"/>
      <point x="72" y="279"/>
      <point x="71" y="271"/>
      <point x="71" y="266" type="qcurve" smooth="yes"/>
      <point x="71" y="230"/>
      <point x="84" y="172"/>
      <point x="103" y="128"/>
      <point x="127" y="95"/>
      <point x="139" y="84" type="qcurve" smooth="yes"/>
      <point x="167" y="58"/>
      <point x="229" y="35"/>
      <point x="259" y="36" type="qcurve"/>
      <point x="286" y="39"/>
      <point x="339" y="47"/>
      <point x="385" y="72"/>
      <point x="421" y="118"/>
      <point x="431" y="159" type="qcurve" smooth="yes"/>
      <point x="437" y="185"/>
      <point x="442" y="259"/>
      <point x="442" y="294" type="qcurve" smooth="yes"/>
      <point x="442" y="335"/>
      <point x="439" y="395"/>
      <point x="439" y="397" type="qcurve" smooth="yes"/>
      <point x="438" y="429"/>
      <point x="433" y="526"/>
      <point x="426" y="628"/>
      <point x="418" y="721"/>
      <point x="413" y="749" type="qcurve"/>
      <point x="413" y="759"/>
      <point x="428" y="775"/>
      <point x="442" y="777" type="qcurve"/>
      <point x="452" y="777"/>
      <point x="467" y="764"/>
    </contour>
  </outline>
</glyph>
<glyph name="K" format="1">
  <advance width="672"/>
  <unicode hex="004B"/>
  <outline>
    <contour>
      <point x="461" y="316" type="qcurve" smooth="yes"/>
      <point x="470" y="301"/>
      <point x="510" y="248"/>
      <point x="557" y="187"/>
      <point x="608" y="123"/>
      <point x="649" y="70"/>
      <point x="676" y="37"/>
      <point x="676" y="36" type="qcurve" smooth="yes"/>
      <point x="683" y="29"/>
      <point x="683" y="19" type="qcurve" smooth="yes"/>
      <point x="683" y="5"/>
      <point x="672" y="-3" type="qcurve" smooth="yes"/>
      <point x="664" y="-9"/>
      <point x="655" y="-9" type="qcurve" smooth="yes"/>
      <point x="640" y="-9"/>
      <point x="633" y="1" type="qcurve" smooth="yes"/>
      <point x="631" y="3"/>
      <point x="602" y="38"/>
      <point x="560" y="91"/>
      <point x="510" y="155"/>
      <point x="463" y="217"/>
      <point x="424" y="270"/>
      <point x="414" y="286" type="qcurve" smooth="yes"/>
      <point x="400" y="309"/>
      <point x="365" y="364"/>
      <point x="328" y="418"/>
      <point x="291" y="467"/>
      <point x="274" y="485" type="qcurve"/>
      <point x="245" y="452"/>
      <point x="194" y="390"/>
      <point x="154" y="341"/>
      <point x="142" y="326" type="qcurve" smooth="yes"/>
      <point x="130" y="310" type="line" smooth="yes"/>
      <point x="126" y="305"/>
      <point x="120" y="302" type="qcurve"/>
      <point x="123" y="258"/>
      <point x="133" y="161"/>
      <point x="141" y="77"/>
      <point x="147" y="21"/>
      <point x="147" y="19" type="qcurve" smooth="yes"/>
      <point x="147" y="8"/>
      <point x="133" y="-8"/>
      <point x="119" y="-9" type="qcurve" smooth="yes"/>
      <point x="108" y="-9"/>
      <point x="93" y="5"/>
      <point x="92" y="16" type="qcurve" smooth="yes"/>
      <point x="91" y="19"/>
      <point x="86" y="67"/>
      <point x="79" y="138"/>
      <point x="71" y="224"/>
      <point x="64" y="307"/>
      <point x="59" y="377"/>
      <point x="59" y="397" type="qcurve" smooth="yes"/>
      <point x="59" y="427"/>
      <point x="54" y="521"/>
      <point x="46" y="620"/>
      <point x="36" y="710"/>
      <point x="31" y="737" type="qcurve"/>
      <point x="31" y="747"/>
      <point x="45" y="763"/>
      <point x="59" y="765" type="qcurve"/>
      <point x="69" y="765"/>
      <point x="84" y="753"/>
      <point x="86" y="743" type="qcurve" smooth="yes"/>
      <point x="92" y="715"/>
      <point x="102" y="622"/>
      <point x="110" y="520"/>
      <point x="115" y="425"/>
      <point x="115" y="397" type="qcurve" smooth="yes"/>
      <point x="115" y="381" type="line"/>
      <point x="129" y="399"/>
      <point x="169" y="448"/>
      <point x="214" y="502"/>
      <point x="264" y="559"/>
      <point x="288" y="585" type="qcurve" smooth="yes"/>
      <point x="324" y="624"/>
      <point x="385" y="684"/>
      <point x="430" y="725"/>
      <point x="456" y="747"/>
      <point x="457" y="748" type="qcurve" smooth="yes"/>
      <point x="464" y="754"/>
      <point x="475" y="754" type="qcurve" smooth="yes"/>
      <point x="488" y="754"/>
      <point x="497" y="744" type="qcurve" smooth="yes"/>
      <point x="503" y="736"/>
      <point x="503" y="726" type="qcurve" smooth="yes"/>
      <point x="503" y="713"/>
      <point x="493" y="705" type="qcurve" smooth="yes"/>
      <point x="492" y="704"/>
      <point x="400" y="622"/>
      <point x="329" y="547" type="qcurve" smooth="yes"/>
      <point x="324" y="542"/>
      <point x="316" y="532"/>
      <point x="311" y="527" type="qcurve"/>
      <point x="330" y="508"/>
      <point x="371" y="455"/>
      <point x="410" y="397"/>
      <point x="446" y="340"/>
    </contour>
  </outline>
</glyph>
<glyph name="L" format="1">
  <advance width="574"/>
  <unicode hex="004C"/>
  <outline>
    <contour>
      <point x="577" y="51" type="qcurve" smooth="yes"/>
      <point x="588" y="49"/>
      <point x="600" y="32"/>
      <point x="599" y="18" type="qcurve"/>
      <point x="594" y="-5"/>
      <point x="566" y="-4" type="qcurve" smooth="yes"/>
      <point x="565" y="-4"/>
      <point x="474" y="9"/>
      <point x="397" y="9" type="qcurve" smooth="yes"/>
      <point x="358" y="9"/>
      <point x="276" y="3"/>
      <point x="208" y="-3"/>
      <point x="164" y="-9"/>
      <point x="163" y="-9" type="qcurve" smooth="yes"/>
      <point x="160" y="-9" type="line"/>
      <point x="150" y="-8" type="line" smooth="yes"/>
      <point x="148" y="-8"/>
      <point x="144" y="-9"/>
      <point x="140" y="-9" type="qcurve" smooth="yes"/>
      <point x="129" y="-9"/>
      <point x="114" y="5"/>
      <point x="112" y="16" type="qcurve" smooth="yes"/>
      <point x="112" y="19"/>
      <point x="107" y="67"/>
      <point x="99" y="138"/>
      <point x="91" y="224"/>
      <point x="84" y="307"/>
      <point x="79" y="377"/>
      <point x="79" y="397" type="qcurve" smooth="yes"/>
      <point x="79" y="427"/>
      <point x="74" y="521"/>
      <point x="66" y="620"/>
      <point x="56" y="710"/>
      <point x="51" y="737" type="qcurve"/>
      <point x="51" y="747"/>
      <point x="65" y="763"/>
      <point x="79" y="765" type="qcurve"/>
      <point x="89" y="765"/>
      <point x="105" y="753"/>
      <point x="107" y="743" type="qcurve" smooth="yes"/>
      <point x="112" y="715"/>
      <point x="122" y="622"/>
      <point x="130" y="520"/>
      <point x="135" y="425"/>
      <point x="135" y="397" type="qcurve" smooth="yes"/>
      <point x="135" y="373"/>
      <point x="142" y="279"/>
      <point x="152" y="174"/>
      <point x="162" y="76"/>
      <point x="165" y="48" type="qcurve"/>
      <point x="177" y="49"/>
      <point x="226" y="55"/>
      <point x="290" y="61"/>
      <point x="362" y="65"/>
      <point x="397" y="65" type="qcurve" smooth="yes"/>
      <point x="478" y="65"/>
      <point x="575" y="51"/>
    </contour>
  </outline>
</glyph>
<glyph name="M" format="1">
  <advance width="911"/>
  <unicode hex="004D"/>
  <outline>
    <contour>
      <point x="807" y="397" type="qcurve" smooth="yes"/>
      <point x="807" y="378"/>
      <point x="812" y="308"/>
      <point x="819" y="225"/>
      <point x="827" y="138"/>
      <point x="834" y="67"/>
      <point x="839" y="20"/>
      <point x="839" y="19" type="qcurve" smooth="yes"/>
      <point x="839" y="8"/>
      <point x="825" y="-8"/>
      <point x="811" y="-9" type="qcurve" smooth="yes"/>
      <point x="800" y="-9"/>
      <point x="785" y="5"/>
      <point x="783" y="16" type="qcurve" smooth="yes"/>
      <point x="783" y="19"/>
      <point x="778" y="67"/>
      <point x="771" y="138"/>
      <point x="763" y="224"/>
      <point x="756" y="307"/>
      <point x="751" y="377"/>
      <point x="751" y="397" type="qcurve" smooth="yes"/>
      <point x="751" y="418"/>
      <point x="749" y="478"/>
      <point x="744" y="546"/>
      <point x="738" y="616"/>
      <point x="735" y="647" type="qcurve"/>
      <point x="711" y="606"/>
      <point x="653" y="523"/>
      <point x="630" y="490" type="qcurve" smooth="yes"/>
      <point x="620" y="476"/>
      <point x="586" y="420"/>
      <point x="547" y="352"/>
      <point x="508" y="281"/>
      <point x="475" y="223"/>
      <point x="454" y="185"/>
      <point x="454" y="184" type="qcurve" smooth="yes"/>
      <point x="446" y="170"/>
      <point x="430" y="170" type="qcurve" smooth="yes"/>
      <point x="423" y="170"/>
      <point x="416" y="173" type="qcurve" smooth="yes"/>
      <point x="402" y="181"/>
      <point x="402" y="198" type="qcurve" smooth="yes"/>
      <point x="402" y="205"/>
      <point x="405" y="211" type="qcurve" smooth="yes"/>
      <point x="420" y="245" type="line"/>
      <point x="418" y="247"/>
      <point x="390" y="282"/>
      <point x="348" y="335"/>
      <point x="297" y="399"/>
      <point x="250" y="461"/>
      <point x="211" y="514"/>
      <point x="201" y="530" type="qcurve" smooth="yes"/>
      <point x="184" y="558"/>
      <point x="141" y="626"/>
      <point x="118" y="658" type="qcurve"/>
      <point x="122" y="625"/>
      <point x="128" y="550"/>
      <point x="132" y="479"/>
      <point x="135" y="418"/>
      <point x="135" y="397" type="qcurve" smooth="yes"/>
      <point x="135" y="378"/>
      <point x="140" y="308"/>
      <point x="147" y="225"/>
      <point x="155" y="138"/>
      <point x="163" y="67"/>
      <point x="168" y="20"/>
      <point x="168" y="19" type="qcurve" smooth="yes"/>
      <point x="168" y="8"/>
      <point x="153" y="-8"/>
      <point x="140" y="-9" type="qcurve" smooth="yes"/>
      <point x="129" y="-9"/>
      <point x="114" y="5"/>
      <point x="112" y="16" type="qcurve" smooth="yes"/>
      <point x="112" y="19"/>
      <point x="107" y="67"/>
      <point x="99" y="138"/>
      <point x="91" y="224"/>
      <point x="84" y="307"/>
      <point x="79" y="377"/>
      <point x="79" y="397" type="qcurve" smooth="yes"/>
      <point x="79" y="427"/>
      <point x="74" y="521"/>
      <point x="66" y="620"/>
      <point x="56" y="710"/>
      <point x="51" y="737" type="qcurve" smooth="yes"/>
      <point x="51" y="739"/>
      <point x="52" y="744"/>
      <point x="51" y="751" type="qcurve"/>
      <point x="51" y="763"/>
      <point x="59" y="771" type="qcurve"/>
      <point x="69" y="779"/>
      <point x="79" y="779" type="qcurve" smooth="yes"/>
      <point x="91" y="779"/>
      <point x="99" y="771" type="qcurve" smooth="yes"/>
      <point x="118" y="752"/>
      <point x="158" y="699"/>
      <point x="197" y="642"/>
      <point x="234" y="584"/>
      <point x="249" y="560" type="qcurve" smooth="yes"/>
      <point x="261" y="541"/>
      <point x="315" y="468"/>
      <point x="377" y="388"/>
      <point x="436" y="315"/>
      <point x="451" y="296" type="qcurve"/>
      <point x="467" y="326"/>
      <point x="506" y="393"/>
      <point x="542" y="456"/>
      <point x="574" y="509"/>
      <point x="584" y="523" type="qcurve" smooth="yes"/>
      <point x="600" y="545"/>
      <point x="638" y="599"/>
      <point x="674" y="654"/>
      <point x="706" y="708"/>
      <point x="715" y="731" type="qcurve" smooth="yes"/>
      <point x="717" y="736"/>
      <point x="723" y="742" type="qcurve"/>
      <point x="726" y="761"/>
      <point x="751" y="765" type="qcurve"/>
      <point x="773" y="765"/>
      <point x="778" y="743" type="qcurve" smooth="yes"/>
      <point x="784" y="715"/>
      <point x="794" y="622"/>
      <point x="802" y="520"/>
      <point x="807" y="425"/>
    </contour>
  </outline>
</glyph>
<glyph name="N" format="1">
  <advance width="696"/>
  <unicode hex="004E"/>
  <outline>
    <contour>
      <point x="581" y="397" type="qcurve" smooth="yes"/>
      <point x="581" y="378"/>
      <point x="586" y="308"/>
      <point x="593" y="225"/>
      <point x="601" y="138"/>
      <point x="609" y="67"/>
      <point x="614" y="20"/>
      <point x="614" y="19" type="qcurve" smooth="yes"/>
      <point x="614" y="0"/>
      <point x="593" y="-10" type="qcurve" smooth="yes"/>
      <point x="586" y="-14"/>
      <point x="578" y="-14" type="qcurve" smooth="yes"/>
      <point x="563" y="-14"/>
      <point x="554" y="-2" type="qcurve" smooth="yes"/>
      <point x="536" y="25" type="line"/>
      <point x="497" y="84,5" type="line"/>
      <point x="445,5" y="163" type="line"/>
      <point x="391" y="247" type="line"/>
      <point x="343" y="323" type="line"/>
      <point x="310" y="378" type="line" smooth="yes"/>
      <point x="294" y="406"/>
      <point x="243" y="491"/>
      <point x="186" y="581"/>
      <point x="130" y="667"/>
      <point x="109" y="696" type="qcurve"/>
      <point x="113" y="663"/>
      <point x="121" y="579"/>
      <point x="127" y="495"/>
      <point x="130" y="421"/>
      <point x="130" y="397" type="qcurve" smooth="yes"/>
      <point x="130" y="378"/>
      <point x="135" y="308"/>
      <point x="142" y="225"/>
      <point x="150" y="138"/>
      <point x="158" y="67"/>
      <point x="163" y="20"/>
      <point x="163" y="19" type="qcurve" smooth="yes"/>
      <point x="163" y="8"/>
      <point x="148" y="-8"/>
      <point x="135" y="-9" type="qcurve" smooth="yes"/>
      <point x="124" y="-9"/>
      <point x="108" y="5"/>
      <point x="107" y="16" type="qcurve" smooth="yes"/>
      <point x="107" y="19"/>
      <point x="102" y="67"/>
      <point x="94" y="138"/>
      <point x="86" y="224"/>
      <point x="79" y="307"/>
      <point x="74" y="377"/>
      <point x="74" y="397" type="qcurve" smooth="yes"/>
      <point x="74" y="427"/>
      <point x="69" y="521"/>
      <point x="61" y="620"/>
      <point x="51" y="710"/>
      <point x="46" y="737" type="qcurve"/>
      <point x="46" y="747"/>
      <point x="60" y="763"/>
      <point x="74" y="765" type="qcurve"/>
      <point x="82" y="765"/>
      <point x="95" y="759"/>
      <point x="100" y="755" type="qcurve"/>
      <point x="108" y="760"/>
      <point x="117" y="760" type="qcurve" smooth="yes"/>
      <point x="131" y="760"/>
      <point x="140" y="749" type="qcurve" smooth="yes"/>
      <point x="154" y="731"/>
      <point x="191" y="676"/>
      <point x="233" y="612"/>
      <point x="276" y="544"/>
      <point x="316" y="480"/>
      <point x="348" y="424"/>
      <point x="359" y="405" type="qcurve" smooth="yes"/>
      <point x="370" y="385"/>
      <point x="414" y="315"/>
      <point x="468" y="231"/>
      <point x="525" y="144"/>
      <point x="548" y="109" type="qcurve"/>
      <point x="544" y="145"/>
      <point x="536" y="229"/>
      <point x="529" y="309"/>
      <point x="525" y="377"/>
      <point x="525" y="397" type="qcurve" smooth="yes"/>
      <point x="525" y="427"/>
      <point x="520" y="521"/>
      <point x="512" y="620"/>
      <point x="502" y="710"/>
      <point x="497" y="737" type="qcurve"/>
      <point x="497" y="747"/>
      <point x="511" y="763"/>
      <point x="525" y="765" type="qcurve"/>
      <point x="535" y="765"/>
      <point x="551" y="753"/>
      <point x="553" y="743" type="qcurve" smooth="yes"/>
      <point x="558" y="715"/>
      <point x="568" y="622"/>
      <point x="576" y="520"/>
      <point x="581" y="425"/>
    </contour>
  </outline>
</glyph>
<glyph name="O" format="1">
  <advance width="726"/>
  <unicode hex="004F"/>
  <outline>
    <contour>
      <point x="578" y="219" type="qcurve" smooth="yes"/>
      <point x="592" y="247"/>
      <point x="624" y="338"/>
      <point x="624" y="395" type="qcurve" smooth="yes"/>
      <point x="624" y="439"/>
      <point x="611" y="484" type="qcurve" smooth="yes"/>
      <point x="599" y="523"/>
      <point x="566" y="586"/>
      <point x="528" y="635"/>
      <point x="489" y="671"/>
      <point x="472" y="683" type="qcurve" smooth="yes"/>
      <point x="435" y="709"/>
      <point x="372" y="729"/>
      <point x="351" y="729" type="qcurve"/>
      <point x="322" y="720"/>
      <point x="284" y="702"/>
      <point x="283" y="702" type="qcurve" smooth="yes"/>
      <point x="277" y="699"/>
      <point x="270" y="699" type="qcurve" smooth="yes"/>
      <point x="257" y="699"/>
      <point x="250" y="708" type="qcurve"/>
      <point x="215" y="689"/>
      <point x="151" y="589"/>
      <point x="130" y="517" type="qcurve" smooth="yes"/>
      <point x="116" y="470"/>
      <point x="102" y="376"/>
      <point x="102" y="331" type="qcurve" smooth="yes"/>
      <point x="102" y="268"/>
      <point x="116" y="220" type="qcurve" smooth="yes"/>
      <point x="126" y="188"/>
      <point x="156" y="140"/>
      <point x="192" y="107"/>
      <point x="231" y="86"/>
      <point x="248" y="80" type="qcurve" smooth="yes"/>
      <point x="294" y="63"/>
      <point x="346" y="63" type="qcurve" smooth="yes"/>
      <point x="391" y="63"/>
      <point x="432" y="75" type="qcurve" smooth="yes"/>
      <point x="463" y="84"/>
      <point x="544" y="156"/>
    </contour>
    <contour>
      <point x="504" y="728" type="qcurve" smooth="yes"/>
      <point x="524" y="714"/>
      <point x="569" y="672"/>
      <point x="613" y="616"/>
      <point x="651" y="545"/>
      <point x="665" y="500" type="qcurve" smooth="yes"/>
      <point x="680" y="449"/>
      <point x="680" y="395" type="qcurve" smooth="yes"/>
      <point x="680" y="344"/>
      <point x="653" y="242"/>
      <point x="627" y="193" type="qcurve" smooth="yes"/>
      <point x="592" y="129"/>
      <point x="496" y="36"/>
      <point x="448" y="22" type="qcurve" smooth="yes"/>
      <point x="398" y="7"/>
      <point x="346" y="7" type="qcurve" smooth="yes"/>
      <point x="286" y="7"/>
      <point x="229" y="27" type="qcurve" smooth="yes"/>
      <point x="207" y="35"/>
      <point x="159" y="62"/>
      <point x="113" y="104"/>
      <point x="74" y="163"/>
      <point x="62" y="204" type="qcurve" smooth="yes"/>
      <point x="46" y="258"/>
      <point x="46" y="331" type="qcurve" smooth="yes"/>
      <point x="46" y="379"/>
      <point x="61" y="482"/>
      <point x="76" y="533" type="qcurve" smooth="yes"/>
      <point x="104" y="629"/>
      <point x="195" y="751"/>
      <point x="249" y="768" type="qcurve" smooth="yes"/>
      <point x="264" y="772"/>
      <point x="280" y="772" type="qcurve" smooth="yes"/>
      <point x="290" y="772" type="line"/>
      <point x="300" y="770" type="line"/>
      <point x="313" y="775"/>
      <point x="335" y="782" type="qcurve" smooth="yes"/>
      <point x="345" y="785"/>
      <point x="359" y="785" type="qcurve" smooth="yes"/>
      <point x="389" y="785"/>
      <point x="466" y="755"/>
    </contour>
  </outline>
</glyph>
<glyph name="P" format="1">
  <advance width="596"/>
  <unicode hex="0050"/>
  <outline>
    <contour>
      <point x="510" y="526" type="line"/>
      <point x="510" y="543"/>
      <point x="497" y="588"/>
      <point x="469" y="632"/>
      <point x="427" y="668"/>
      <point x="399" y="676" type="qcurve" smooth="yes"/>
      <point x="345" y="690"/>
      <point x="267" y="702"/>
      <point x="235" y="702" type="qcurve" smooth="yes"/>
      <point x="200" y="702"/>
      <point x="141" y="690"/>
      <point x="106" y="682" type="qcurve"/>
      <point x="110" y="648"/>
      <point x="117" y="567"/>
      <point x="122" y="489"/>
      <point x="125" y="419"/>
      <point x="125" y="397" type="qcurve" smooth="yes"/>
      <point x="125" y="385" type="line"/>
      <point x="126" y="370" type="line"/>
      <point x="153,5" y="370" type="line"/>
      <point x="181" y="369" type="line" smooth="yes"/>
      <point x="203" y="368"/>
      <point x="224,5" y="368" type="qcurve" smooth="yes"/>
      <point x="268" y="368" type="line" smooth="yes"/>
      <point x="308" y="368"/>
      <point x="379" y="372"/>
      <point x="405" y="379" type="qcurve" smooth="yes"/>
      <point x="439" y="389"/>
      <point x="479" y="416"/>
      <point x="499" y="448"/>
      <point x="506" y="486"/>
      <point x="508" y="506" type="qcurve" smooth="yes"/>
      <point x="509" y="518" type="line"/>
    </contour>
    <contour>
      <point x="413" y="730" type="qcurve" smooth="yes"/>
      <point x="450" y="720"/>
      <point x="508" y="674"/>
      <point x="546" y="616"/>
      <point x="566" y="553"/>
      <point x="566" y="526" type="qcurve" smooth="yes"/>
      <point x="566" y="522"/>
      <point x="565" y="516"/>
      <point x="565" y="512" type="qcurve" smooth="yes"/>
      <point x="564" y="500" type="line" smooth="yes"/>
      <point x="562" y="479"/>
      <point x="552" y="430"/>
      <point x="524" y="382"/>
      <point x="468" y="339"/>
      <point x="420" y="326" type="qcurve" smooth="yes"/>
      <point x="390" y="317"/>
      <point x="313" y="312"/>
      <point x="269" y="312" type="qcurve" smooth="yes"/>
      <point x="225" y="312" type="line"/>
      <point x="180" y="313" type="line" smooth="yes"/>
      <point x="167" y="314"/>
      <point x="154,5" y="314" type="qcurve" smooth="yes"/>
      <point x="129" y="314" type="line"/>
      <point x="132" y="270"/>
      <point x="142" y="169"/>
      <point x="151" y="81"/>
      <point x="158" y="21"/>
      <point x="158" y="19" type="qcurve" smooth="yes"/>
      <point x="158" y="8"/>
      <point x="143" y="-8"/>
      <point x="130" y="-9" type="qcurve" smooth="yes"/>
      <point x="119" y="-9"/>
      <point x="103" y="5"/>
      <point x="102" y="16" type="qcurve" smooth="yes"/>
      <point x="101" y="19"/>
      <point x="96" y="67"/>
      <point x="89" y="138"/>
      <point x="81" y="224"/>
      <point x="74" y="307"/>
      <point x="69" y="377"/>
      <point x="69" y="397" type="qcurve" smooth="yes"/>
      <point x="69" y="422"/>
      <point x="66" y="494"/>
      <point x="60" y="574"/>
      <point x="53" y="653"/>
      <point x="49" y="685" type="qcurve"/>
      <point x="47" y="687"/>
      <point x="45" y="694"/>
      <point x="43" y="702" type="qcurve" smooth="yes"/>
      <point x="43" y="706"/>
      <point x="45" y="712" type="qcurve"/>
      <point x="44" y="717"/>
      <point x="43" y="729"/>
      <point x="41" y="737" type="qcurve"/>
      <point x="41" y="747"/>
      <point x="55" y="763"/>
      <point x="69" y="765" type="qcurve"/>
      <point x="79" y="765"/>
      <point x="95" y="751"/>
      <point x="97" y="737" type="qcurve"/>
      <point x="133" y="746"/>
      <point x="197" y="758"/>
      <point x="234" y="758" type="qcurve" smooth="yes"/>
      <point x="269" y="758"/>
      <point x="354" y="745"/>
    </contour>
  </outline>
</glyph>
<glyph name="Q" format="1">
  <advance width="744"/>
  <unicode hex="0051"/>
  <outline>
    <contour>
      <point x="427" y="52" type="qcurve" smooth="yes"/>
      <point x="445" y="57"/>
      <point x="490" y="87"/>
      <point x="513" y="112" type="qcurve"/>
      <point x="490" y="126"/>
      <point x="448" y="150"/>
      <point x="417" y="168"/>
      <point x="407" y="173" type="qcurve" smooth="yes"/>
      <point x="397" y="178" type="line" smooth="yes"/>
      <point x="389" y="182"/>
      <point x="382" y="195"/>
      <point x="382" y="203" type="qcurve" smooth="yes"/>
      <point x="382" y="210"/>
      <point x="385" y="216" type="qcurve" smooth="yes"/>
      <point x="389" y="224"/>
      <point x="402" y="231"/>
      <point x="410" y="231" type="qcurve" smooth="yes"/>
      <point x="417" y="231"/>
      <point x="423" y="228" type="qcurve" smooth="yes"/>
      <point x="424" y="227"/>
      <point x="445" y="216"/>
      <point x="480" y="197"/>
      <point x="524" y="171"/>
      <point x="548" y="156" type="qcurve"/>
      <point x="562" y="175"/>
      <point x="572" y="196" type="qcurve"/>
      <point x="587" y="224"/>
      <point x="619" y="315"/>
      <point x="619" y="372" type="qcurve" smooth="yes"/>
      <point x="619" y="393"/>
      <point x="613" y="437"/>
      <point x="606" y="460" type="qcurve" smooth="yes"/>
      <point x="594" y="499"/>
      <point x="561" y="562"/>
      <point x="523" y="611"/>
      <point x="484" y="647"/>
      <point x="467" y="660" type="qcurve" smooth="yes"/>
      <point x="430" y="686"/>
      <point x="367" y="706"/>
      <point x="346" y="705" type="qcurve"/>
      <point x="317" y="697"/>
      <point x="278" y="679"/>
      <point x="278" y="678" type="qcurve" smooth="yes"/>
      <point x="272" y="675"/>
      <point x="265" y="675" type="qcurve" smooth="yes"/>
      <point x="253" y="675"/>
      <point x="244" y="684" type="qcurve"/>
      <point x="209" y="666"/>
      <point x="146" y="566"/>
      <point x="125" y="494" type="qcurve" smooth="yes"/>
      <point x="111" y="447"/>
      <point x="97" y="352"/>
      <point x="97" y="307" type="qcurve" smooth="yes"/>
      <point x="97" y="245"/>
      <point x="111" y="197" type="qcurve" smooth="yes"/>
      <point x="120" y="165"/>
      <point x="151" y="117"/>
      <point x="187" y="84"/>
      <point x="226" y="62"/>
      <point x="243" y="56" type="qcurve" smooth="yes"/>
      <point x="266" y="48"/>
      <point x="315" y="40"/>
      <point x="341" y="40" type="qcurve" smooth="yes"/>
      <point x="386" y="40"/>
    </contour>
    <contour>
      <point x="629" y="102" type="qcurve" smooth="yes"/>
      <point x="696" y="54"/>
      <point x="765" y="-14"/>
      <point x="767" y="-16" type="qcurve" smooth="yes"/>
      <point x="775" y="-24"/>
      <point x="775" y="-35" type="qcurve" smooth="yes"/>
      <point x="775" y="-48"/>
      <point x="766" y="-55" type="qcurve" smooth="yes"/>
      <point x="756" y="-63"/>
      <point x="747" y="-63" type="qcurve" smooth="yes"/>
      <point x="733" y="-63"/>
      <point x="726" y="-54" type="qcurve" smooth="yes"/>
      <point x="726" y="-53"/>
      <point x="660" y="11"/>
      <point x="597" y="57" type="qcurve"/>
      <point x="561" y="81" type="line"/>
      <point x="533" y="50"/>
      <point x="472" y="7"/>
      <point x="443" y="-2" type="qcurve"/>
      <point x="392" y="-16"/>
      <point x="341" y="-16" type="qcurve" smooth="yes"/>
      <point x="311" y="-16"/>
      <point x="251" y="-7"/>
      <point x="224" y="4" type="qcurve" smooth="yes"/>
      <point x="202" y="12"/>
      <point x="154" y="39"/>
      <point x="108" y="81"/>
      <point x="69" y="140"/>
      <point x="57" y="181" type="qcurve" smooth="yes"/>
      <point x="41" y="235"/>
      <point x="41" y="308" type="qcurve" smooth="yes"/>
      <point x="41" y="356"/>
      <point x="56" y="458"/>
      <point x="71" y="509" type="qcurve" smooth="yes"/>
      <point x="99" y="606"/>
      <point x="189" y="728"/>
      <point x="244" y="744" type="qcurve" smooth="yes"/>
      <point x="252" y="747"/>
      <point x="268" y="749"/>
      <point x="275" y="749" type="qcurve" smooth="yes"/>
      <point x="280" y="749"/>
      <point x="290" y="748"/>
      <point x="295" y="747" type="qcurve"/>
      <point x="308" y="752"/>
      <point x="330" y="759" type="qcurve" smooth="yes"/>
      <point x="340" y="762"/>
      <point x="354" y="762" type="qcurve" smooth="yes"/>
      <point x="384" y="762"/>
      <point x="461" y="732"/>
      <point x="499" y="705" type="qcurve" smooth="yes"/>
      <point x="519" y="691"/>
      <point x="564" y="649"/>
      <point x="608" y="593"/>
      <point x="646" y="521"/>
      <point x="660" y="476" type="qcurve" smooth="yes"/>
      <point x="675" y="425"/>
      <point x="675" y="372" type="qcurve" smooth="yes"/>
      <point x="675" y="269"/>
      <point x="622" y="169" type="qcurve" smooth="yes"/>
      <point x="611" y="148"/>
      <point x="595" y="126" type="qcurve"/>
      <point x="604" y="120"/>
      <point x="621" y="108"/>
    </contour>
  </outline>
</glyph>
<glyph name="R" format="1">
  <advance width="665"/>
  <unicode hex="0052"/>
  <outline>
    <contour>
      <point x="192" y="369" type="line" smooth="yes"/>
      <point x="213" y="368"/>
      <point x="235" y="368" type="qcurve" smooth="yes"/>
      <point x="278" y="368" type="line" smooth="yes"/>
      <point x="319" y="368"/>
      <point x="390" y="372"/>
      <point x="415" y="379" type="qcurve" smooth="yes"/>
      <point x="450" y="389"/>
      <point x="489" y="416"/>
      <point x="509" y="448"/>
      <point x="516" y="486"/>
      <point x="518" y="506" type="qcurve" smooth="yes"/>
      <point x="520" y="526" type="line"/>
      <point x="520" y="543"/>
      <point x="507" y="588"/>
      <point x="479" y="632"/>
      <point x="437" y="668"/>
      <point x="409" y="676" type="qcurve" smooth="yes"/>
      <point x="355" y="690"/>
      <point x="277" y="702"/>
      <point x="245" y="702" type="qcurve" smooth="yes"/>
      <point x="210" y="702"/>
      <point x="151" y="690"/>
      <point x="116" y="682" type="qcurve"/>
      <point x="120" y="648"/>
      <point x="127" y="567"/>
      <point x="132" y="489"/>
      <point x="135" y="419"/>
      <point x="135" y="397" type="qcurve" smooth="yes"/>
      <point x="135" y="385" type="line"/>
      <point x="136" y="370" type="line"/>
      <point x="164" y="370" type="line"/>
    </contour>
    <contour>
      <point x="533" y="168" type="qcurve" smooth="yes"/>
      <point x="585" y="105"/>
      <point x="635" y="21"/>
      <point x="636" y="19" type="qcurve" smooth="yes"/>
      <point x="639" y="13"/>
      <point x="639" y="6" type="qcurve" smooth="yes"/>
      <point x="639" y="-2"/>
      <point x="632" y="-15"/>
      <point x="624" y="-19" type="qcurve" smooth="yes"/>
      <point x="618" y="-22"/>
      <point x="611" y="-22" type="qcurve" smooth="yes"/>
      <point x="594" y="-22"/>
      <point x="587" y="-7" type="qcurve" smooth="yes"/>
      <point x="586" y="-7"/>
      <point x="539" y="73"/>
      <point x="490" y="133" type="qcurve" smooth="yes"/>
      <point x="465" y="163"/>
      <point x="409" y="223"/>
      <point x="385" y="247" type="qcurve" smooth="yes"/>
      <point x="345" y="287" type="line"/>
      <point x="328" y="302" type="line" smooth="yes"/>
      <point x="324" y="306"/>
      <point x="321" y="312" type="qcurve"/>
      <point x="280" y="312" type="line"/>
      <point x="235" y="312" type="line"/>
      <point x="190" y="313" type="line" smooth="yes"/>
      <point x="177" y="314"/>
      <point x="164,5" y="314" type="qcurve" smooth="yes"/>
      <point x="140" y="314" type="line"/>
      <point x="143" y="270"/>
      <point x="152" y="169"/>
      <point x="161" y="81"/>
      <point x="168" y="21"/>
      <point x="168" y="19" type="qcurve" smooth="yes"/>
      <point x="168" y="8"/>
      <point x="153" y="-8"/>
      <point x="140" y="-9" type="qcurve" smooth="yes"/>
      <point x="129" y="-9"/>
      <point x="114" y="5"/>
      <point x="112" y="16" type="qcurve" smooth="yes"/>
      <point x="112" y="19"/>
      <point x="107" y="67"/>
      <point x="99" y="138"/>
      <point x="91" y="224"/>
      <point x="84" y="307"/>
      <point x="79" y="377"/>
      <point x="79" y="397" type="qcurve" smooth="yes"/>
      <point x="79" y="422"/>
      <point x="76" y="494"/>
      <point x="70" y="574"/>
      <point x="63" y="653"/>
      <point x="59" y="685" type="qcurve"/>
      <point x="57" y="687"/>
      <point x="55" y="694"/>
      <point x="53" y="702" type="qcurve" smooth="yes"/>
      <point x="53" y="706"/>
      <point x="55" y="712" type="qcurve"/>
      <point x="54" y="717"/>
      <point x="53" y="729"/>
      <point x="51" y="737" type="qcurve"/>
      <point x="51" y="747"/>
      <point x="65" y="763"/>
      <point x="79" y="765" type="qcurve"/>
      <point x="89" y="765"/>
      <point x="105" y="751"/>
      <point x="108" y="737" type="qcurve"/>
      <point x="143" y="746"/>
      <point x="207" y="758"/>
      <point x="245" y="758" type="qcurve" smooth="yes"/>
      <point x="280" y="758"/>
      <point x="364" y="745"/>
      <point x="423" y="730" type="qcurve" smooth="yes"/>
      <point x="460" y="720"/>
      <point x="518" y="674"/>
      <point x="556" y="616"/>
      <point x="576" y="553"/>
      <point x="576" y="526" type="qcurve" smooth="yes"/>
      <point x="576" y="517"/>
      <point x="575" y="512" type="qcurve" smooth="yes"/>
      <point x="574" y="500" type="line" smooth="yes"/>
      <point x="572" y="479"/>
      <point x="562" y="430"/>
      <point x="534" y="382"/>
      <point x="478" y="339"/>
      <point x="430" y="326" type="qcurve" smooth="yes"/>
      <point x="422" y="323"/>
      <point x="403" y="320"/>
      <point x="392" y="318" type="qcurve"/>
      <point x="405" y="306"/>
      <point x="439" y="272"/>
      <point x="476" y="233"/>
      <point x="515" y="190"/>
    </contour>
  </outline>
</glyph>
<glyph name="T" format="1">
  <advance width="491"/>
  <unicode hex="0054"/>
  <outline>
    <contour>
      <point x="553" y="741" type="qcurve" smooth="yes"/>
      <point x="564" y="740"/>
      <point x="578" y="723"/>
      <point x="577" y="710" type="qcurve" smooth="yes"/>
      <point x="576" y="699"/>
      <point x="560" y="686"/>
      <point x="546" y="686" type="qcurve"/>
      <point x="527" y="688" type="line" smooth="yes"/>
      <point x="507" y="690"/>
      <point x="435" y="696"/>
      <point x="334" y="700"/>
      <point x="272" y="700" type="qcurve" smooth="yes"/>
      <point x="257" y="700" type="line"/>
      <point x="242" y="699" type="line"/>
      <point x="246" y="666"/>
      <point x="255" y="579"/>
      <point x="261" y="491"/>
      <point x="265" y="412"/>
      <point x="265" y="387" type="qcurve" smooth="yes"/>
      <point x="265" y="368"/>
      <point x="270" y="298"/>
      <point x="277" y="215"/>
      <point x="285" y="128"/>
      <point x="293" y="57"/>
      <point x="298" y="10"/>
      <point x="298" y="9" type="qcurve" smooth="yes"/>
      <point x="298" y="-2"/>
      <point x="283" y="-17"/>
      <point x="270" y="-19" type="qcurve"/>
      <point x="259" y="-19"/>
      <point x="243" y="-5"/>
      <point x="242" y="6" type="qcurve" smooth="yes"/>
      <point x="242" y="9"/>
      <point x="236" y="57"/>
      <point x="229" y="128"/>
      <point x="221" y="214"/>
      <point x="214" y="297"/>
      <point x="209" y="367"/>
      <point x="209" y="387" type="qcurve" smooth="yes"/>
      <point x="209" y="414"/>
      <point x="205" y="496"/>
      <point x="198" y="584"/>
      <point x="190" y="668"/>
      <point x="186" y="698" type="qcurve"/>
      <point x="132" y="696"/>
      <point x="28" y="691"/>
      <point x="-53" y="685"/>
      <point x="-104" y="681"/>
      <point x="-105" y="681" type="qcurve" smooth="yes"/>
      <point x="-116" y="680"/>
      <point x="-132" y="696"/>
      <point x="-133" y="709" type="qcurve" smooth="yes"/>
      <point x="-133" y="720"/>
      <point x="-119" y="736"/>
      <point x="-108" y="737" type="qcurve" smooth="yes"/>
      <point x="-107" y="737"/>
      <point x="-53" y="741"/>
      <point x="35" y="747"/>
      <point x="146" y="753"/>
      <point x="203" y="755" type="qcurve" smooth="yes"/>
      <point x="205" y="755"/>
      <point x="209" y="756"/>
      <point x="215" y="755" type="qcurve"/>
      <point x="229" y="755"/>
      <point x="258" y="756"/>
      <point x="272" y="756" type="qcurve" smooth="yes"/>
      <point x="336" y="756"/>
      <point x="438" y="752"/>
      <point x="511" y="746"/>
      <point x="551" y="741"/>
    </contour>
  </outline>
</glyph>
<glyph name="V" format="1">
  <advance width="638"/>
  <unicode hex="0056"/>
  <outline>
    <contour>
      <point x="623" y="762" type="qcurve"/>
      <point x="638" y="754"/>
      <point x="638" y="737" type="qcurve" smooth="yes"/>
      <point x="638" y="731"/>
      <point x="634" y="724" type="qcurve" smooth="yes"/>
      <point x="621" y="699"/>
      <point x="583" y="611"/>
      <point x="544" y="513"/>
      <point x="509" y="419"/>
      <point x="499" y="388" type="qcurve" smooth="yes"/>
      <point x="492" y="368"/>
      <point x="465" y="298"/>
      <point x="431" y="215"/>
      <point x="396" y="130"/>
      <point x="365" y="59"/>
      <point x="344" y="11"/>
      <point x="343" y="8" type="qcurve" smooth="yes"/>
      <point x="337" y="-7"/>
      <point x="321" y="-9" type="qcurve"/>
      <point x="315" y="-15"/>
      <point x="311" y="-17" type="qcurve" smooth="yes"/>
      <point x="303" y="-19"/>
      <point x="300" y="-19" type="qcurve" smooth="yes"/>
      <point x="292" y="-19"/>
      <point x="277" y="-10"/>
      <point x="274" y="-2" type="qcurve" smooth="yes"/>
      <point x="273" y="1"/>
      <point x="252" y="49"/>
      <point x="222" y="120"/>
      <point x="186" y="206"/>
      <point x="152" y="288"/>
      <point x="125" y="358"/>
      <point x="119" y="378" type="qcurve" smooth="yes"/>
      <point x="109" y="409"/>
      <point x="73" y="503"/>
      <point x="34" y="601"/>
      <point x="-4" y="690"/>
      <point x="-17" y="715" type="qcurve" smooth="yes"/>
      <point x="-20" y="721"/>
      <point x="-20" y="728" type="qcurve" smooth="yes"/>
      <point x="-20" y="744"/>
      <point x="-5" y="752" type="qcurve"/>
      <point x="0" y="756"/>
      <point x="8" y="756" type="qcurve" smooth="yes"/>
      <point x="24" y="756"/>
      <point x="32" y="741" type="qcurve" smooth="yes"/>
      <point x="47" y="713"/>
      <point x="87" y="620"/>
      <point x="127" y="519"/>
      <point x="163" y="424"/>
      <point x="172" y="396" type="qcurve" smooth="yes"/>
      <point x="179" y="373"/>
      <point x="213" y="288"/>
      <point x="253" y="191"/>
      <point x="292" y="96"/>
      <point x="306" y="64" type="qcurve"/>
      <point x="315" y="84"/>
      <point x="340" y="142"/>
      <point x="367" y="207"/>
      <point x="396" y="276"/>
      <point x="421" y="338"/>
      <point x="440" y="390"/>
      <point x="445" y="405" type="qcurve" smooth="yes"/>
      <point x="454" y="434"/>
      <point x="490" y="528"/>
      <point x="530" y="630"/>
      <point x="571" y="723"/>
      <point x="585" y="750" type="qcurve" smooth="yes"/>
      <point x="589" y="758"/>
      <point x="602" y="765"/>
      <point x="610" y="765" type="qcurve" smooth="yes"/>
      <point x="615" y="765"/>
    </contour>
  </outline>
</glyph>
<glyph name="W" format="1">
  <advance width="1209"/>
  <unicode hex="0057"/>
  <outline>
    <contour>
      <point x="1204" y="762" type="qcurve" smooth="yes"/>
      <point x="1219" y="754"/>
      <point x="1219" y="737" type="qcurve" smooth="yes"/>
      <point x="1219" y="731"/>
      <point x="1216" y="724" type="qcurve" smooth="yes"/>
      <point x="1203" y="699"/>
      <point x="1165" y="611"/>
      <point x="1125" y="513"/>
      <point x="1090" y="419"/>
      <point x="1080" y="388" type="qcurve" smooth="yes"/>
      <point x="1074" y="368"/>
      <point x="1047" y="298"/>
      <point x="1013" y="215"/>
      <point x="977" y="130"/>
      <point x="947" y="59"/>
      <point x="926" y="11"/>
      <point x="925" y="8" type="qcurve" smooth="yes"/>
      <point x="919" y="-7"/>
      <point x="903" y="-9" type="qcurve"/>
      <point x="898" y="-14"/>
      <point x="892" y="-17" type="qcurve" smooth="yes"/>
      <point x="886" y="-19"/>
      <point x="881" y="-19" type="qcurve" smooth="yes"/>
      <point x="863" y="-19"/>
      <point x="855" y="-2" type="qcurve" smooth="yes"/>
      <point x="854" y="1"/>
      <point x="833" y="49"/>
      <point x="803" y="120"/>
      <point x="767" y="206"/>
      <point x="734" y="288"/>
      <point x="706" y="358"/>
      <point x="700" y="378" type="qcurve" smooth="yes"/>
      <point x="692" y="403"/>
      <point x="666" y="476"/>
      <point x="634" y="556"/>
      <point x="601" y="635"/>
      <point x="587" y="667" type="qcurve"/>
      <point x="573" y="635"/>
      <point x="541" y="558"/>
      <point x="511" y="482"/>
      <point x="486" y="412"/>
      <point x="478" y="388" type="qcurve" smooth="yes"/>
      <point x="472" y="368"/>
      <point x="444" y="298"/>
      <point x="411" y="215"/>
      <point x="375" y="130"/>
      <point x="345" y="59"/>
      <point x="324" y="11"/>
      <point x="323" y="8" type="qcurve" smooth="yes"/>
      <point x="317" y="-7"/>
      <point x="300" y="-9" type="qcurve"/>
      <point x="297" y="-14"/>
      <point x="290" y="-17" type="qcurve" smooth="yes"/>
      <point x="287" y="-18"/>
      <point x="282" y="-19"/>
      <point x="279" y="-19" type="qcurve" smooth="yes"/>
      <point x="261" y="-19"/>
      <point x="253" y="-2" type="qcurve" smooth="yes"/>
      <point x="252" y="1"/>
      <point x="231" y="49"/>
      <point x="201" y="120"/>
      <point x="165" y="206"/>
      <point x="132" y="288"/>
      <point x="104" y="358"/>
      <point x="98" y="378" type="qcurve" smooth="yes"/>
      <point x="88" y="409"/>
      <point x="53" y="503"/>
      <point x="14" y="601"/>
      <point x="-25" y="690"/>
      <point x="-38" y="715" type="qcurve" smooth="yes"/>
      <point x="-41" y="721"/>
      <point x="-41" y="728" type="qcurve" smooth="yes"/>
      <point x="-41" y="744"/>
      <point x="-26" y="752" type="qcurve"/>
      <point x="-21" y="756"/>
      <point x="-13" y="756" type="qcurve" smooth="yes"/>
      <point x="4" y="756"/>
      <point x="12" y="741" type="qcurve" smooth="yes"/>
      <point x="26" y="713"/>
      <point x="66" y="620"/>
      <point x="107" y="519"/>
      <point x="142" y="424"/>
      <point x="151" y="396" type="qcurve" smooth="yes"/>
      <point x="158" y="373"/>
      <point x="192" y="288"/>
      <point x="232" y="191"/>
      <point x="272" y="96"/>
      <point x="286" y="64" type="qcurve"/>
      <point x="299" y="94"/>
      <point x="340" y="191"/>
      <point x="382" y="292"/>
      <point x="417" y="382"/>
      <point x="425" y="405" type="qcurve" smooth="yes"/>
      <point x="434" y="434"/>
      <point x="469" y="528"/>
      <point x="509" y="630"/>
      <point x="550" y="723"/>
      <point x="564" y="750" type="qcurve" smooth="yes"/>
      <point x="568" y="758"/>
      <point x="581" y="765"/>
      <point x="589" y="765" type="qcurve" smooth="yes"/>
      <point x="596" y="765"/>
      <point x="602" y="762" type="qcurve" smooth="yes"/>
      <point x="617" y="754"/>
      <point x="617" y="735" type="qcurve"/>
      <point x="632" y="706"/>
      <point x="671" y="613"/>
      <point x="710" y="515"/>
      <point x="744" y="424"/>
      <point x="753" y="396" type="qcurve" smooth="yes"/>
      <point x="760" y="373"/>
      <point x="794" y="288"/>
      <point x="834" y="191"/>
      <point x="874" y="96"/>
      <point x="888" y="64" type="qcurve"/>
      <point x="901" y="94"/>
      <point x="942" y="191"/>
      <point x="984" y="292"/>
      <point x="1019" y="382"/>
      <point x="1027" y="405" type="qcurve" smooth="yes"/>
      <point x="1036" y="434"/>
      <point x="1071" y="528"/>
      <point x="1111" y="630"/>
      <point x="1152" y="723"/>
      <point x="1166" y="750" type="qcurve" smooth="yes"/>
      <point x="1170" y="758"/>
      <point x="1183" y="765"/>
      <point x="1191" y="765" type="qcurve" smooth="yes"/>
      <point x="1198" y="765"/>
    </contour>
  </outline>
</glyph>
<glyph name="X" format="1">
  <advance width="611"/>
  <unicode hex="0058"/>
  <outline>
    <contour>
      <point x="402" y="312"/>
      <point x="454" y="229"/>
      <point x="510" y="144"/>
      <point x="556" y="74"/>
      <point x="585" y="29"/>
      <point x="586" y="28" type="qcurve" smooth="yes"/>
      <point x="591" y="21"/>
      <point x="591" y="13" type="qcurve" smooth="yes"/>
      <point x="591" y="-2"/>
      <point x="578" y="-10" type="qcurve" smooth="yes"/>
      <point x="571" y="-15"/>
      <point x="563" y="-15" type="qcurve" smooth="yes"/>
      <point x="548" y="-15"/>
      <point x="540" y="-2" type="qcurve" smooth="yes"/>
      <point x="524" y="22" type="line"/>
      <point x="489" y="75" type="line"/>
      <point x="442,5" y="146" type="line"/>
      <point x="391,5" y="224" type="line"/>
      <point x="344" y="298" type="line"/>
      <point x="308" y="357" type="line"/>
      <point x="294" y="333"/>
      <point x="250" y="263"/>
      <point x="200" y="185"/>
      <point x="148" y="107"/>
      <point x="106" y="43"/>
      <point x="92" y="22" type="qcurve" smooth="yes"/>
      <point x="76" y="-2" type="line" smooth="yes"/>
      <point x="68" y="-15"/>
      <point x="53" y="-15" type="qcurve" smooth="yes"/>
      <point x="46" y="-15"/>
      <point x="38" y="-10" type="qcurve" smooth="yes"/>
      <point x="26" y="-3"/>
      <point x="26" y="13" type="qcurve" smooth="yes"/>
      <point x="26" y="23"/>
      <point x="30" y="28" type="qcurve" smooth="yes"/>
      <point x="30" y="29"/>
      <point x="60" y="74"/>
      <point x="106" y="144"/>
      <point x="162" y="229"/>
      <point x="215" y="311"/>
      <point x="258" y="381"/>
      <point x="269" y="400" type="qcurve" smooth="yes"/>
      <point x="276" y="412" type="line"/>
      <point x="256" y="446"/>
      <point x="203" y="531"/>
      <point x="150" y="613"/>
      <point x="102" y="685"/>
      <point x="86" y="706" type="qcurve" smooth="yes"/>
      <point x="81" y="714"/>
      <point x="81" y="723" type="qcurve" smooth="yes"/>
      <point x="81" y="736"/>
      <point x="92" y="745" type="qcurve"/>
      <point x="100" y="750"/>
      <point x="109" y="750" type="qcurve" smooth="yes"/>
      <point x="122" y="750"/>
      <point x="131" y="739" type="qcurve" smooth="yes"/>
      <point x="147" y="718"/>
      <point x="191" y="653"/>
      <point x="239" y="578"/>
      <point x="288" y="500"/>
      <point x="308" y="467" type="qcurve"/>
      <point x="328" y="500"/>
      <point x="377" y="578"/>
      <point x="426" y="653"/>
      <point x="470" y="718"/>
      <point x="486" y="739" type="qcurve" smooth="yes"/>
      <point x="494" y="750"/>
      <point x="508" y="750" type="qcurve" smooth="yes"/>
      <point x="517" y="750"/>
      <point x="525" y="745" type="qcurve"/>
      <point x="535" y="736"/>
      <point x="535" y="723" type="qcurve" smooth="yes"/>
      <point x="535" y="712"/>
      <point x="530" y="706" type="qcurve" smooth="yes"/>
      <point x="514" y="685"/>
      <point x="466" y="613"/>
      <point x="413" y="531"/>
      <point x="360" y="446"/>
      <point x="340" y="412" type="qcurve"/>
      <point x="347" y="400" type="line" smooth="yes"/>
      <point x="358" y="381"/>
    </contour>
  </outline>
</glyph>
<glyph name="Z" format="1">
  <advance width="644"/>
  <unicode hex="005A"/>
  <outline>
    <contour>
      <point x="681" y="29" type="qcurve" smooth="yes"/>
      <point x="692" y="27"/>
      <point x="706" y="11"/>
      <point x="705" y="-3" type="qcurve" smooth="yes"/>
      <point x="704" y="-14"/>
      <point x="688" y="-27"/>
      <point x="674" y="-27" type="qcurve"/>
      <point x="655" y="-25" type="line" smooth="yes"/>
      <point x="635" y="-23"/>
      <point x="563" y="-17"/>
      <point x="462" y="-13"/>
      <point x="400" y="-13" type="qcurve" smooth="yes"/>
      <point x="358" y="-13"/>
      <point x="270" y="-16"/>
      <point x="187" y="-20"/>
      <point x="113" y="-25"/>
      <point x="57" y="-29"/>
      <point x="24" y="-32"/>
      <point x="23" y="-32" type="qcurve" smooth="yes"/>
      <point x="12" y="-32"/>
      <point x="-4" y="-17"/>
      <point x="-5" y="-4" type="qcurve" smooth="yes"/>
      <point x="-5" y="7"/>
      <point x="9" y="23"/>
      <point x="20" y="24" type="qcurve"/>
      <point x="36" y="34" type="line" smooth="yes"/>
      <point x="36" y="35"/>
      <point x="66" y="80"/>
      <point x="113" y="151"/>
      <point x="169" y="237"/>
      <point x="222" y="320"/>
      <point x="266" y="391"/>
      <point x="277" y="410" type="qcurve" smooth="yes"/>
      <point x="290" y="434"/>
      <point x="334" y="506"/>
      <point x="385" y="588"/>
      <point x="439" y="671"/>
      <point x="462" y="704" type="qcurve"/>
      <point x="441" y="707"/>
      <point x="367" y="714"/>
      <point x="316" y="714" type="qcurve" smooth="yes"/>
      <point x="277" y="714"/>
      <point x="195" y="708"/>
      <point x="126" y="701"/>
      <point x="81" y="695"/>
      <point x="79" y="695" type="qcurve" smooth="yes"/>
      <point x="68" y="695"/>
      <point x="53" y="709"/>
      <point x="51" y="723" type="qcurve"/>
      <point x="51" y="734"/>
      <point x="64" y="749"/>
      <point x="75" y="751" type="qcurve" smooth="yes"/>
      <point x="77" y="751"/>
      <point x="122" y="757"/>
      <point x="191" y="764"/>
      <point x="275" y="770"/>
      <point x="316" y="770" type="qcurve" smooth="yes"/>
      <point x="398" y="770"/>
      <point x="495" y="756"/>
      <point x="498" y="755" type="qcurve"/>
      <point x="505" y="765"/>
      <point x="519" y="765" type="qcurve" smooth="yes"/>
      <point x="528" y="765"/>
      <point x="536" y="760" type="qcurve"/>
      <point x="547" y="751"/>
      <point x="547" y="737" type="qcurve" smooth="yes"/>
      <point x="547" y="730"/>
      <point x="542" y="720" type="qcurve"/>
      <point x="523" y="695"/>
      <point x="464" y="607"/>
      <point x="401" y="508"/>
      <point x="343" y="414"/>
      <point x="326" y="383" type="qcurve" smooth="yes"/>
      <point x="317" y="367"/>
      <point x="283" y="312"/>
      <point x="241" y="247"/>
      <point x="195" y="175"/>
      <point x="151" y="108"/>
      <point x="113" y="50"/>
      <point x="100" y="31" type="qcurve"/>
      <point x="129" y="33"/>
      <point x="200" y="37"/>
      <point x="279" y="41"/>
      <point x="361" y="43"/>
      <point x="400" y="43" type="qcurve" smooth="yes"/>
      <point x="464" y="43"/>
      <point x="566" y="39"/>
      <point x="639" y="33"/>
      <point x="679" y="29"/>
    </contour>
  </outline>
</glyph>
<glyph name="bracketleft" format="1">
  <advance width="354"/>
  <unicode hex="005B"/>
  <outline>
    <contour>
      <point x="285" y="40" type="line" smooth="yes"/>
      <point x="296" y="40"/>
      <point x="312" y="24"/>
      <point x="313" y="12" type="qcurve" smooth="yes"/>
      <point x="313" y="1"/>
      <point x="297" y="-15"/>
      <point x="286" y="-16" type="qcurve" smooth="yes"/>
      <point x="258" y="-18"/>
      <point x="205" y="-23"/>
      <point x="162" y="-29"/>
      <point x="133" y="-33"/>
      <point x="130" y="-33" type="qcurve" smooth="yes"/>
      <point x="119" y="-33"/>
      <point x="103" y="-17"/>
      <point x="102" y="0" type="qcurve" smooth="yes"/>
      <point x="101" y="3"/>
      <point x="96" y="51"/>
      <point x="89" y="122"/>
      <point x="81" y="208"/>
      <point x="74" y="291"/>
      <point x="69" y="361"/>
      <point x="69" y="381" type="qcurve" smooth="yes"/>
      <point x="69" y="412"/>
      <point x="64" y="506"/>
      <point x="56" y="605"/>
      <point x="46" y="695"/>
      <point x="41" y="722" type="qcurve"/>
      <point x="41" y="732"/>
      <point x="55" y="748"/>
      <point x="69" y="750" type="qcurve" smooth="yes"/>
      <point x="74" y="750"/>
      <point x="80" y="748" type="qcurve"/>
      <point x="88" y="754"/>
      <point x="95" y="755" type="qcurve"/>
      <point x="99" y="728" type="line"/>
      <point x="95" y="755" type="line"/>
      <point x="98" y="756"/>
      <point x="127" y="760"/>
      <point x="171" y="766"/>
      <point x="226" y="771"/>
      <point x="255" y="773" type="qcurve" smooth="yes"/>
      <point x="266" y="773"/>
      <point x="282" y="757"/>
      <point x="282" y="745" type="qcurve" smooth="yes"/>
      <point x="282" y="734"/>
      <point x="267" y="718"/>
      <point x="256" y="717" type="qcurve" smooth="yes"/>
      <point x="228" y="715"/>
      <point x="175" y="710"/>
      <point x="131" y="704"/>
      <point x="103" y="700"/>
      <point x="101" y="700" type="qcurve"/>
      <point x="106" y="667"/>
      <point x="115" y="579"/>
      <point x="121" y="489"/>
      <point x="125" y="407"/>
      <point x="125" y="381" type="qcurve" smooth="yes"/>
      <point x="125" y="365"/>
      <point x="128" y="309"/>
      <point x="134" y="242"/>
      <point x="141" y="168"/>
      <point x="147" y="101"/>
      <point x="153" y="44"/>
      <point x="155" y="27" type="qcurve"/>
      <point x="178" y="30"/>
      <point x="246" y="38"/>
      <point x="283" y="40" type="qcurve"/>
    </contour>
  </outline>
</glyph>
<glyph name="backslash" format="1">
  <advance width="389"/>
  <unicode hex="005C"/>
  <outline>
    <contour>
      <point x="215" y="397" type="qcurve" smooth="yes"/>
      <point x="220" y="378"/>
      <point x="245" y="308"/>
      <point x="276" y="225"/>
      <point x="310" y="139"/>
      <point x="337" y="68"/>
      <point x="355" y="23"/>
      <point x="356" y="22" type="qcurve" smooth="yes"/>
      <point x="361" y="11"/>
      <point x="351" y="-7"/>
      <point x="337" y="-9" type="qcurve"/>
      <point x="326" y="-9"/>
      <point x="307" y="5"/>
      <point x="302" y="16" type="qcurve" smooth="yes"/>
      <point x="301" y="19"/>
      <point x="282" y="67"/>
      <point x="254" y="138"/>
      <point x="221" y="224"/>
      <point x="190" y="307"/>
      <point x="165" y="377"/>
      <point x="159" y="397" type="qcurve" smooth="yes"/>
      <point x="150" y="428"/>
      <point x="118" y="522"/>
      <point x="81" y="619"/>
      <point x="46" y="707"/>
      <point x="34" y="732" type="qcurve" smooth="yes"/>
      <point x="29" y="743"/>
      <point x="35" y="763"/>
      <point x="57" y="767"/>
      <point x="80" y="754"/>
      <point x="86" y="743" type="qcurve" smooth="yes"/>
      <point x="99" y="716"/>
      <point x="137" y="622"/>
      <point x="174" y="521"/>
      <point x="206" y="426"/>
    </contour>
  </outline>
</glyph>
<glyph name="bracketright" format="1">
  <advance width="391"/>
  <unicode hex="005D"/>
  <outline>
    <contour>
      <point x="348" y="42" type="line"/>
      <point x="350" y="39"/>
      <point x="350" y="31" type="qcurve" smooth="yes"/>
      <point x="350" y="20"/>
      <point x="333" y="3"/>
      <point x="318" y="3" type="qcurve" smooth="yes"/>
      <point x="297" y="3" type="line"/>
      <point x="261,5" y="2" type="line"/>
      <point x="216" y="-0,5" type="line"/>
      <point x="166" y="-5" type="line" smooth="yes"/>
      <point x="155" y="-5"/>
      <point x="139" y="10"/>
      <point x="138" y="23" type="qcurve" smooth="yes"/>
      <point x="138" y="34"/>
      <point x="152" y="49"/>
      <point x="163" y="51" type="qcurve" smooth="yes"/>
      <point x="199" y="55"/>
      <point x="267" y="58"/>
      <point x="290" y="59" type="qcurve"/>
      <point x="288" y="76"/>
      <point x="281" y="133"/>
      <point x="272" y="200"/>
      <point x="262" y="272"/>
      <point x="252" y="338"/>
      <point x="243" y="393"/>
      <point x="239" y="409" type="qcurve" smooth="yes"/>
      <point x="233" y="434"/>
      <point x="218" y="515"/>
      <point x="202" y="605"/>
      <point x="187" y="693"/>
      <point x="181" y="725" type="qcurve"/>
      <point x="168" y="725"/>
      <point x="80" y="723"/>
      <point x="28" y="717" type="qcurve"/>
      <point x="17" y="717"/>
      <point x="2" y="732"/>
      <point x="0" y="745" type="qcurve"/>
      <point x="0" y="756"/>
      <point x="14" y="772"/>
      <point x="25" y="773" type="qcurve" smooth="yes"/>
      <point x="51" y="776"/>
      <point x="101" y="779"/>
      <point x="145" y="781"/>
      <point x="161" y="781" type="qcurve" smooth="yes"/>
      <point x="185" y="781" type="line"/>
      <point x="201" y="776" type="line"/>
      <point x="208" y="781"/>
      <point x="216" y="781" type="qcurve" smooth="yes"/>
      <point x="227" y="781"/>
      <point x="243" y="765"/>
      <point x="244" y="754" type="qcurve" smooth="yes"/>
      <point x="245" y="729"/>
      <point x="255" y="641"/>
      <point x="270" y="544"/>
      <point x="286" y="451"/>
      <point x="293" y="421" type="qcurve" smooth="yes"/>
      <point x="298" y="402"/>
      <point x="309" y="332"/>
      <point x="322" y="250"/>
      <point x="333" y="164"/>
      <point x="342" y="94"/>
      <point x="348" y="46"/>
      <point x="348" y="43" type="qcurve" smooth="yes"/>
    </contour>
  </outline>
</glyph>
<glyph name="asciicircum" format="1">
  <advance width="487"/>
  <unicode hex="005E"/>
  <outline>
    <contour>
      <point x="383" y="514" type="qcurve" smooth="yes"/>
      <point x="413" y="438"/>
      <point x="435" y="342"/>
      <point x="436" y="336" type="qcurve"/>
      <point x="436" y="326"/>
      <point x="422" y="310"/>
      <point x="408" y="308" type="qcurve"/>
      <point x="397" y="308"/>
      <point x="382" y="321"/>
      <point x="380" y="331" type="qcurve" smooth="yes"/>
      <point x="380" y="332"/>
      <point x="359" y="422"/>
      <point x="331" y="494" type="qcurve" smooth="yes"/>
      <point x="314" y="536"/>
      <point x="274" y="620"/>
      <point x="257" y="652" type="qcurve"/>
      <point x="243" y="619"/>
      <point x="203" y="530"/>
      <point x="180" y="488" type="qcurve" smooth="yes"/>
      <point x="140" y="416"/>
      <point x="82" y="339"/>
      <point x="80" y="337" type="qcurve" smooth="yes"/>
      <point x="71" y="327"/>
      <point x="59" y="327" type="qcurve" smooth="yes"/>
      <point x="48" y="327"/>
      <point x="41" y="334" type="qcurve"/>
      <point x="31" y="341"/>
      <point x="31" y="355" type="qcurve" smooth="yes"/>
      <point x="31" y="365"/>
      <point x="37" y="373" type="qcurve" smooth="yes"/>
      <point x="38" y="374"/>
      <point x="93" y="447"/>
      <point x="131" y="515" type="qcurve" smooth="yes"/>
      <point x="150" y="549"/>
      <point x="184" y="624"/>
      <point x="211" y="687"/>
      <point x="219" y="708" type="qcurve" smooth="yes"/>
      <point x="227" y="728" type="line"/>
      <point x="232" y="737" type="line"/>
      <point x="241" y="743" type="line"/>
      <point x="251" y="746" type="line"/>
      <point x="263" y="745" type="line"/>
      <point x="272" y="740" type="line"/>
      <point x="278" y="732" type="line" smooth="yes"/>
      <point x="279" y="730"/>
      <point x="301" y="690"/>
      <point x="333" y="628"/>
      <point x="368" y="552"/>
    </contour>
  </outline>
</glyph>
<glyph name="underscore" format="1">
  <advance width="685"/>
  <unicode hex="005F"/>
  <outline>
    <contour>
      <point x="514" y="53"/>
      <point x="390" y="53" type="qcurve" smooth="yes"/>
      <point x="329" y="53"/>
      <point x="200" y="47"/>
      <point x="94" y="40"/>
      <point x="26" y="34"/>
      <point x="25" y="34" type="qcurve" smooth="yes"/>
      <point x="14" y="32"/>
      <point x="0" y="17"/>
      <point x="0" y="6" type="qcurve" smooth="yes"/>
      <point x="1" y="-7"/>
      <point x="17" y="-23"/>
      <point x="28" y="-22" type="qcurve" smooth="yes"/>
      <point x="30" y="-22"/>
      <point x="98" y="-16"/>
      <point x="203" y="-9"/>
      <point x="330" y="-3"/>
      <point x="450" y="-3"/>
      <point x="546" y="-7"/>
      <point x="615" y="-13"/>
      <point x="634" y="-15" type="qcurve" smooth="yes"/>
      <point x="653" y="-17" type="line"/>
      <point x="667" y="-17"/>
      <point x="683" y="-4"/>
      <point x="685" y="7" type="qcurve"/>
      <point x="685" y="20"/>
      <point x="672" y="36"/>
      <point x="661" y="38" type="qcurve" smooth="yes"/>
      <point x="657" y="39"/>
    </contour>
    <contour>
      <point x="514" y="53"/>
      <point x="390" y="53" type="qcurve" smooth="yes"/>
      <point x="329" y="53"/>
      <point x="200" y="47"/>
      <point x="94" y="40"/>
      <point x="26" y="34"/>
      <point x="25" y="34" type="qcurve" smooth="yes"/>
      <point x="14" y="32"/>
      <point x="0" y="17"/>
      <point x="0" y="6" type="qcurve" smooth="yes"/>
      <point x="1" y="-7"/>
      <point x="17" y="-23"/>
      <point x="28" y="-22" type="qcurve" smooth="yes"/>
      <point x="30" y="-22"/>
      <point x="98" y="-16"/>
      <point x="203" y="-9"/>
      <point x="330" y="-3"/>
      <point x="450" y="-3"/>
      <point x="546" y="-7"/>
      <point x="615" y="-13"/>
      <point x="634" y="-15" type="qcurve" smooth="yes"/>
      <point x="653" y="-17" type="line"/>
      <point x="667" y="-17"/>
      <point x="683" y="-4"/>
      <point x="685" y="7" type="qcurve"/>
      <point x="685" y="20"/>
      <point x="672" y="36"/>
      <point x="661" y="38" type="qcurve" smooth="yes"/>
      <point x="657" y="39"/>
    </contour>
  </outline>
</glyph>
<glyph name="grave" format="1">
  <advance width="717"/>
  <unicode hex="0060"/>
  <outline>
    <contour>
      <point x="426" y="554" type="qcurve" smooth="yes"/>
      <point x="431" y="546"/>
      <point x="443" y="530"/>
      <point x="456" y="518" type="qcurve" smooth="yes"/>
      <point x="465" y="510"/>
      <point x="465" y="486"/>
      <point x="458" y="479" type="qcurve" smooth="yes"/>
      <point x="449" y="470"/>
      <point x="437" y="470" type="qcurve" smooth="yes"/>
      <point x="426" y="470"/>
      <point x="418" y="477" type="qcurve" smooth="yes"/>
      <point x="402" y="492"/>
      <point x="386" y="514"/>
      <point x="380" y="523" type="qcurve" smooth="yes"/>
      <point x="368" y="539" type="line"/>
      <point x="348" y="559" type="line" smooth="yes"/>
      <point x="334" y="572"/>
      <point x="316" y="584"/>
      <point x="308" y="589" type="qcurve" smooth="yes"/>
      <point x="299" y="594"/>
      <point x="278" y="608"/>
      <point x="261" y="622" type="qcurve"/>
      <point x="252" y="631"/>
      <point x="252" y="644" type="qcurve" smooth="yes"/>
      <point x="252" y="653"/>
      <point x="258" y="662" type="qcurve"/>
      <point x="268" y="672"/>
      <point x="280" y="672" type="qcurve" smooth="yes"/>
      <point x="287" y="672"/>
      <point x="298" y="665" type="qcurve"/>
      <point x="312" y="653"/>
      <point x="329" y="641"/>
      <point x="337" y="636" type="qcurve" smooth="yes"/>
      <point x="347" y="631"/>
      <point x="368" y="616"/>
      <point x="385" y="601" type="qcurve" smooth="yes"/>
      <point x="402" y="585"/>
      <point x="420" y="563"/>
    </contour>
  </outline>
</glyph>
<glyph name="a" format="1">
  <advance width="560"/>
  <unicode hex="0061"/>
  <outline>
    <contour>
      <point x="246" y="38" type="qcurve" smooth="yes"/>
      <point x="267" y="38"/>
      <point x="317" y="77"/>
      <point x="364" y="143"/>
      <point x="402" y="232"/>
      <point x="411" y="282" type="qcurve"/>
      <point x="404" y="330"/>
      <point x="396" y="436"/>
      <point x="395" y="496" type="qcurve"/>
      <point x="384" y="505"/>
      <point x="384" y="518" type="qcurve"/>
      <point x="377" y="521"/>
      <point x="362" y="525"/>
      <point x="353" y="525" type="qcurve" smooth="yes"/>
      <point x="340" y="525"/>
      <point x="292" y="514"/>
      <point x="236" y="489"/>
      <point x="179" y="449"/>
      <point x="132" y="391"/>
      <point x="102" y="315"/>
      <point x="102" y="267" type="qcurve" smooth="yes"/>
      <point x="102" y="191"/>
      <point x="127" y="101"/>
      <point x="168" y="53"/>
      <point x="219" y="38"/>
    </contour>
    <contour>
      <point x="468" y="282" type="qcurve"/>
      <point x="477" y="220"/>
      <point x="501" y="122"/>
      <point x="522" y="54"/>
      <point x="537" y="17"/>
      <point x="537" y="16" type="qcurve" smooth="yes"/>
      <point x="538" y="13"/>
      <point x="539" y="8"/>
      <point x="539" y="5" type="qcurve" smooth="yes"/>
      <point x="539" y="-13"/>
      <point x="523" y="-21" type="qcurve"/>
      <point x="515" y="-23"/>
      <point x="511" y="-23" type="qcurve" smooth="yes"/>
      <point x="492" y="-23"/>
      <point x="486" y="-7" type="qcurve" smooth="yes"/>
      <point x="484" y="-3"/>
      <point x="451" y="84"/>
      <point x="433" y="162" type="qcurve"/>
      <point x="417" y="123"/>
      <point x="374" y="57"/>
      <point x="325" y="9"/>
      <point x="272" y="-18"/>
      <point x="246" y="-18" type="qcurve" smooth="yes"/>
      <point x="144" y="-18"/>
      <point x="46" y="122"/>
      <point x="46" y="267" type="qcurve" smooth="yes"/>
      <point x="46" y="327"/>
      <point x="82" y="420"/>
      <point x="139" y="490"/>
      <point x="210" y="538"/>
      <point x="278" y="568"/>
      <point x="336" y="581"/>
      <point x="353" y="581" type="qcurve" smooth="yes"/>
      <point x="383" y="581"/>
      <point x="427" y="558"/>
      <point x="456" y="529"/>
      <point x="470" y="504"/>
      <point x="470" y="503" type="qcurve" smooth="yes"/>
      <point x="473" y="498"/>
      <point x="473" y="492" type="qcurve" smooth="yes"/>
      <point x="473" y="482"/>
      <point x="464" y="471" type="qcurve"/>
      <point x="473" y="424"/>
      <point x="473" y="347" type="qcurve" smooth="yes"/>
      <point x="473" y="331"/>
      <point x="470" y="299"/>
    </contour>
  </outline>
</glyph>
<glyph name="b" format="1">
  <advance width="564"/>
  <unicode hex="0062"/>
  <outline>
    <contour>
      <point x="403" y="81" type="qcurve" smooth="yes"/>
      <point x="467" y="130"/>
      <point x="467" y="227" type="qcurve" smooth="yes"/>
      <point x="467" y="307"/>
      <point x="438" y="411"/>
      <point x="393" y="475"/>
      <point x="338" y="507"/>
      <point x="311" y="515" type="qcurve" smooth="yes"/>
      <point x="307" y="517"/>
      <point x="303" y="517" type="qcurve" smooth="yes"/>
      <point x="295" y="517" type="line" smooth="yes"/>
      <point x="281" y="517"/>
      <point x="254" y="505"/>
      <point x="244" y="497" type="qcurve" smooth="yes"/>
      <point x="226" y="483"/>
      <point x="189" y="437"/>
      <point x="160" y="374"/>
      <point x="142" y="297"/>
      <point x="142" y="253" type="qcurve"/>
      <point x="147" y="211"/>
      <point x="159" y="131"/>
      <point x="165" y="96" type="qcurve"/>
      <point x="176" y="88"/>
      <point x="176" y="70" type="qcurve"/>
      <point x="184" y="62"/>
      <point x="204" y="50"/>
      <point x="216" y="47" type="qcurve" smooth="yes"/>
      <point x="234" y="41"/>
      <point x="298" y="41"/>
      <point x="372" y="58"/>
    </contour>
    <contour>
      <point x="327" y="569" type="qcurve" smooth="yes"/>
      <point x="427" y="539"/>
      <point x="523" y="372"/>
      <point x="523" y="227" type="qcurve" smooth="yes"/>
      <point x="523" y="100"/>
      <point x="436" y="36" type="qcurve" smooth="yes"/>
      <point x="398" y="7"/>
      <point x="307" y="-15"/>
      <point x="266" y="-15" type="qcurve" smooth="yes"/>
      <point x="227" y="-15"/>
      <point x="200" y="-7" type="qcurve" smooth="yes"/>
      <point x="194" y="-5"/>
      <point x="182" y="0"/>
      <point x="177" y="2" type="qcurve"/>
      <point x="177" y="-20"/>
      <point x="149" y="-25" type="qcurve"/>
      <point x="139" y="-25"/>
      <point x="124" y="-12"/>
      <point x="122" y="-1" type="qcurve" smooth="yes"/>
      <point x="121" y="1"/>
      <point x="116" y="33"/>
      <point x="112" y="59" type="qcurve"/>
      <point x="100" y="75"/>
      <point x="89" y="99"/>
      <point x="88" y="100" type="qcurve" smooth="yes"/>
      <point x="87" y="103"/>
      <point x="86" y="108"/>
      <point x="86" y="111" type="qcurve" smooth="yes"/>
      <point x="86" y="123"/>
      <point x="95" y="131" type="qcurve"/>
      <point x="91" y="153"/>
      <point x="89" y="211"/>
      <point x="86" y="249" type="qcurve" smooth="yes"/>
      <point x="81" y="306"/>
      <point x="70" y="413"/>
      <point x="70" y="451" type="qcurve" smooth="yes"/>
      <point x="70" y="499"/>
      <point x="64" y="607"/>
      <point x="57" y="700"/>
      <point x="51" y="762"/>
      <point x="51" y="764" type="qcurve" smooth="yes"/>
      <point x="51" y="775"/>
      <point x="66" y="790"/>
      <point x="79" y="792" type="qcurve"/>
      <point x="90" y="792"/>
      <point x="106" y="777"/>
      <point x="107" y="766" type="qcurve" smooth="yes"/>
      <point x="107" y="763"/>
      <point x="113" y="701"/>
      <point x="120" y="609"/>
      <point x="126" y="500"/>
      <point x="126" y="451" type="qcurve" smooth="yes"/>
      <point x="126" y="435" type="line"/>
      <point x="142" y="468"/>
      <point x="184" y="523"/>
      <point x="210" y="542" type="qcurve" smooth="yes"/>
      <point x="251" y="573"/>
      <point x="296" y="573" type="qcurve" smooth="yes"/>
      <point x="304" y="573"/>
      <point x="319" y="571"/>
    </contour>
  </outline>
</glyph>
<glyph name="c" format="1">
  <advance width="421"/>
  <unicode hex="0063"/>
  <outline>
    <contour>
      <point x="327" y="56" type="line" smooth="yes"/>
      <point x="334" y="60"/>
      <point x="343" y="60" type="qcurve" smooth="yes"/>
      <point x="358" y="60"/>
      <point x="366" y="48" type="qcurve" smooth="yes"/>
      <point x="371" y="40"/>
      <point x="371" y="32" type="qcurve" smooth="yes"/>
      <point x="371" y="19"/>
      <point x="358" y="9" type="qcurve" smooth="yes"/>
      <point x="351" y="4" type="line" smooth="yes"/>
      <point x="343" y="-1"/>
      <point x="317" y="-11"/>
      <point x="284" y="-20"/>
      <point x="265" y="-20" type="qcurve" smooth="yes"/>
      <point x="241" y="-20"/>
      <point x="173" y="9"/>
      <point x="108" y="78"/>
      <point x="58" y="191"/>
      <point x="52" y="274" type="qcurve" smooth="yes"/>
      <point x="51" y="280"/>
      <point x="51" y="285,5" type="qcurve" smooth="yes"/>
      <point x="51" y="297" type="line" smooth="yes"/>
      <point x="51" y="362"/>
      <point x="98" y="466"/>
      <point x="164" y="539"/>
      <point x="235" y="580"/>
      <point x="260" y="582" type="qcurve" smooth="yes"/>
      <point x="265" y="583"/>
      <point x="270,5" y="583" type="qcurve" smooth="yes"/>
      <point x="281" y="583" type="line" smooth="yes"/>
      <point x="310" y="583"/>
      <point x="353" y="572"/>
      <point x="361" y="568" type="qcurve"/>
      <point x="372" y="566"/>
      <point x="396" y="539"/>
      <point x="396" y="501" type="qcurve" smooth="yes"/>
      <point x="396" y="489"/>
      <point x="379" y="473"/>
      <point x="368" y="473" type="qcurve" smooth="yes"/>
      <point x="356" y="473"/>
      <point x="340" y="489"/>
      <point x="340" y="501" type="qcurve" smooth="yes"/>
      <point x="340" y="509"/>
      <point x="338" y="517" type="qcurve"/>
      <point x="332" y="519"/>
      <point x="302" y="527"/>
      <point x="281" y="527" type="qcurve" smooth="yes"/>
      <point x="273,5" y="527" type="line"/>
      <point x="265" y="526" type="line" smooth="yes"/>
      <point x="249" y="524"/>
      <point x="196" y="492"/>
      <point x="145" y="433"/>
      <point x="107" y="349"/>
      <point x="107" y="296" type="qcurve" smooth="yes"/>
      <point x="107" y="287" type="line"/>
      <point x="108" y="278" type="line"/>
      <point x="112" y="210"/>
      <point x="150" y="118"/>
      <point x="199" y="61"/>
      <point x="248" y="36"/>
      <point x="265" y="36" type="qcurve" smooth="yes"/>
      <point x="277" y="36"/>
      <point x="299" y="42"/>
      <point x="317" y="49"/>
      <point x="322" y="53" type="qcurve" smooth="yes"/>
    </contour>
  </outline>
</glyph>
<glyph name="d" format="1">
  <advance width="541"/>
  <unicode hex="0064"/>
  <outline>
    <contour>
      <point x="405" y="118" type="qcurve" smooth="yes"/>
      <point x="410" y="125"/>
      <point x="420" y="128" type="qcurve"/>
      <point x="414" y="167"/>
      <point x="403" y="256"/>
      <point x="394" y="343"/>
      <point x="388" y="422"/>
      <point x="388" y="451" type="qcurve" smooth="yes"/>
      <point x="388" y="465" type="line"/>
      <point x="387" y="480" type="line"/>
      <point x="371" y="485"/>
      <point x="368" y="503" type="qcurve" smooth="yes"/>
      <point x="368" y="505"/>
      <point x="363" y="514"/>
      <point x="347" y="522"/>
      <point x="325" y="522"/>
      <point x="303" y="515"/>
      <point x="294" y="511" type="qcurve" smooth="yes"/>
      <point x="266" y="498"/>
      <point x="208" y="448"/>
      <point x="157" y="386"/>
      <point x="118" y="317"/>
      <point x="109" y="285" type="qcurve" smooth="yes"/>
      <point x="102" y="258"/>
      <point x="102" y="230" type="qcurve" smooth="yes"/>
      <point x="102" y="195"/>
      <point x="125" y="135"/>
      <point x="160" y="87"/>
      <point x="202" y="54"/>
      <point x="221" y="45" type="qcurve" smooth="yes"/>
      <point x="233" y="39"/>
      <point x="252" y="39" type="qcurve" smooth="yes"/>
      <point x="285" y="39"/>
      <point x="370" y="76"/>
    </contour>
    <contour>
      <point x="444" y="451" type="qcurve" smooth="yes"/>
      <point x="444" y="419"/>
      <point x="451" y="329"/>
      <point x="463" y="231"/>
      <point x="476" y="134"/>
      <point x="487" y="55"/>
      <point x="495" y="5"/>
      <point x="495" y="3" type="qcurve" smooth="yes"/>
      <point x="495" y="-7"/>
      <point x="481" y="-23"/>
      <point x="467" y="-25" type="qcurve"/>
      <point x="457" y="-25"/>
      <point x="441" y="-12"/>
      <point x="439" y="-1" type="qcurve" smooth="yes"/>
      <point x="439" y="1"/>
      <point x="434" y="35"/>
      <point x="430" y="63" type="qcurve"/>
      <point x="389" y="21"/>
      <point x="295" y="-17"/>
      <point x="253" y="-17" type="qcurve" smooth="yes"/>
      <point x="219" y="-17"/>
      <point x="198" y="-6" type="qcurve"/>
      <point x="168" y="8"/>
      <point x="113" y="55"/>
      <point x="71" y="116"/>
      <point x="46" y="190"/>
      <point x="46" y="231" type="qcurve" smooth="yes"/>
      <point x="46" y="264"/>
      <point x="55" y="300" type="qcurve" smooth="yes"/>
      <point x="65" y="338"/>
      <point x="110" y="418"/>
      <point x="168" y="488"/>
      <point x="236" y="545"/>
      <point x="270" y="561" type="qcurve" smooth="yes"/>
      <point x="306" y="578"/>
      <point x="336" y="578" type="qcurve" smooth="yes"/>
      <point x="348" y="578"/>
      <point x="370" y="573"/>
      <point x="384" y="566" type="qcurve"/>
      <point x="382" y="603"/>
      <point x="377" y="673"/>
      <point x="372" y="728"/>
      <point x="369" y="762"/>
      <point x="369" y="764" type="qcurve" smooth="yes"/>
      <point x="369" y="775"/>
      <point x="384" y="790"/>
      <point x="397" y="792" type="qcurve"/>
      <point x="408" y="792"/>
      <point x="423" y="777"/>
      <point x="425" y="766" type="qcurve" smooth="yes"/>
      <point x="425" y="763"/>
      <point x="431" y="701"/>
      <point x="438" y="609"/>
      <point x="444" y="500"/>
    </contour>
  </outline>
</glyph>
<glyph name="f" format="1">
  <advance width="410"/>
  <unicode hex="0066"/>
  <outline>
    <contour>
      <point x="459" y="561" type="line"/>
      <point x="450" y="561"/>
      <point x="434" y="573"/>
      <point x="432" y="583" type="qcurve" smooth="yes"/>
      <point x="432" y="585"/>
      <point x="418" y="626"/>
      <point x="387" y="673"/>
      <point x="333" y="711"/>
      <point x="293" y="711" type="qcurve" smooth="yes"/>
      <point x="258" y="711"/>
      <point x="229" y="682" type="qcurve" smooth="yes"/>
      <point x="215" y="667"/>
      <point x="198" y="629"/>
      <point x="198" y="609" type="qcurve" smooth="yes"/>
      <point x="202" y="457" type="line"/>
      <point x="231" y="459"/>
      <point x="294" y="463"/>
      <point x="327" y="465" type="qcurve" smooth="yes"/>
      <point x="338" y="465"/>
      <point x="354" y="449"/>
      <point x="355" y="437" type="qcurve" smooth="yes"/>
      <point x="355" y="426"/>
      <point x="339" y="409"/>
      <point x="328" y="409" type="qcurve" smooth="yes"/>
      <point x="296" y="407"/>
      <point x="234" y="403"/>
      <point x="205" y="401" type="qcurve"/>
      <point x="209" y="346"/>
      <point x="228" y="215"/>
      <point x="246" y="99"/>
      <point x="260" y="20"/>
      <point x="260" y="17" type="qcurve" smooth="yes"/>
      <point x="260" y="-6"/>
      <point x="232" y="-11" type="qcurve"/>
      <point x="209" y="-11"/>
      <point x="204" y="12" type="qcurve" smooth="yes"/>
      <point x="204" y="15"/>
      <point x="197" y="53"/>
      <point x="186" y="114"/>
      <point x="174" y="191"/>
      <point x="162" y="275"/>
      <point x="152" y="359"/>
      <point x="149" y="396" type="qcurve"/>
      <point x="106" y="392"/>
      <point x="52" y="386"/>
      <point x="48" y="385" type="qcurve"/>
      <point x="38" y="385"/>
      <point x="22" y="399"/>
      <point x="20" y="413" type="qcurve"/>
      <point x="20" y="424"/>
      <point x="34" y="439"/>
      <point x="45" y="441" type="qcurve" smooth="yes"/>
      <point x="46" y="441"/>
      <point x="101" y="447"/>
      <point x="146" y="452" type="qcurve"/>
      <point x="146" y="465" type="line"/>
      <point x="142" y="611" type="line" smooth="yes"/>
      <point x="142" y="640"/>
      <point x="167" y="698"/>
      <point x="189" y="721" type="qcurve" smooth="yes"/>
      <point x="211" y="743"/>
      <point x="264" y="767"/>
      <point x="293" y="767" type="qcurve" smooth="yes"/>
      <point x="339" y="767"/>
      <point x="407" y="730"/>
      <point x="454" y="676"/>
      <point x="482" y="614"/>
      <point x="487" y="589" type="qcurve"/>
      <point x="487" y="567"/>
      <point x="466" y="562" type="qcurve"/>
    </contour>
  </outline>
</glyph>
<glyph name="g" format="1">
  <advance width="548"/>
  <unicode hex="0067"/>
  <outline>
    <contour>
      <point x="418" y="149" type="qcurve" smooth="yes"/>
      <point x="421" y="158"/>
      <point x="431" y="163" type="qcurve"/>
      <point x="424" y="232"/>
      <point x="415" y="350"/>
      <point x="415" y="387" type="qcurve" smooth="yes"/>
      <point x="415" y="399" type="line"/>
      <point x="405" y="404"/>
      <point x="401" y="412" type="qcurve" smooth="yes"/>
      <point x="380" y="451"/>
      <point x="339" y="485"/>
      <point x="333" y="486" type="qcurve"/>
      <point x="316" y="486"/>
      <point x="289" y="482"/>
      <point x="284" y="481" type="qcurve"/>
      <point x="271" y="481"/>
      <point x="263" y="491" type="qcurve"/>
      <point x="238" y="481"/>
      <point x="183" y="411"/>
      <point x="137" y="318"/>
      <point x="107" y="213"/>
      <point x="107" y="169" type="qcurve" smooth="yes"/>
      <point x="107" y="122"/>
      <point x="139" y="58"/>
      <point x="187" y="17"/>
      <point x="242" y="-1"/>
      <point x="265" y="-1" type="qcurve" smooth="yes"/>
      <point x="280" y="-1"/>
      <point x="321" y="20"/>
      <point x="364" y="59"/>
      <point x="404" y="114"/>
    </contour>
    <contour>
      <point x="471" y="387" type="qcurve" smooth="yes"/>
      <point x="471" y="364"/>
      <point x="475" y="295"/>
      <point x="482" y="214"/>
      <point x="490" y="123"/>
      <point x="495" y="77" type="qcurve" smooth="yes"/>
      <point x="499" y="32"/>
      <point x="508" y="-53"/>
      <point x="514" y="-128"/>
      <point x="518" y="-190"/>
      <point x="518" y="-211" type="qcurve" smooth="yes"/>
      <point x="518" y="-247"/>
      <point x="490" y="-318"/>
      <point x="436" y="-374"/>
      <point x="357" y="-409"/>
      <point x="305" y="-409" type="qcurve" smooth="yes"/>
      <point x="157" y="-409"/>
      <point x="93" y="-247" type="qcurve" smooth="yes"/>
      <point x="91" y="-243"/>
      <point x="91" y="-236" type="qcurve" smooth="yes"/>
      <point x="91" y="-218"/>
      <point x="108" y="-210" type="qcurve" smooth="yes"/>
      <point x="111" y="-209"/>
      <point x="116" y="-208"/>
      <point x="119" y="-208" type="qcurve" smooth="yes"/>
      <point x="137" y="-208"/>
      <point x="145" y="-227" type="qcurve" smooth="yes"/>
      <point x="150" y="-240"/>
      <point x="171" y="-283"/>
      <point x="207" y="-323"/>
      <point x="264" y="-353"/>
      <point x="305" y="-353" type="qcurve" smooth="yes"/>
      <point x="348" y="-353"/>
      <point x="408" y="-325"/>
      <point x="445" y="-282"/>
      <point x="462" y="-232"/>
      <point x="462" y="-211" type="qcurve" smooth="yes"/>
      <point x="462" y="-191"/>
      <point x="458" y="-130"/>
      <point x="452" y="-56"/>
      <point x="444" y="27"/>
      <point x="440" y="69" type="qcurve"/>
      <point x="421" y="39"/>
      <point x="376" y="-7"/>
      <point x="329" y="-40"/>
      <point x="284" y="-57"/>
      <point x="265" y="-57" type="qcurve" smooth="yes"/>
      <point x="226" y="-57"/>
      <point x="149" y="-28"/>
      <point x="89" y="29"/>
      <point x="51" y="114"/>
      <point x="51" y="169" type="qcurve" smooth="yes"/>
      <point x="51" y="204"/>
      <point x="69" y="288"/>
      <point x="100" y="372"/>
      <point x="143" y="452"/>
      <point x="193" y="513"/>
      <point x="249" y="550"/>
      <point x="278" y="550" type="qcurve" smooth="yes"/>
      <point x="299" y="550"/>
      <point x="313" y="541" type="qcurve"/>
      <point x="318" y="542"/>
      <point x="323" y="542" type="qcurve" smooth="yes"/>
      <point x="334" y="542" type="line" smooth="yes"/>
      <point x="352" y="542"/>
      <point x="396" y="514"/>
      <point x="416" y="489" type="qcurve"/>
      <point x="418" y="501"/>
      <point x="427" y="521"/>
      <point x="443" y="522" type="qcurve" smooth="yes"/>
      <point x="469" y="524" type="line"/>
      <point x="473" y="498" type="line"/>
      <point x="473" y="494,5" type="line"/>
      <point x="472" y="486" type="line" smooth="yes"/>
      <point x="472" y="480"/>
      <point x="471" y="438"/>
    </contour>
  </outline>
</glyph>
